<?xml version="1.0" encoding="utf-8"?>
<svg xmlns="http://www.w3.org/2000/svg" xmlns:xlink="http://www.w3.org/1999/xlink" width="600" height="400" viewBox="0 0 2400 1600">
<defs>
  <clipPath id="clip180">
    <rect x="0" y="0" width="2400" height="1600"/>
  </clipPath>
</defs>
<path clip-path="url(#clip180)" d="M0 1600 L2400 1600 L2400 0 L0 0  Z" fill="#ffffff" fill-rule="evenodd" fill-opacity="1"/>
<defs>
  <clipPath id="clip181">
    <rect x="480" y="0" width="1681" height="1600"/>
  </clipPath>
</defs>
<path clip-path="url(#clip180)" d="M186.76 1486.45 L2352.76 1486.45 L2352.76 47.2441 L186.76 47.2441  Z" fill="#ffffff" fill-rule="evenodd" fill-opacity="1"/>
<defs>
  <clipPath id="clip182">
    <rect x="186" y="47" width="2167" height="1440"/>
  </clipPath>
</defs>
<polyline clip-path="url(#clip182)" style="stroke:#000000; stroke-linecap:round; stroke-linejoin:round; stroke-width:2; stroke-opacity:0.1; fill:none" points="246.785,1486.45 246.785,47.2441 "/>
<polyline clip-path="url(#clip182)" style="stroke:#000000; stroke-linecap:round; stroke-linejoin:round; stroke-width:2; stroke-opacity:0.1; fill:none" points="885.345,1486.45 885.345,47.2441 "/>
<polyline clip-path="url(#clip182)" style="stroke:#000000; stroke-linecap:round; stroke-linejoin:round; stroke-width:2; stroke-opacity:0.1; fill:none" points="1523.9,1486.45 1523.9,47.2441 "/>
<polyline clip-path="url(#clip182)" style="stroke:#000000; stroke-linecap:round; stroke-linejoin:round; stroke-width:2; stroke-opacity:0.1; fill:none" points="2162.47,1486.45 2162.47,47.2441 "/>
<polyline clip-path="url(#clip180)" style="stroke:#000000; stroke-linecap:round; stroke-linejoin:round; stroke-width:4; stroke-opacity:1; fill:none" points="186.76,1486.45 2352.76,1486.45 "/>
<polyline clip-path="url(#clip180)" style="stroke:#000000; stroke-linecap:round; stroke-linejoin:round; stroke-width:4; stroke-opacity:1; fill:none" points="246.785,1486.45 246.785,1467.55 "/>
<polyline clip-path="url(#clip180)" style="stroke:#000000; stroke-linecap:round; stroke-linejoin:round; stroke-width:4; stroke-opacity:1; fill:none" points="885.345,1486.45 885.345,1467.55 "/>
<polyline clip-path="url(#clip180)" style="stroke:#000000; stroke-linecap:round; stroke-linejoin:round; stroke-width:4; stroke-opacity:1; fill:none" points="1523.9,1486.45 1523.9,1467.55 "/>
<polyline clip-path="url(#clip180)" style="stroke:#000000; stroke-linecap:round; stroke-linejoin:round; stroke-width:4; stroke-opacity:1; fill:none" points="2162.47,1486.45 2162.47,1467.55 "/>
<path clip-path="url(#clip180)" d="M246.785 1517.37 Q243.174 1517.37 241.345 1520.93 Q239.539 1524.47 239.539 1531.6 Q239.539 1538.71 241.345 1542.27 Q243.174 1545.82 246.785 1545.82 Q250.419 1545.82 252.225 1542.27 Q254.053 1538.71 254.053 1531.6 Q254.053 1524.47 252.225 1520.93 Q250.419 1517.37 246.785 1517.37 M246.785 1513.66 Q252.595 1513.66 255.65 1518.27 Q258.729 1522.85 258.729 1531.6 Q258.729 1540.33 255.65 1544.94 Q252.595 1549.52 246.785 1549.52 Q240.975 1549.52 237.896 1544.94 Q234.84 1540.33 234.84 1531.6 Q234.84 1522.85 237.896 1518.27 Q240.975 1513.66 246.785 1513.66 Z" fill="#000000" fill-rule="nonzero" fill-opacity="1" /><path clip-path="url(#clip180)" d="M844.963 1514.29 L863.319 1514.29 L863.319 1518.22 L849.245 1518.22 L849.245 1526.7 Q850.264 1526.35 851.283 1526.19 Q852.301 1526 853.32 1526 Q859.107 1526 862.486 1529.17 Q865.866 1532.34 865.866 1537.76 Q865.866 1543.34 862.394 1546.44 Q858.921 1549.52 852.602 1549.52 Q850.426 1549.52 848.158 1549.15 Q845.912 1548.78 843.505 1548.04 L843.505 1543.34 Q845.588 1544.47 847.81 1545.03 Q850.033 1545.58 852.509 1545.58 Q856.514 1545.58 858.852 1543.48 Q861.19 1541.37 861.19 1537.76 Q861.19 1534.15 858.852 1532.04 Q856.514 1529.94 852.509 1529.94 Q850.634 1529.94 848.759 1530.35 Q846.908 1530.77 844.963 1531.65 L844.963 1514.29 Z" fill="#000000" fill-rule="nonzero" fill-opacity="1" /><path clip-path="url(#clip180)" d="M885.079 1517.37 Q881.468 1517.37 879.639 1520.93 Q877.833 1524.47 877.833 1531.6 Q877.833 1538.71 879.639 1542.27 Q881.468 1545.82 885.079 1545.82 Q888.713 1545.82 890.518 1542.27 Q892.347 1538.71 892.347 1531.6 Q892.347 1524.47 890.518 1520.93 Q888.713 1517.37 885.079 1517.37 M885.079 1513.66 Q890.889 1513.66 893.944 1518.27 Q897.023 1522.85 897.023 1531.6 Q897.023 1540.33 893.944 1544.94 Q890.889 1549.52 885.079 1549.52 Q879.268 1549.52 876.19 1544.94 Q873.134 1540.33 873.134 1531.6 Q873.134 1522.85 876.19 1518.27 Q879.268 1513.66 885.079 1513.66 Z" fill="#000000" fill-rule="nonzero" fill-opacity="1" /><path clip-path="url(#clip180)" d="M915.241 1517.37 Q911.629 1517.37 909.801 1520.93 Q907.995 1524.47 907.995 1531.6 Q907.995 1538.71 909.801 1542.27 Q911.629 1545.82 915.241 1545.82 Q918.875 1545.82 920.68 1542.27 Q922.509 1538.71 922.509 1531.6 Q922.509 1524.47 920.68 1520.93 Q918.875 1517.37 915.241 1517.37 M915.241 1513.66 Q921.051 1513.66 924.106 1518.27 Q927.185 1522.85 927.185 1531.6 Q927.185 1540.33 924.106 1544.94 Q921.051 1549.52 915.241 1549.52 Q909.43 1549.52 906.352 1544.94 Q903.296 1540.33 903.296 1531.6 Q903.296 1522.85 906.352 1518.27 Q909.43 1513.66 915.241 1513.66 Z" fill="#000000" fill-rule="nonzero" fill-opacity="1" /><path clip-path="url(#clip180)" d="M1468.43 1544.91 L1476.07 1544.91 L1476.07 1518.55 L1467.76 1520.21 L1467.76 1515.95 L1476.02 1514.29 L1480.7 1514.29 L1480.7 1544.91 L1488.34 1544.91 L1488.34 1548.85 L1468.43 1548.85 L1468.43 1544.91 Z" fill="#000000" fill-rule="nonzero" fill-opacity="1" /><path clip-path="url(#clip180)" d="M1507.78 1517.37 Q1504.17 1517.37 1502.34 1520.93 Q1500.54 1524.47 1500.54 1531.6 Q1500.54 1538.71 1502.34 1542.27 Q1504.17 1545.82 1507.78 1545.82 Q1511.42 1545.82 1513.22 1542.27 Q1515.05 1538.71 1515.05 1531.6 Q1515.05 1524.47 1513.22 1520.93 Q1511.42 1517.37 1507.78 1517.37 M1507.78 1513.66 Q1513.59 1513.66 1516.65 1518.27 Q1519.73 1522.85 1519.73 1531.6 Q1519.73 1540.33 1516.65 1544.94 Q1513.59 1549.52 1507.78 1549.52 Q1501.97 1549.52 1498.89 1544.94 Q1495.84 1540.33 1495.84 1531.6 Q1495.84 1522.85 1498.89 1518.27 Q1501.97 1513.66 1507.78 1513.66 Z" fill="#000000" fill-rule="nonzero" fill-opacity="1" /><path clip-path="url(#clip180)" d="M1537.94 1517.37 Q1534.33 1517.37 1532.5 1520.93 Q1530.7 1524.47 1530.7 1531.6 Q1530.7 1538.71 1532.5 1542.27 Q1534.33 1545.82 1537.94 1545.82 Q1541.58 1545.82 1543.38 1542.27 Q1545.21 1538.71 1545.21 1531.6 Q1545.21 1524.47 1543.38 1520.93 Q1541.58 1517.37 1537.94 1517.37 M1537.94 1513.66 Q1543.75 1513.66 1546.81 1518.27 Q1549.89 1522.85 1549.89 1531.6 Q1549.89 1540.33 1546.81 1544.94 Q1543.75 1549.52 1537.94 1549.52 Q1532.13 1549.52 1529.06 1544.94 Q1526 1540.33 1526 1531.6 Q1526 1522.85 1529.06 1518.27 Q1532.13 1513.66 1537.94 1513.66 Z" fill="#000000" fill-rule="nonzero" fill-opacity="1" /><path clip-path="url(#clip180)" d="M1568.11 1517.37 Q1564.49 1517.37 1562.67 1520.93 Q1560.86 1524.47 1560.86 1531.6 Q1560.86 1538.71 1562.67 1542.27 Q1564.49 1545.82 1568.11 1545.82 Q1571.74 1545.82 1573.55 1542.27 Q1575.37 1538.71 1575.37 1531.6 Q1575.37 1524.47 1573.55 1520.93 Q1571.74 1517.37 1568.11 1517.37 M1568.11 1513.66 Q1573.92 1513.66 1576.97 1518.27 Q1580.05 1522.85 1580.05 1531.6 Q1580.05 1540.33 1576.97 1544.94 Q1573.92 1549.52 1568.11 1549.52 Q1562.3 1549.52 1559.22 1544.94 Q1556.16 1540.33 1556.16 1531.6 Q1556.16 1522.85 1559.22 1518.27 Q1562.3 1513.66 1568.11 1513.66 Z" fill="#000000" fill-rule="nonzero" fill-opacity="1" /><path clip-path="url(#clip180)" d="M2106.99 1544.91 L2114.63 1544.91 L2114.63 1518.55 L2106.32 1520.21 L2106.32 1515.95 L2114.58 1514.29 L2119.26 1514.29 L2119.26 1544.91 L2126.9 1544.91 L2126.9 1548.85 L2106.99 1548.85 L2106.99 1544.91 Z" fill="#000000" fill-rule="nonzero" fill-opacity="1" /><path clip-path="url(#clip180)" d="M2136.39 1514.29 L2154.75 1514.29 L2154.75 1518.22 L2140.67 1518.22 L2140.67 1526.7 Q2141.69 1526.35 2142.71 1526.19 Q2143.73 1526 2144.75 1526 Q2150.53 1526 2153.91 1529.17 Q2157.29 1532.34 2157.29 1537.76 Q2157.29 1543.34 2153.82 1546.44 Q2150.35 1549.52 2144.03 1549.52 Q2141.85 1549.52 2139.58 1549.15 Q2137.34 1548.78 2134.93 1548.04 L2134.93 1543.34 Q2137.01 1544.47 2139.24 1545.03 Q2141.46 1545.58 2143.94 1545.58 Q2147.94 1545.58 2150.28 1543.48 Q2152.62 1541.37 2152.62 1537.76 Q2152.62 1534.15 2150.28 1532.04 Q2147.94 1529.94 2143.94 1529.94 Q2142.06 1529.94 2140.19 1530.35 Q2138.33 1530.77 2136.39 1531.65 L2136.39 1514.29 Z" fill="#000000" fill-rule="nonzero" fill-opacity="1" /><path clip-path="url(#clip180)" d="M2176.5 1517.37 Q2172.89 1517.37 2171.06 1520.93 Q2169.26 1524.47 2169.26 1531.6 Q2169.26 1538.71 2171.06 1542.27 Q2172.89 1545.82 2176.5 1545.82 Q2180.14 1545.82 2181.94 1542.27 Q2183.77 1538.71 2183.77 1531.6 Q2183.77 1524.47 2181.94 1520.93 Q2180.14 1517.37 2176.5 1517.37 M2176.5 1513.66 Q2182.31 1513.66 2185.37 1518.27 Q2188.45 1522.85 2188.45 1531.6 Q2188.45 1540.33 2185.37 1544.94 Q2182.31 1549.52 2176.5 1549.52 Q2170.69 1549.52 2167.62 1544.94 Q2164.56 1540.33 2164.56 1531.6 Q2164.56 1522.85 2167.62 1518.27 Q2170.69 1513.66 2176.5 1513.66 Z" fill="#000000" fill-rule="nonzero" fill-opacity="1" /><path clip-path="url(#clip180)" d="M2206.67 1517.37 Q2203.06 1517.37 2201.23 1520.93 Q2199.42 1524.47 2199.42 1531.6 Q2199.42 1538.71 2201.23 1542.27 Q2203.06 1545.82 2206.67 1545.82 Q2210.3 1545.82 2212.11 1542.27 Q2213.93 1538.71 2213.93 1531.6 Q2213.93 1524.47 2212.11 1520.93 Q2210.3 1517.37 2206.67 1517.37 M2206.67 1513.66 Q2212.48 1513.66 2215.53 1518.27 Q2218.61 1522.85 2218.61 1531.6 Q2218.61 1540.33 2215.53 1544.94 Q2212.48 1549.52 2206.67 1549.52 Q2200.86 1549.52 2197.78 1544.94 Q2194.72 1540.33 2194.72 1531.6 Q2194.72 1522.85 2197.78 1518.27 Q2200.86 1513.66 2206.67 1513.66 Z" fill="#000000" fill-rule="nonzero" fill-opacity="1" /><polyline clip-path="url(#clip182)" style="stroke:#000000; stroke-linecap:round; stroke-linejoin:round; stroke-width:2; stroke-opacity:0.1; fill:none" points="186.76,1375.37 2352.76,1375.37 "/>
<polyline clip-path="url(#clip182)" style="stroke:#000000; stroke-linecap:round; stroke-linejoin:round; stroke-width:2; stroke-opacity:0.1; fill:none" points="186.76,1172.64 2352.76,1172.64 "/>
<polyline clip-path="url(#clip182)" style="stroke:#000000; stroke-linecap:round; stroke-linejoin:round; stroke-width:2; stroke-opacity:0.1; fill:none" points="186.76,969.919 2352.76,969.919 "/>
<polyline clip-path="url(#clip182)" style="stroke:#000000; stroke-linecap:round; stroke-linejoin:round; stroke-width:2; stroke-opacity:0.1; fill:none" points="186.76,767.194 2352.76,767.194 "/>
<polyline clip-path="url(#clip182)" style="stroke:#000000; stroke-linecap:round; stroke-linejoin:round; stroke-width:2; stroke-opacity:0.1; fill:none" points="186.76,564.47 2352.76,564.47 "/>
<polyline clip-path="url(#clip182)" style="stroke:#000000; stroke-linecap:round; stroke-linejoin:round; stroke-width:2; stroke-opacity:0.1; fill:none" points="186.76,361.745 2352.76,361.745 "/>
<polyline clip-path="url(#clip182)" style="stroke:#000000; stroke-linecap:round; stroke-linejoin:round; stroke-width:2; stroke-opacity:0.1; fill:none" points="186.76,159.021 2352.76,159.021 "/>
<polyline clip-path="url(#clip180)" style="stroke:#000000; stroke-linecap:round; stroke-linejoin:round; stroke-width:4; stroke-opacity:1; fill:none" points="186.76,1486.45 186.76,47.2441 "/>
<polyline clip-path="url(#clip180)" style="stroke:#000000; stroke-linecap:round; stroke-linejoin:round; stroke-width:4; stroke-opacity:1; fill:none" points="186.76,1375.37 205.658,1375.37 "/>
<polyline clip-path="url(#clip180)" style="stroke:#000000; stroke-linecap:round; stroke-linejoin:round; stroke-width:4; stroke-opacity:1; fill:none" points="186.76,1172.64 205.658,1172.64 "/>
<polyline clip-path="url(#clip180)" style="stroke:#000000; stroke-linecap:round; stroke-linejoin:round; stroke-width:4; stroke-opacity:1; fill:none" points="186.76,969.919 205.658,969.919 "/>
<polyline clip-path="url(#clip180)" style="stroke:#000000; stroke-linecap:round; stroke-linejoin:round; stroke-width:4; stroke-opacity:1; fill:none" points="186.76,767.194 205.658,767.194 "/>
<polyline clip-path="url(#clip180)" style="stroke:#000000; stroke-linecap:round; stroke-linejoin:round; stroke-width:4; stroke-opacity:1; fill:none" points="186.76,564.47 205.658,564.47 "/>
<polyline clip-path="url(#clip180)" style="stroke:#000000; stroke-linecap:round; stroke-linejoin:round; stroke-width:4; stroke-opacity:1; fill:none" points="186.76,361.745 205.658,361.745 "/>
<polyline clip-path="url(#clip180)" style="stroke:#000000; stroke-linecap:round; stroke-linejoin:round; stroke-width:4; stroke-opacity:1; fill:none" points="186.76,159.021 205.658,159.021 "/>
<path clip-path="url(#clip180)" d="M63.5152 1361.17 Q59.9041 1361.17 58.0754 1364.73 Q56.2699 1368.27 56.2699 1375.4 Q56.2699 1382.51 58.0754 1386.07 Q59.9041 1389.62 63.5152 1389.62 Q67.1494 1389.62 68.955 1386.07 Q70.7837 1382.51 70.7837 1375.4 Q70.7837 1368.27 68.955 1364.73 Q67.1494 1361.17 63.5152 1361.17 M63.5152 1357.46 Q69.3254 1357.46 72.3809 1362.07 Q75.4596 1366.65 75.4596 1375.4 Q75.4596 1384.13 72.3809 1388.74 Q69.3254 1393.32 63.5152 1393.32 Q57.7051 1393.32 54.6264 1388.74 Q51.5708 1384.13 51.5708 1375.4 Q51.5708 1366.65 54.6264 1362.07 Q57.7051 1357.46 63.5152 1357.46 Z" fill="#000000" fill-rule="nonzero" fill-opacity="1" /><path clip-path="url(#clip180)" d="M83.6771 1386.77 L88.5614 1386.77 L88.5614 1392.65 L83.6771 1392.65 L83.6771 1386.77 Z" fill="#000000" fill-rule="nonzero" fill-opacity="1" /><path clip-path="url(#clip180)" d="M99.5567 1388.71 L107.196 1388.71 L107.196 1362.35 L98.8854 1364.01 L98.8854 1359.75 L107.149 1358.09 L111.825 1358.09 L111.825 1388.71 L119.464 1388.71 L119.464 1392.65 L99.5567 1392.65 L99.5567 1388.71 Z" fill="#000000" fill-rule="nonzero" fill-opacity="1" /><path clip-path="url(#clip180)" d="M138.908 1376.24 Q135.575 1376.24 133.654 1378.02 Q131.756 1379.8 131.756 1382.93 Q131.756 1386.05 133.654 1387.83 Q135.575 1389.62 138.908 1389.62 Q142.242 1389.62 144.163 1387.83 Q146.084 1386.03 146.084 1382.93 Q146.084 1379.8 144.163 1378.02 Q142.265 1376.24 138.908 1376.24 M134.232 1374.25 Q131.223 1373.5 129.533 1371.44 Q127.867 1369.38 127.867 1366.42 Q127.867 1362.28 130.807 1359.87 Q133.769 1357.46 138.908 1357.46 Q144.07 1357.46 147.01 1359.87 Q149.95 1362.28 149.95 1366.42 Q149.95 1369.38 148.26 1371.44 Q146.593 1373.5 143.607 1374.25 Q146.987 1375.03 148.862 1377.32 Q150.76 1379.62 150.76 1382.93 Q150.76 1387.95 147.681 1390.63 Q144.626 1393.32 138.908 1393.32 Q133.191 1393.32 130.112 1390.63 Q127.057 1387.95 127.057 1382.93 Q127.057 1379.62 128.955 1377.32 Q130.853 1375.03 134.232 1374.25 M132.519 1366.86 Q132.519 1369.55 134.186 1371.05 Q135.876 1372.56 138.908 1372.56 Q141.918 1372.56 143.607 1371.05 Q145.32 1369.55 145.32 1366.86 Q145.32 1364.18 143.607 1362.67 Q141.918 1361.17 138.908 1361.17 Q135.876 1361.17 134.186 1362.67 Q132.519 1364.18 132.519 1366.86 Z" fill="#000000" fill-rule="nonzero" fill-opacity="1" /><path clip-path="url(#clip180)" d="M63.6078 1158.44 Q59.9967 1158.44 58.168 1162.01 Q56.3625 1165.55 56.3625 1172.68 Q56.3625 1179.78 58.168 1183.35 Q59.9967 1186.89 63.6078 1186.89 Q67.242 1186.89 69.0476 1183.35 Q70.8763 1179.78 70.8763 1172.68 Q70.8763 1165.55 69.0476 1162.01 Q67.242 1158.44 63.6078 1158.44 M63.6078 1154.74 Q69.418 1154.74 72.4735 1159.34 Q75.5522 1163.93 75.5522 1172.68 Q75.5522 1181.4 72.4735 1186.01 Q69.418 1190.59 63.6078 1190.59 Q57.7976 1190.59 54.719 1186.01 Q51.6634 1181.4 51.6634 1172.68 Q51.6634 1163.93 54.719 1159.34 Q57.7976 1154.74 63.6078 1154.74 Z" fill="#000000" fill-rule="nonzero" fill-opacity="1" /><path clip-path="url(#clip180)" d="M83.7697 1184.04 L88.654 1184.04 L88.654 1189.92 L83.7697 1189.92 L83.7697 1184.04 Z" fill="#000000" fill-rule="nonzero" fill-opacity="1" /><path clip-path="url(#clip180)" d="M99.6493 1185.99 L107.288 1185.99 L107.288 1159.62 L98.978 1161.29 L98.978 1157.03 L107.242 1155.36 L111.918 1155.36 L111.918 1185.99 L119.557 1185.99 L119.557 1189.92 L99.6493 1189.92 L99.6493 1185.99 Z" fill="#000000" fill-rule="nonzero" fill-opacity="1" /><path clip-path="url(#clip180)" d="M129.14 1189.21 L129.14 1184.95 Q130.899 1185.78 132.705 1186.22 Q134.51 1186.66 136.246 1186.66 Q140.876 1186.66 143.306 1183.56 Q145.76 1180.43 146.107 1174.09 Q144.765 1176.08 142.705 1177.15 Q140.644 1178.21 138.144 1178.21 Q132.959 1178.21 129.927 1175.09 Q126.918 1171.94 126.918 1166.5 Q126.918 1161.17 130.066 1157.96 Q133.214 1154.74 138.445 1154.74 Q144.441 1154.74 147.589 1159.34 Q150.76 1163.93 150.76 1172.68 Q150.76 1180.85 146.871 1185.73 Q143.006 1190.59 136.455 1190.59 Q134.695 1190.59 132.89 1190.25 Q131.084 1189.9 129.14 1189.21 M138.445 1174.55 Q141.593 1174.55 143.422 1172.4 Q145.274 1170.25 145.274 1166.5 Q145.274 1162.77 143.422 1160.62 Q141.593 1158.44 138.445 1158.44 Q135.297 1158.44 133.445 1160.62 Q131.617 1162.77 131.617 1166.5 Q131.617 1170.25 133.445 1172.4 Q135.297 1174.55 138.445 1174.55 Z" fill="#000000" fill-rule="nonzero" fill-opacity="1" /><path clip-path="url(#clip180)" d="M63.4226 955.718 Q59.8115 955.718 57.9828 959.282 Q56.1773 962.824 56.1773 969.954 Q56.1773 977.06 57.9828 980.625 Q59.8115 984.167 63.4226 984.167 Q67.0569 984.167 68.8624 980.625 Q70.6911 977.06 70.6911 969.954 Q70.6911 962.824 68.8624 959.282 Q67.0569 955.718 63.4226 955.718 M63.4226 952.014 Q69.2328 952.014 72.2883 956.62 Q75.367 961.204 75.367 969.954 Q75.367 978.68 72.2883 983.287 Q69.2328 987.87 63.4226 987.87 Q57.6125 987.87 54.5338 983.287 Q51.4782 978.68 51.4782 969.954 Q51.4782 961.204 54.5338 956.62 Q57.6125 952.014 63.4226 952.014 Z" fill="#000000" fill-rule="nonzero" fill-opacity="1" /><path clip-path="url(#clip180)" d="M83.5845 981.319 L88.4688 981.319 L88.4688 987.199 L83.5845 987.199 L83.5845 981.319 Z" fill="#000000" fill-rule="nonzero" fill-opacity="1" /><path clip-path="url(#clip180)" d="M102.682 983.264 L119.001 983.264 L119.001 987.199 L97.0567 987.199 L97.0567 983.264 Q99.7187 980.509 104.302 975.88 Q108.908 971.227 110.089 969.884 Q112.334 967.361 113.214 965.625 Q114.117 963.866 114.117 962.176 Q114.117 959.421 112.172 957.685 Q110.251 955.949 107.149 955.949 Q104.95 955.949 102.496 956.713 Q100.066 957.477 97.2882 959.028 L97.2882 954.306 Q100.112 953.171 102.566 952.593 Q105.02 952.014 107.057 952.014 Q112.427 952.014 115.621 954.699 Q118.816 957.384 118.816 961.875 Q118.816 964.005 118.006 965.926 Q117.219 967.824 115.112 970.417 Q114.533 971.088 111.432 974.306 Q108.33 977.5 102.682 983.264 Z" fill="#000000" fill-rule="nonzero" fill-opacity="1" /><path clip-path="url(#clip180)" d="M138.816 955.718 Q135.205 955.718 133.376 959.282 Q131.57 962.824 131.57 969.954 Q131.57 977.06 133.376 980.625 Q135.205 984.167 138.816 984.167 Q142.45 984.167 144.256 980.625 Q146.084 977.06 146.084 969.954 Q146.084 962.824 144.256 959.282 Q142.45 955.718 138.816 955.718 M138.816 952.014 Q144.626 952.014 147.681 956.62 Q150.76 961.204 150.76 969.954 Q150.76 978.68 147.681 983.287 Q144.626 987.87 138.816 987.87 Q133.006 987.87 129.927 983.287 Q126.871 978.68 126.871 969.954 Q126.871 961.204 129.927 956.62 Q133.006 952.014 138.816 952.014 Z" fill="#000000" fill-rule="nonzero" fill-opacity="1" /><path clip-path="url(#clip180)" d="M64.6495 752.993 Q61.0384 752.993 59.2097 756.558 Q57.4041 760.1 57.4041 767.229 Q57.4041 774.336 59.2097 777.9 Q61.0384 781.442 64.6495 781.442 Q68.2837 781.442 70.0892 777.9 Q71.9179 774.336 71.9179 767.229 Q71.9179 760.1 70.0892 756.558 Q68.2837 752.993 64.6495 752.993 M64.6495 749.289 Q70.4596 749.289 73.5152 753.896 Q76.5938 758.479 76.5938 767.229 Q76.5938 775.956 73.5152 780.562 Q70.4596 785.146 64.6495 785.146 Q58.8393 785.146 55.7606 780.562 Q52.7051 775.956 52.7051 767.229 Q52.7051 758.479 55.7606 753.896 Q58.8393 749.289 64.6495 749.289 Z" fill="#000000" fill-rule="nonzero" fill-opacity="1" /><path clip-path="url(#clip180)" d="M84.8114 778.595 L89.6956 778.595 L89.6956 784.474 L84.8114 784.474 L84.8114 778.595 Z" fill="#000000" fill-rule="nonzero" fill-opacity="1" /><path clip-path="url(#clip180)" d="M103.909 780.539 L120.228 780.539 L120.228 784.474 L98.2835 784.474 L98.2835 780.539 Q100.946 777.785 105.529 773.155 Q110.135 768.502 111.316 767.16 Q113.561 764.637 114.441 762.9 Q115.344 761.141 115.344 759.451 Q115.344 756.697 113.399 754.961 Q111.478 753.225 108.376 753.225 Q106.177 753.225 103.723 753.989 Q101.293 754.752 98.515 756.303 L98.515 751.581 Q101.339 750.447 103.793 749.868 Q106.246 749.289 108.283 749.289 Q113.654 749.289 116.848 751.975 Q120.043 754.66 120.043 759.151 Q120.043 761.28 119.233 763.201 Q118.445 765.1 116.339 767.692 Q115.76 768.363 112.658 771.581 Q109.557 774.775 103.909 780.539 Z" fill="#000000" fill-rule="nonzero" fill-opacity="1" /><path clip-path="url(#clip180)" d="M130.853 780.539 L138.492 780.539 L138.492 754.174 L130.182 755.84 L130.182 751.581 L138.445 749.914 L143.121 749.914 L143.121 780.539 L150.76 780.539 L150.76 784.474 L130.853 784.474 L130.853 780.539 Z" fill="#000000" fill-rule="nonzero" fill-opacity="1" /><path clip-path="url(#clip180)" d="M65.0198 550.269 Q61.4087 550.269 59.58 553.833 Q57.7745 557.375 57.7745 564.505 Q57.7745 571.611 59.58 575.176 Q61.4087 578.718 65.0198 578.718 Q68.6541 578.718 70.4596 575.176 Q72.2883 571.611 72.2883 564.505 Q72.2883 557.375 70.4596 553.833 Q68.6541 550.269 65.0198 550.269 M65.0198 546.565 Q70.83 546.565 73.8855 551.171 Q76.9642 555.755 76.9642 564.505 Q76.9642 573.231 73.8855 577.838 Q70.83 582.421 65.0198 582.421 Q59.2097 582.421 56.131 577.838 Q53.0754 573.231 53.0754 564.505 Q53.0754 555.755 56.131 551.171 Q59.2097 546.565 65.0198 546.565 Z" fill="#000000" fill-rule="nonzero" fill-opacity="1" /><path clip-path="url(#clip180)" d="M85.1818 575.87 L90.066 575.87 L90.066 581.75 L85.1818 581.75 L85.1818 575.87 Z" fill="#000000" fill-rule="nonzero" fill-opacity="1" /><path clip-path="url(#clip180)" d="M104.279 577.815 L120.598 577.815 L120.598 581.75 L98.6539 581.75 L98.6539 577.815 Q101.316 575.06 105.899 570.431 Q110.506 565.778 111.686 564.435 Q113.932 561.912 114.811 560.176 Q115.714 558.417 115.714 556.727 Q115.714 553.972 113.77 552.236 Q111.848 550.5 108.746 550.5 Q106.547 550.5 104.094 551.264 Q101.663 552.028 98.8854 553.579 L98.8854 548.857 Q101.709 547.722 104.163 547.144 Q106.617 546.565 108.654 546.565 Q114.024 546.565 117.219 549.25 Q120.413 551.935 120.413 556.426 Q120.413 558.556 119.603 560.477 Q118.816 562.375 116.709 564.968 Q116.131 565.639 113.029 568.857 Q109.927 572.051 104.279 577.815 Z" fill="#000000" fill-rule="nonzero" fill-opacity="1" /><path clip-path="url(#clip180)" d="M134.441 577.815 L150.76 577.815 L150.76 581.75 L128.816 581.75 L128.816 577.815 Q131.478 575.06 136.061 570.431 Q140.668 565.778 141.848 564.435 Q144.093 561.912 144.973 560.176 Q145.876 558.417 145.876 556.727 Q145.876 553.972 143.931 552.236 Q142.01 550.5 138.908 550.5 Q136.709 550.5 134.256 551.264 Q131.825 552.028 129.047 553.579 L129.047 548.857 Q131.871 547.722 134.325 547.144 Q136.779 546.565 138.816 546.565 Q144.186 546.565 147.38 549.25 Q150.575 551.935 150.575 556.426 Q150.575 558.556 149.765 560.477 Q148.978 562.375 146.871 564.968 Q146.293 565.639 143.191 568.857 Q140.089 572.051 134.441 577.815 Z" fill="#000000" fill-rule="nonzero" fill-opacity="1" /><path clip-path="url(#clip180)" d="M64.0708 347.544 Q60.4597 347.544 58.631 351.109 Q56.8254 354.651 56.8254 361.78 Q56.8254 368.887 58.631 372.451 Q60.4597 375.993 64.0708 375.993 Q67.705 375.993 69.5105 372.451 Q71.3392 368.887 71.3392 361.78 Q71.3392 354.651 69.5105 351.109 Q67.705 347.544 64.0708 347.544 M64.0708 343.84 Q69.8809 343.84 72.9365 348.447 Q76.0151 353.03 76.0151 361.78 Q76.0151 370.507 72.9365 375.113 Q69.8809 379.697 64.0708 379.697 Q58.2606 379.697 55.1819 375.113 Q52.1264 370.507 52.1264 361.78 Q52.1264 353.03 55.1819 348.447 Q58.2606 343.84 64.0708 343.84 Z" fill="#000000" fill-rule="nonzero" fill-opacity="1" /><path clip-path="url(#clip180)" d="M84.2327 373.146 L89.1169 373.146 L89.1169 379.025 L84.2327 379.025 L84.2327 373.146 Z" fill="#000000" fill-rule="nonzero" fill-opacity="1" /><path clip-path="url(#clip180)" d="M103.33 375.09 L119.649 375.09 L119.649 379.025 L97.7048 379.025 L97.7048 375.09 Q100.367 372.336 104.95 367.706 Q109.557 363.053 110.737 361.711 Q112.983 359.188 113.862 357.452 Q114.765 355.692 114.765 354.002 Q114.765 351.248 112.82 349.512 Q110.899 347.776 107.797 347.776 Q105.598 347.776 103.145 348.54 Q100.714 349.303 97.9363 350.854 L97.9363 346.132 Q100.76 344.998 103.214 344.419 Q105.668 343.84 107.705 343.84 Q113.075 343.84 116.27 346.526 Q119.464 349.211 119.464 353.702 Q119.464 355.831 118.654 357.752 Q117.867 359.651 115.76 362.243 Q115.182 362.914 112.08 366.132 Q108.978 369.326 103.33 375.09 Z" fill="#000000" fill-rule="nonzero" fill-opacity="1" /><path clip-path="url(#clip180)" d="M143.631 360.391 Q146.987 361.109 148.862 363.377 Q150.76 365.646 150.76 368.979 Q150.76 374.095 147.242 376.896 Q143.723 379.697 137.242 379.697 Q135.066 379.697 132.751 379.257 Q130.459 378.84 128.006 377.984 L128.006 373.47 Q129.95 374.604 132.265 375.183 Q134.58 375.762 137.103 375.762 Q141.501 375.762 143.793 374.025 Q146.107 372.289 146.107 368.979 Q146.107 365.924 143.955 364.211 Q141.825 362.475 138.006 362.475 L133.978 362.475 L133.978 358.632 L138.191 358.632 Q141.64 358.632 143.468 357.266 Q145.297 355.877 145.297 353.285 Q145.297 350.623 143.399 349.211 Q141.524 347.776 138.006 347.776 Q136.084 347.776 133.885 348.192 Q131.686 348.609 129.047 349.489 L129.047 345.322 Q131.709 344.581 134.024 344.211 Q136.362 343.84 138.422 343.84 Q143.746 343.84 146.848 346.271 Q149.95 348.678 149.95 352.799 Q149.95 355.669 148.306 357.66 Q146.663 359.627 143.631 360.391 Z" fill="#000000" fill-rule="nonzero" fill-opacity="1" /><path clip-path="url(#clip180)" d="M62.9365 144.82 Q59.3254 144.82 57.4967 148.384 Q55.6912 151.926 55.6912 159.056 Q55.6912 166.162 57.4967 169.727 Q59.3254 173.269 62.9365 173.269 Q66.5707 173.269 68.3763 169.727 Q70.205 166.162 70.205 159.056 Q70.205 151.926 68.3763 148.384 Q66.5707 144.82 62.9365 144.82 M62.9365 141.116 Q68.7467 141.116 71.8022 145.722 Q74.8809 150.306 74.8809 159.056 Q74.8809 167.782 71.8022 172.389 Q68.7467 176.972 62.9365 176.972 Q57.1264 176.972 54.0477 172.389 Q50.9921 167.782 50.9921 159.056 Q50.9921 150.306 54.0477 145.722 Q57.1264 141.116 62.9365 141.116 Z" fill="#000000" fill-rule="nonzero" fill-opacity="1" /><path clip-path="url(#clip180)" d="M83.0984 170.421 L87.9827 170.421 L87.9827 176.301 L83.0984 176.301 L83.0984 170.421 Z" fill="#000000" fill-rule="nonzero" fill-opacity="1" /><path clip-path="url(#clip180)" d="M102.196 172.366 L118.515 172.366 L118.515 176.301 L96.5706 176.301 L96.5706 172.366 Q99.2326 169.611 103.816 164.982 Q108.422 160.329 109.603 158.986 Q111.848 156.463 112.728 154.727 Q113.631 152.968 113.631 151.278 Q113.631 148.523 111.686 146.787 Q109.765 145.051 106.663 145.051 Q104.464 145.051 102.01 145.815 Q99.5798 146.579 96.8021 148.13 L96.8021 143.408 Q99.6261 142.273 102.08 141.695 Q104.534 141.116 106.571 141.116 Q111.941 141.116 115.135 143.801 Q118.33 146.486 118.33 150.977 Q118.33 153.107 117.52 155.028 Q116.733 156.926 114.626 159.519 Q114.047 160.19 110.946 163.408 Q107.844 166.602 102.196 172.366 Z" fill="#000000" fill-rule="nonzero" fill-opacity="1" /><path clip-path="url(#clip180)" d="M141.177 145.815 L129.371 164.264 L141.177 164.264 L141.177 145.815 M139.95 141.741 L145.83 141.741 L145.83 164.264 L150.76 164.264 L150.76 168.153 L145.83 168.153 L145.83 176.301 L141.177 176.301 L141.177 168.153 L125.575 168.153 L125.575 163.639 L139.95 141.741 Z" fill="#000000" fill-rule="nonzero" fill-opacity="1" /><polyline clip-path="url(#clip182)" style="stroke:#009af9; stroke-linecap:round; stroke-linejoin:round; stroke-width:4; stroke-opacity:1; fill:none" points="248.062,1087.9 249.339,1214.35 250.616,1316.94 251.893,1384.24 253.17,1419.79 254.447,1415.28 255.725,1391.03 257.002,1368.96 258.279,1377 259.556,1393.24 260.833,1418.67 262.11,1436.99 263.387,1432.96 264.664,1417.73 265.942,1405.28 267.219,1392.88 268.496,1402.75 269.773,1419.9 271.05,1430.34 272.327,1436.67 273.604,1432.63 274.881,1409.69 276.159,1391.77 277.436,1373.15 278.713,1383.9 279.99,1402.57 281.267,1428.23 282.544,1421.5 283.821,1400.57 285.098,1352.47 286.375,1311.07 287.653,1295.38 288.93,1308.06 290.207,1360.89 291.484,1399.18 292.761,1415.67 294.038,1398.91 295.315,1375.4 296.592,1361.09 297.87,1381.76 299.147,1400.57 300.424,1420.78 301.701,1422.91 302.978,1414.6 304.255,1402.44 305.532,1398.21 306.809,1401.95 308.087,1419.16 309.364,1431.56 310.641,1438.04 311.918,1432.96 313.195,1417.39 314.472,1398.77 315.749,1387.72 317.026,1385.68 318.303,1389.32 319.581,1402.51 320.858,1407.43 322.135,1405.36 323.412,1392.99 324.689,1378.9 325.966,1345.25 327.243,1346.26 328.52,1346.95 329.798,1358.22 331.075,1370.96 332.352,1372.54 333.629,1371.51 334.906,1369.7 336.183,1372.57 337.46,1389.31 338.737,1404.56 340.015,1416.33 341.292,1412.97 342.569,1407.43 343.846,1404.63 345.123,1406.61 346.4,1422 347.677,1434.12 348.954,1444.77 350.231,1445.72 351.509,1439.34 352.786,1426.34 354.063,1417.21 355.34,1410.78 356.617,1411.33 357.894,1410.9 359.171,1413.78 360.448,1415.82 361.726,1408.11 363.003,1398.73 364.28,1391.94 365.557,1391.88 366.834,1375.66 368.111,1360.2 369.388,1329.37 370.665,1307.03 371.943,1322.22 373.22,1331.53 374.497,1347.35 375.774,1378.34 377.051,1390.58 378.328,1408.02 379.605,1411.83 380.882,1409.32 382.159,1407.54 383.437,1410.51 384.714,1410.81 385.991,1420.04 387.268,1427.32 388.545,1428.33 389.822,1432.58 391.099,1430.84 392.376,1422.39 393.654,1419.72 394.931,1417.3 396.208,1410.35 397.485,1411.29 398.762,1409.53 400.039,1401.81 401.316,1407.77 402.593,1410.04 403.871,1403.24 405.148,1399.08 406.425,1388.9 407.702,1350.42 408.979,1317.72 410.256,1282.2 411.533,1250.07 412.81,1287.48 414.087,1322.24 415.365,1352.24 416.642,1381.07 417.919,1396.34 419.196,1405.26 420.473,1407.1 421.75,1407.9 423.027,1402.8 424.304,1404.63 425.582,1409.53 426.859,1405.64 428.136,1406.06 429.413,1413.7 430.69,1416.71 431.967,1416.81 433.244,1419.28 434.521,1417 435.799,1411.57 437.076,1410.48 438.353,1408.59 439.63,1404.89 440.907,1403.27 442.184,1401.66 443.461,1400.15 444.738,1399.82 446.016,1382.12 447.293,1370.4 448.57,1341.8 449.847,1297.19 451.124,1268.48 452.401,1248.72 453.678,1279.98 454.955,1320.48 456.232,1360.16 457.51,1382.44 458.787,1388.49 460.064,1392.8 461.341,1385.43 462.618,1385.36 463.895,1385.84 465.172,1391.32 466.449,1400.19 467.727,1402.49 469.004,1401.08 470.281,1403.15 471.558,1404.66 472.835,1405.52 474.112,1405.44 475.389,1406.68 476.666,1408.74 477.944,1406.4 479.221,1396.51 480.498,1382.6 481.775,1370.92 483.052,1378.6 484.329,1380.71 485.606,1389.32 486.883,1387.36 488.16,1372.13 489.438,1334.52 490.715,1300.54 491.992,1280.9 493.269,1281.21 494.546,1326.86 495.823,1356.94 497.1,1378.28 498.377,1376.97 499.655,1357.36 500.932,1344.05 502.209,1355.85 503.486,1364.66 504.763,1372.15 506.04,1376.63 507.317,1376.12 508.594,1365.94 509.872,1361.41 511.149,1361.29 512.426,1373.35 513.703,1387.08 514.98,1397.36 516.257,1391.93 517.534,1381.16 518.811,1364.72 520.088,1347 521.366,1338.54 522.643,1344.4 523.92,1362.49 525.197,1368.3 526.474,1367.4 527.751,1345.31 529.028,1324.02 530.305,1284.63 531.583,1289.7 532.86,1294.46 534.137,1307.79 535.414,1330.71 536.691,1329.84 537.968,1320.22 539.245,1313.67 540.522,1311.1 541.8,1330.45 543.077,1353.3 544.354,1367.21 545.631,1367.25 546.908,1351.5 548.185,1339.77 549.462,1330.56 550.739,1346.13 552.016,1363.11 553.294,1387.23 554.571,1392.21 555.848,1383.99 557.125,1365.06 558.402,1343.86 559.679,1320.78 560.956,1337.45 562.233,1352.29 563.511,1372.85 564.788,1381.82 566.065,1367.43 567.342,1338.33 568.619,1310.12 569.896,1298.71 571.173,1305.06 572.45,1313.05 573.728,1311.69 575.005,1280.21 576.282,1255.35 577.559,1246.49 578.836,1233.96 580.113,1281.96 581.39,1330.99 582.667,1363.21 583.944,1367.88 585.222,1354.85 586.499,1320.28 587.776,1312.39 589.053,1312.72 590.33,1322.55 591.607,1350.86 592.884,1369.02 594.161,1363.88 595.439,1352.38 596.716,1331.58 597.993,1311.07 599.27,1313.97 600.547,1327 601.824,1344.37 603.101,1361.97 604.378,1363.2 605.656,1344.71 606.933,1328.49 608.21,1306.83 609.487,1307.75 610.764,1316.22 612.041,1315.69 613.318,1277.58 614.595,1228.84 615.872,1167.83 617.15,1166.73 618.427,1213.22 619.704,1277.59 620.981,1331.32 622.258,1366.42 623.535,1382.13 624.812,1356.87 626.089,1331.86 627.367,1314.38 628.644,1335.88 629.921,1352.46 631.198,1371.99 632.475,1374.7 633.752,1364.88 635.029,1357.74 636.306,1343.39 637.584,1332.09 638.861,1350.19 640.138,1360.73 641.415,1372.95 642.692,1375.11 643.969,1361.6 645.246,1349.65 646.523,1339.96 647.8,1333.93 649.078,1348.11 650.355,1354.02 651.632,1346.14 652.909,1303.36 654.186,1246.44 655.463,1192.41 656.74,1150.14 658.017,1209.59 659.295,1266.63 660.572,1328.31 661.849,1362.81 663.126,1349.74 664.403,1342.12 665.68,1338.63 666.957,1337.41 668.234,1343.92 669.512,1361.2 670.789,1366.37 672.066,1362.72 673.343,1352.34 674.62,1342.64 675.897,1342.17 677.174,1356.68 678.451,1361.88 679.728,1365.42 681.006,1366.82 682.283,1358.08 683.56,1343.08 684.837,1332.35 686.114,1322.75 687.391,1330.59 688.668,1338.77 689.945,1343.9 691.223,1334.07 692.5,1322.71 693.777,1283.89 695.054,1250.25 696.331,1239.46 697.608,1231.49 698.885,1270.92 700.162,1307.69 701.44,1330.28 702.717,1338.99 703.994,1328.72 705.271,1317.57 706.548,1327.82 707.825,1338.5 709.102,1343.67 710.379,1349.04 711.656,1351.87 712.934,1350.78 714.211,1356.86 715.488,1362.8 716.765,1370.86 718.042,1375.21 719.319,1378.11 720.596,1372.93 721.873,1362.48 723.151,1355.52 724.428,1347.05 725.705,1337.81 726.982,1336 728.259,1337.75 729.536,1332.48 730.813,1332.28 732.09,1330.44 733.368,1330.71 734.645,1316.87 735.922,1303.85 737.199,1292.81 738.476,1280.47 739.753,1295.19 741.03,1309.2 742.307,1322.05 743.585,1331.28 744.862,1326.77 746.139,1323.74 747.416,1323.85 748.693,1325.69 749.97,1327.42 751.247,1336.18 752.524,1342.25 753.801,1349.2 755.079,1357.01 756.356,1358.44 757.633,1360.5 758.91,1359.67 760.187,1358.67 761.464,1355.84 762.741,1353.21 764.018,1346.08 765.296,1338.1 766.573,1332.24 767.85,1326.9 769.127,1326.33 770.404,1324.35 771.681,1327.15 772.958,1328.69 774.235,1328.56 775.513,1314.97 776.79,1292.36 778.067,1266.26 779.344,1252.73 780.621,1263.72 781.898,1277.55 783.175,1300.61 784.452,1312.7 785.729,1317.13 787.007,1328.34 788.284,1328.5 789.561,1330.78 790.838,1330.04 792.115,1331.2 793.392,1335.99 794.669,1344.84 795.946,1347.53 797.224,1354.45 798.501,1360.93 799.778,1354.6 801.055,1348.13 802.332,1342.08 803.609,1336.02 804.886,1331.68 806.163,1333.91 807.441,1332.97 808.718,1330.82 809.995,1326.5 811.272,1317.03 812.549,1306.98 813.826,1309.29 815.103,1305.81 816.38,1283.77 817.657,1250.36 818.935,1202.09 820.212,1159.69 821.489,1184.3 822.766,1208.78 824.043,1256.85 825.32,1298.42 826.597,1315.36 827.874,1327.73 829.152,1321.82 830.429,1312.41 831.706,1302.62 832.983,1312.99 834.26,1321.82 835.537,1328.85 836.814,1335.28 838.091,1330.35 839.369,1328.53 840.646,1325.25 841.923,1310.01 843.2,1312.55 844.477,1322.74 845.754,1329.15 847.031,1330.85 848.308,1322.61 849.585,1311.12 850.863,1303.53 852.14,1302.64 853.417,1304.02 854.694,1304.55 855.971,1306.24 857.248,1267.49 858.525,1199.33 859.802,1152.65 861.08,1099.83 862.357,1152.98 863.634,1214.7 864.911,1273.55 866.188,1310.89 867.465,1315.16 868.742,1300.82 870.019,1287.41 871.297,1292.54 872.574,1297.22 873.851,1310.66 875.128,1325.34 876.405,1323.35 877.682,1308.66 878.959,1293.79 880.236,1280.95 881.513,1292.43 882.791,1306.08 884.068,1316.83 885.345,1323.34 886.622,1320.78 887.899,1298.69 889.176,1270.87 890.453,1250.21 891.73,1271.13 893.008,1291.82 894.285,1315.34 895.562,1306.8 896.839,1276.01 898.116,1219.86 899.393,1156.85 900.67,1126.29 901.947,1142.49 903.225,1214.08 904.502,1261.15 905.779,1288.35 907.056,1280.61 908.333,1252.62 909.61,1233.02 910.887,1258.57 912.164,1281.62 913.441,1304.74 914.719,1309.02 915.996,1297.21 917.273,1275.09 918.55,1266.07 919.827,1262.28 921.104,1279.3 922.381,1307.1 923.658,1325.69 924.936,1323.15 926.213,1309.68 927.49,1277.75 928.767,1259.38 930.044,1257.71 931.321,1262.45 932.598,1294.38 933.875,1308.44 935.153,1304.1 936.43,1275.28 937.707,1239.04 938.984,1186.52 940.261,1205.25 941.538,1219.7 942.815,1249.65 944.092,1273.9 945.369,1267.1 946.647,1247.55 947.924,1233.83 949.201,1233.88 950.478,1257.06 951.755,1284.43 953.032,1302.37 954.309,1297.05 955.586,1275.42 956.864,1265.12 958.141,1250.68 959.418,1267.19 960.695,1286.85 961.972,1309.75 963.249,1311.74 964.526,1307.64 965.803,1285.28 967.081,1270.83 968.358,1252.64 969.635,1258.37 970.912,1267.62 972.189,1287.22 973.466,1291.95 974.743,1277.76 976.02,1256.54 977.297,1242.25 978.575,1240.55 979.852,1239.23 981.129,1241.09 982.406,1232.37 983.683,1207.54 984.96,1198.79 986.237,1192.86 987.514,1197.79 988.792,1239.36 990.069,1260.46 991.346,1289.26 992.623,1293.14 993.9,1284.05 995.177,1269.6 996.454,1265.65 997.731,1270.58 999.009,1285.42 1000.29,1301.46 1001.56,1306.34 1002.84,1310.19 1004.12,1299.92 1005.39,1287.13 1006.67,1271.73 1007.95,1276.38 1009.23,1282.73 1010.5,1290.04 1011.78,1295.38 1013.06,1294.57 1014.33,1283.97 1015.61,1282.11 1016.89,1265.13 1018.17,1270.1 1019.44,1281.4 1020.72,1266.74 1022,1231.63 1023.27,1189.29 1024.55,1137.47 1025.83,1150.45 1027.11,1179.38 1028.38,1228.7 1029.66,1274.76 1030.94,1297.23 1032.21,1304.92 1033.49,1289.77 1034.77,1283.95 1036.05,1273.18 1037.32,1285.57 1038.6,1298.89 1039.88,1305.59 1041.15,1306.92 1042.43,1302.51 1043.71,1297.14 1044.98,1294.63 1046.26,1296.77 1047.54,1297.48 1048.82,1297.4 1050.09,1298.08 1051.37,1296.35 1052.65,1284.96 1053.92,1278.64 1055.2,1281.89 1056.48,1282.69 1057.76,1285.36 1059.03,1281.85 1060.31,1265.25 1061.59,1229.94 1062.86,1186.57 1064.14,1141.5 1065.42,1111.09 1066.7,1156.61 1067.97,1191.96 1069.25,1240.14 1070.53,1271.26 1071.8,1277.32 1073.08,1290 1074.36,1287.87 1075.64,1287.28 1076.91,1288.51 1078.19,1288.26 1079.47,1291.85 1080.74,1294.76 1082.02,1295.28 1083.3,1298.99 1084.58,1304.13 1085.85,1302.99 1087.13,1299.55 1088.41,1297.19 1089.68,1289.38 1090.96,1282.74 1092.24,1284.73 1093.52,1283.01 1094.79,1276.44 1096.07,1279.84 1097.35,1276.05 1098.62,1268.73 1099.9,1262.5 1101.18,1251.24 1102.46,1224.96 1103.73,1199.03 1105.01,1176.09 1106.29,1148.33 1107.56,1185.1 1108.84,1214.83 1110.12,1242.8 1111.4,1269.4 1112.67,1268.57 1113.95,1266.66 1115.23,1267.08 1116.5,1261.86 1117.78,1262.38 1119.06,1270.05 1120.33,1275.26 1121.61,1277.13 1122.89,1283.45 1124.17,1287.1 1125.44,1290.64 1126.72,1296.59 1128,1301.28 1129.27,1294.14 1130.55,1291.48 1131.83,1282.33 1133.11,1268.77 1134.38,1263.06 1135.66,1258.86 1136.94,1259.02 1138.21,1259.78 1139.49,1258.99 1140.77,1248.17 1142.05,1239.34 1143.32,1217.91 1144.6,1210.77 1145.88,1203.99 1147.15,1194.47 1148.43,1214.98 1149.71,1231.69 1150.99,1239.75 1152.26,1247.04 1153.54,1238.65 1154.82,1237.67 1156.09,1249.16 1157.37,1255.49 1158.65,1256.69 1159.93,1257.57 1161.2,1256.29 1162.48,1256.47 1163.76,1265.36 1165.03,1273.78 1166.31,1285.68 1167.59,1285 1168.87,1286.47 1170.14,1273.17 1171.42,1263.2 1172.7,1245.85 1173.97,1241.98 1175.25,1246.59 1176.53,1252.92 1177.81,1254.88 1179.08,1243.69 1180.36,1224.77 1181.64,1216.42 1182.91,1217.42 1184.19,1212.7 1185.47,1209.46 1186.75,1203.15 1188.02,1183.19 1189.3,1170.7 1190.58,1172.3 1191.85,1179.96 1193.13,1206.97 1194.41,1227.85 1195.69,1243.8 1196.96,1247.43 1198.24,1241.65 1199.52,1226.57 1200.79,1225.88 1202.07,1233.66 1203.35,1245.59 1204.62,1256.67 1205.9,1265.29 1207.18,1274.61 1208.46,1262.2 1209.73,1250.62 1211.01,1232.69 1212.29,1228.41 1213.56,1242.12 1214.84,1250.73 1216.12,1254.32 1217.4,1258.45 1218.67,1231.11 1219.95,1222.59 1221.23,1201.59 1222.5,1212.1 1223.78,1228.13 1225.06,1228.33 1226.34,1197.6 1227.61,1137.79 1228.89,1069.99 1230.17,1083.72 1231.44,1100.94 1232.72,1162.86 1234,1223.22 1235.28,1250.54 1236.55,1262 1237.83,1228.77 1239.11,1207.56 1240.38,1197.83 1241.66,1219.01 1242.94,1227.41 1244.22,1245.3 1245.49,1260.46 1246.77,1248.69 1248.05,1226.36 1249.32,1207.71 1250.6,1199.59 1251.88,1217.77 1253.16,1226.46 1254.43,1241.97 1255.71,1252.97 1256.99,1230.59 1258.26,1204.45 1259.54,1169.68 1260.82,1178.49 1262.1,1191.14 1263.37,1215.17 1264.65,1201.75 1265.93,1150.18 1267.2,1085.64 1268.48,978.217 1269.76,87.9763 1271.04,978.217 1272.31,1085.64 1273.59,1150.18 1274.87,1201.75 1276.14,1215.17 1277.42,1191.13 1278.7,1178.49 1279.97,1169.68 1281.25,1204.45 1282.53,1230.59 1283.81,1252.97 1285.08,1241.97 1286.36,1226.46 1287.64,1217.77 1288.91,1199.59 1290.19,1207.71 1291.47,1226.36 1292.75,1248.69 1294.02,1260.46 1295.3,1245.3 1296.58,1227.41 1297.85,1219.01 1299.13,1197.83 1300.41,1207.56 1301.69,1228.77 1302.96,1262 1304.24,1250.54 1305.52,1223.23 1306.79,1162.86 1308.07,1100.94 1309.35,1083.72 1310.63,1069.99 1311.9,1137.79 1313.18,1197.6 1314.46,1228.33 1315.73,1228.13 1317.01,1212.1 1318.29,1201.59 1319.57,1222.59 1320.84,1231.11 1322.12,1258.45 1323.4,1254.32 1324.67,1250.73 1325.95,1242.13 1327.23,1228.41 1328.51,1232.69 1329.78,1250.62 1331.06,1262.2 1332.34,1274.62 1333.61,1265.29 1334.89,1256.67 1336.17,1245.59 1337.45,1233.66 1338.72,1225.88 1340,1226.57 1341.28,1241.65 1342.55,1247.43 1343.83,1243.8 1345.11,1227.85 1346.39,1206.97 1347.66,1179.96 1348.94,1172.3 1350.22,1170.7 1351.49,1183.19 1352.77,1203.15 1354.05,1209.46 1355.33,1212.7 1356.6,1217.42 1357.88,1216.42 1359.16,1224.77 1360.43,1243.69 1361.71,1254.88 1362.99,1252.92 1364.26,1246.59 1365.54,1241.98 1366.82,1245.85 1368.1,1263.2 1369.37,1273.17 1370.65,1286.47 1371.93,1285 1373.2,1285.68 1374.48,1273.78 1375.76,1265.36 1377.04,1256.47 1378.31,1256.29 1379.59,1257.57 1380.87,1256.68 1382.14,1255.49 1383.42,1249.16 1384.7,1237.67 1385.98,1238.65 1387.25,1247.04 1388.53,1239.75 1389.81,1231.69 1391.08,1214.98 1392.36,1194.47 1393.64,1203.99 1394.92,1210.77 1396.19,1217.91 1397.47,1239.35 1398.75,1248.17 1400.02,1258.99 1401.3,1259.78 1402.58,1259.02 1403.86,1258.86 1405.13,1263.06 1406.41,1268.77 1407.69,1282.33 1408.96,1291.48 1410.24,1294.14 1411.52,1301.28 1412.8,1296.59 1414.07,1290.64 1415.35,1287.1 1416.63,1283.45 1417.9,1277.12 1419.18,1275.26 1420.46,1270.05 1421.74,1262.38 1423.01,1261.86 1424.29,1267.08 1425.57,1266.66 1426.84,1268.57 1428.12,1269.4 1429.4,1242.8 1430.68,1214.83 1431.95,1185.1 1433.23,1148.33 1434.51,1176.09 1435.78,1199.03 1437.06,1224.96 1438.34,1251.24 1439.61,1262.5 1440.89,1268.73 1442.17,1276.05 1443.45,1279.84 1444.72,1276.44 1446,1283.01 1447.28,1284.73 1448.55,1282.74 1449.83,1289.38 1451.11,1297.2 1452.39,1299.55 1453.66,1302.99 1454.94,1304.13 1456.22,1298.99 1457.49,1295.28 1458.77,1294.75 1460.05,1291.85 1461.33,1288.26 1462.6,1288.51 1463.88,1287.28 1465.16,1287.87 1466.43,1290 1467.71,1277.32 1468.99,1271.26 1470.27,1240.14 1471.54,1191.96 1472.82,1156.61 1474.1,1111.09 1475.37,1141.5 1476.65,1186.57 1477.93,1229.94 1479.21,1265.25 1480.48,1281.85 1481.76,1285.36 1483.04,1282.69 1484.31,1281.89 1485.59,1278.64 1486.87,1284.96 1488.15,1296.36 1489.42,1298.08 1490.7,1297.4 1491.98,1297.48 1493.25,1296.77 1494.53,1294.63 1495.81,1297.14 1497.09,1302.51 1498.36,1306.92 1499.64,1305.59 1500.92,1298.89 1502.19,1285.57 1503.47,1273.18 1504.75,1283.95 1506.03,1289.77 1507.3,1304.92 1508.58,1297.23 1509.86,1274.76 1511.13,1228.7 1512.41,1179.38 1513.69,1150.45 1514.97,1137.47 1516.24,1189.29 1517.52,1231.63 1518.8,1266.74 1520.07,1281.4 1521.35,1270.1 1522.63,1265.13 1523.9,1282.12 1525.18,1283.97 1526.46,1294.57 1527.74,1295.38 1529.01,1290.04 1530.29,1282.72 1531.57,1276.38 1532.84,1271.73 1534.12,1287.13 1535.4,1299.92 1536.68,1310.19 1537.95,1306.34 1539.23,1301.46 1540.51,1285.42 1541.78,1270.58 1543.06,1265.65 1544.34,1269.6 1545.62,1284.05 1546.89,1293.14 1548.17,1289.26 1549.45,1260.46 1550.72,1239.36 1552,1197.79 1553.28,1192.85 1554.56,1198.79 1555.83,1207.54 1557.11,1232.37 1558.39,1241.09 1559.66,1239.23 1560.94,1240.55 1562.22,1242.25 1563.5,1256.54 1564.77,1277.76 1566.05,1291.95 1567.33,1287.22 1568.6,1267.62 1569.88,1258.37 1571.16,1252.64 1572.44,1270.83 1573.71,1285.28 1574.99,1307.64 1576.27,1311.74 1577.54,1309.75 1578.82,1286.85 1580.1,1267.19 1581.38,1250.68 1582.65,1265.12 1583.93,1275.42 1585.21,1297.05 1586.48,1302.37 1587.76,1284.43 1589.04,1257.06 1590.32,1233.88 1591.59,1233.83 1592.87,1247.55 1594.15,1267.1 1595.42,1273.9 1596.7,1249.65 1597.98,1219.71 1599.26,1205.25 1600.53,1186.52 1601.81,1239.04 1603.09,1275.28 1604.36,1304.1 1605.64,1308.44 1606.92,1294.38 1608.19,1262.45 1609.47,1257.71 1610.75,1259.38 1612.03,1277.75 1613.3,1309.68 1614.58,1323.15 1615.86,1325.69 1617.13,1307.1 1618.41,1279.3 1619.69,1262.28 1620.97,1266.07 1622.24,1275.09 1623.52,1297.21 1624.8,1309.02 1626.07,1304.74 1627.35,1281.62 1628.63,1258.57 1629.91,1233.02 1631.18,1252.62 1632.46,1280.61 1633.74,1288.35 1635.01,1261.14 1636.29,1214.08 1637.57,1142.49 1638.85,1126.29 1640.12,1156.85 1641.4,1219.86 1642.68,1276.01 1643.95,1306.8 1645.23,1315.34 1646.51,1291.82 1647.79,1271.13 1649.06,1250.21 1650.34,1270.87 1651.62,1298.69 1652.89,1320.78 1654.17,1323.34 1655.45,1316.83 1656.73,1306.08 1658,1292.43 1659.28,1280.95 1660.56,1293.79 1661.83,1308.66 1663.11,1323.36 1664.39,1325.35 1665.67,1310.66 1666.94,1297.22 1668.22,1292.54 1669.5,1287.41 1670.77,1300.82 1672.05,1315.16 1673.33,1310.89 1674.61,1273.55 1675.88,1214.7 1677.16,1152.98 1678.44,1099.83 1679.71,1152.65 1680.99,1199.33 1682.27,1267.49 1683.54,1306.24 1684.82,1304.55 1686.1,1304.02 1687.38,1302.64 1688.65,1303.53 1689.93,1311.12 1691.21,1322.61 1692.48,1330.85 1693.76,1329.15 1695.04,1322.74 1696.32,1312.55 1697.59,1310.01 1698.87,1325.25 1700.15,1328.53 1701.42,1330.35 1702.7,1335.28 1703.98,1328.85 1705.26,1321.82 1706.53,1312.99 1707.81,1302.62 1709.09,1312.41 1710.36,1321.82 1711.64,1327.73 1712.92,1315.36 1714.2,1298.43 1715.47,1256.85 1716.75,1208.78 1718.03,1184.3 1719.3,1159.69 1720.58,1202.09 1721.86,1250.36 1723.14,1283.77 1724.41,1305.81 1725.69,1309.29 1726.97,1306.98 1728.24,1317.03 1729.52,1326.5 1730.8,1330.82 1732.08,1332.97 1733.35,1333.91 1734.63,1331.68 1735.91,1336.02 1737.18,1342.08 1738.46,1348.13 1739.74,1354.6 1741.02,1360.93 1742.29,1354.45 1743.57,1347.53 1744.85,1344.84 1746.12,1335.99 1747.4,1331.2 1748.68,1330.04 1749.96,1330.78 1751.23,1328.5 1752.51,1328.34 1753.79,1317.13 1755.06,1312.7 1756.34,1300.61 1757.62,1277.55 1758.9,1263.72 1760.17,1252.73 1761.45,1266.26 1762.73,1292.36 1764,1314.97 1765.28,1328.56 1766.56,1328.69 1767.83,1327.15 1769.11,1324.35 1770.39,1326.33 1771.67,1326.9 1772.94,1332.24 1774.22,1338.1 1775.5,1346.08 1776.77,1353.21 1778.05,1355.84 1779.33,1358.66 1780.61,1359.68 1781.88,1360.5 1783.16,1358.44 1784.44,1357.01 1785.71,1349.2 1786.99,1342.25 1788.27,1336.18 1789.55,1327.42 1790.82,1325.69 1792.1,1323.86 1793.38,1323.74 1794.65,1326.77 1795.93,1331.28 1797.21,1322.05 1798.49,1309.2 1799.76,1295.19 1801.04,1280.47 1802.32,1292.81 1803.59,1303.85 1804.87,1316.87 1806.15,1330.71 1807.43,1330.45 1808.7,1332.28 1809.98,1332.48 1811.26,1337.75 1812.53,1336 1813.81,1337.81 1815.09,1347.05 1816.37,1355.52 1817.64,1362.48 1818.92,1372.93 1820.2,1378.11 1821.47,1375.21 1822.75,1370.86 1824.03,1362.8 1825.31,1356.85 1826.58,1350.78 1827.86,1351.87 1829.14,1349.04 1830.41,1343.67 1831.69,1338.5 1832.97,1327.82 1834.25,1317.57 1835.52,1328.72 1836.8,1338.99 1838.08,1330.28 1839.35,1307.69 1840.63,1270.92 1841.91,1231.49 1843.18,1239.46 1844.46,1250.25 1845.74,1283.89 1847.02,1322.71 1848.29,1334.07 1849.57,1343.9 1850.85,1338.77 1852.12,1330.59 1853.4,1322.75 1854.68,1332.35 1855.96,1343.08 1857.23,1358.08 1858.51,1366.82 1859.79,1365.42 1861.06,1361.88 1862.34,1356.68 1863.62,1342.17 1864.9,1342.64 1866.17,1352.34 1867.45,1362.72 1868.73,1366.37 1870,1361.2 1871.28,1343.92 1872.56,1337.41 1873.84,1338.63 1875.11,1342.12 1876.39,1349.74 1877.67,1362.81 1878.94,1328.31 1880.22,1266.63 1881.5,1209.59 1882.78,1150.14 1884.05,1192.41 1885.33,1246.45 1886.61,1303.36 1887.88,1346.14 1889.16,1354.02 1890.44,1348.11 1891.72,1333.93 1892.99,1339.96 1894.27,1349.65 1895.55,1361.6 1896.82,1375.11 1898.1,1372.95 1899.38,1360.73 1900.66,1350.19 1901.93,1332.09 1903.21,1343.39 1904.49,1357.74 1905.76,1364.88 1907.04,1374.7 1908.32,1371.99 1909.6,1352.46 1910.87,1335.88 1912.15,1314.38 1913.43,1331.86 1914.7,1356.87 1915.98,1382.13 1917.26,1366.42 1918.54,1331.32 1919.81,1277.59 1921.09,1213.22 1922.37,1166.73 1923.64,1167.83 1924.92,1228.84 1926.2,1277.58 1927.47,1315.69 1928.75,1316.22 1930.03,1307.75 1931.31,1306.83 1932.58,1328.49 1933.86,1344.71 1935.14,1363.2 1936.41,1361.97 1937.69,1344.37 1938.97,1327 1940.25,1313.97 1941.52,1311.07 1942.8,1331.58 1944.08,1352.38 1945.35,1363.88 1946.63,1369.02 1947.91,1350.86 1949.19,1322.55 1950.46,1312.72 1951.74,1312.39 1953.02,1320.28 1954.29,1354.85 1955.57,1367.88 1956.85,1363.21 1958.13,1330.99 1959.4,1281.96 1960.68,1233.96 1961.96,1246.49 1963.23,1255.35 1964.51,1280.21 1965.79,1311.69 1967.07,1313.05 1968.34,1305.06 1969.62,1298.71 1970.9,1310.12 1972.17,1338.33 1973.45,1367.43 1974.73,1381.82 1976.01,1372.85 1977.28,1352.29 1978.56,1337.45 1979.84,1320.78 1981.11,1343.86 1982.39,1365.07 1983.67,1383.99 1984.95,1392.21 1986.22,1387.23 1987.5,1363.11 1988.78,1346.13 1990.05,1330.56 1991.33,1339.77 1992.61,1351.5 1993.89,1367.25 1995.16,1367.21 1996.44,1353.3 1997.72,1330.45 1998.99,1311.1 2000.27,1313.67 2001.55,1320.23 2002.82,1329.84 2004.1,1330.71 2005.38,1307.79 2006.66,1294.46 2007.93,1289.7 2009.21,1284.63 2010.49,1324.02 2011.76,1345.3 2013.04,1367.4 2014.32,1368.31 2015.6,1362.49 2016.87,1344.4 2018.15,1338.54 2019.43,1347 2020.7,1364.72 2021.98,1381.16 2023.26,1391.93 2024.54,1397.36 2025.81,1387.08 2027.09,1373.35 2028.37,1361.29 2029.64,1361.41 2030.92,1365.94 2032.2,1376.12 2033.48,1376.63 2034.75,1372.15 2036.03,1364.66 2037.31,1355.85 2038.58,1344.06 2039.86,1357.36 2041.14,1376.97 2042.42,1378.28 2043.69,1356.94 2044.97,1326.86 2046.25,1281.21 2047.52,1280.9 2048.8,1300.54 2050.08,1334.52 2051.36,1372.13 2052.63,1387.36 2053.91,1389.32 2055.19,1380.71 2056.46,1378.6 2057.74,1370.92 2059.02,1382.6 2060.3,1396.51 2061.57,1406.4 2062.85,1408.74 2064.13,1406.68 2065.4,1405.44 2066.68,1405.52 2067.96,1404.66 2069.24,1403.15 2070.51,1401.08 2071.79,1402.49 2073.07,1400.19 2074.34,1391.32 2075.62,1385.84 2076.9,1385.36 2078.18,1385.43 2079.45,1392.8 2080.73,1388.49 2082.01,1382.44 2083.28,1360.16 2084.56,1320.48 2085.84,1279.98 2087.11,1248.72 2088.39,1268.48 2089.67,1297.19 2090.95,1341.8 2092.22,1370.4 2093.5,1382.12 2094.78,1399.82 2096.05,1400.15 2097.33,1401.66 2098.61,1403.27 2099.89,1404.89 2101.16,1408.59 2102.44,1410.48 2103.72,1411.57 2104.99,1417 2106.27,1419.28 2107.55,1416.81 2108.83,1416.71 2110.1,1413.7 2111.38,1406.06 2112.66,1405.64 2113.93,1409.53 2115.21,1404.64 2116.49,1402.8 2117.77,1407.91 2119.04,1407.1 2120.32,1405.25 2121.6,1396.34 2122.87,1381.07 2124.15,1352.24 2125.43,1322.24 2126.71,1287.48 2127.98,1250.07 2129.26,1282.2 2130.54,1317.73 2131.81,1350.42 2133.09,1388.9 2134.37,1399.09 2135.65,1403.24 2136.92,1410.04 2138.2,1407.77 2139.48,1401.81 2140.75,1409.53 2142.03,1411.29 2143.31,1410.35 2144.59,1417.31 2145.86,1419.72 2147.14,1422.39 2148.42,1430.84 2149.69,1432.58 2150.97,1428.33 2152.25,1427.32 2153.53,1420.04 2154.8,1410.82 2156.08,1410.51 2157.36,1407.54 2158.63,1409.32 2159.91,1411.83 2161.19,1408.02 2162.47,1390.58 2163.74,1378.34 2165.02,1347.35 2166.3,1331.53 2167.57,1322.22 2168.85,1307.03 2170.13,1329.37 2171.4,1360.2 2172.68,1375.66 2173.96,1391.88 2175.24,1391.94 2176.51,1398.73 2177.79,1408.11 2179.07,1415.82 2180.34,1413.78 2181.62,1410.9 2182.9,1411.33 2184.18,1410.78 2185.45,1417.21 2186.73,1426.34 2188.01,1439.34 2189.28,1445.72 2190.56,1444.77 2191.84,1434.12 2193.12,1422 2194.39,1406.61 2195.67,1404.63 2196.95,1407.43 2198.22,1412.97 2199.5,1416.33 2200.78,1404.56 2202.06,1389.31 2203.33,1372.57 2204.61,1369.7 2205.89,1371.51 2207.16,1372.54 2208.44,1370.96 2209.72,1358.22 2211,1346.95 2212.27,1346.26 2213.55,1345.25 2214.83,1378.9 2216.1,1392.99 2217.38,1405.36 2218.66,1407.43 2219.94,1402.51 2221.21,1389.32 2222.49,1385.68 2223.77,1387.72 2225.04,1398.77 2226.32,1417.39 2227.6,1432.96 2228.88,1438.04 2230.15,1431.56 2231.43,1419.16 2232.71,1401.95 2233.98,1398.21 2235.26,1402.44 2236.54,1414.6 2237.82,1422.91 2239.09,1420.78 2240.37,1400.57 2241.65,1381.76 2242.92,1361.09 2244.2,1375.4 2245.48,1398.91 2246.75,1415.67 2248.03,1399.18 2249.31,1360.89 2250.59,1308.06 2251.86,1295.38 2253.14,1311.07 2254.42,1352.47 2255.69,1400.57 2256.97,1421.5 2258.25,1428.23 2259.53,1402.57 2260.8,1383.9 2262.08,1373.15 2263.36,1391.77 2264.63,1409.69 2265.91,1432.63 2267.19,1436.67 2268.47,1430.34 2269.74,1419.9 2271.02,1402.75 2272.3,1392.88 2273.57,1405.28 2274.85,1417.73 2276.13,1432.96 2277.41,1436.99 2278.68,1418.67 2279.96,1393.24 2281.24,1377 2282.51,1368.96 2283.79,1391.03 2285.07,1415.28 2286.35,1419.79 2287.62,1384.24 2288.9,1316.94 2290.18,1214.35 2291.45,1087.9 "/>
<path clip-path="url(#clip180)" d="M2011.53 198.898 L2280.56 198.898 L2280.56 95.2176 L2011.53 95.2176  Z" fill="#ffffff" fill-rule="evenodd" fill-opacity="1"/>
<polyline clip-path="url(#clip180)" style="stroke:#000000; stroke-linecap:round; stroke-linejoin:round; stroke-width:4; stroke-opacity:1; fill:none" points="2011.53,198.898 2280.56,198.898 2280.56,95.2176 2011.53,95.2176 2011.53,198.898 "/>
<polyline clip-path="url(#clip180)" style="stroke:#009af9; stroke-linecap:round; stroke-linejoin:round; stroke-width:4; stroke-opacity:1; fill:none" points="2035.59,147.058 2179.99,147.058 "/>
<path clip-path="url(#clip180)" d="M2217.9 166.745 Q2216.1 171.375 2214.38 172.787 Q2212.67 174.199 2209.8 174.199 L2206.4 174.199 L2206.4 170.634 L2208.9 170.634 Q2210.66 170.634 2211.63 169.8 Q2212.6 168.967 2213.78 165.865 L2214.55 163.921 L2204.06 138.412 L2208.57 138.412 L2216.67 158.689 L2224.78 138.412 L2229.29 138.412 L2217.9 166.745 Z" fill="#000000" fill-rule="nonzero" fill-opacity="1" /><path clip-path="url(#clip180)" d="M2236.58 160.402 L2244.22 160.402 L2244.22 134.037 L2235.91 135.703 L2235.91 131.444 L2244.17 129.778 L2248.85 129.778 L2248.85 160.402 L2256.49 160.402 L2256.49 164.338 L2236.58 164.338 L2236.58 160.402 Z" fill="#000000" fill-rule="nonzero" fill-opacity="1" /></svg>
