<?xml version="1.0" encoding="utf-8"?>
<svg xmlns="http://www.w3.org/2000/svg" xmlns:xlink="http://www.w3.org/1999/xlink" width="600" height="400" viewBox="0 0 2400 1600">
<defs>
  <clipPath id="clip010">
    <rect x="0" y="0" width="2400" height="1600"/>
  </clipPath>
</defs>
<path clip-path="url(#clip010)" d="M0 1600 L2400 1600 L2400 0 L0 0  Z" fill="#ffffff" fill-rule="evenodd" fill-opacity="1"/>
<defs>
  <clipPath id="clip011">
    <rect x="480" y="0" width="1681" height="1600"/>
  </clipPath>
</defs>
<path clip-path="url(#clip010)" d="M335.305 1486.45 L2352.76 1486.45 L2352.76 123.472 L335.305 123.472  Z" fill="#ffffff" fill-rule="evenodd" fill-opacity="1"/>
<defs>
  <clipPath id="clip012">
    <rect x="335" y="123" width="2018" height="1364"/>
  </clipPath>
</defs>
<polyline clip-path="url(#clip012)" style="stroke:#000000; stroke-linecap:round; stroke-linejoin:round; stroke-width:2; stroke-opacity:0.1; fill:none" points="390.021,1486.45 390.021,123.472 "/>
<polyline clip-path="url(#clip012)" style="stroke:#000000; stroke-linecap:round; stroke-linejoin:round; stroke-width:2; stroke-opacity:0.1; fill:none" points="866.43,1486.45 866.43,123.472 "/>
<polyline clip-path="url(#clip012)" style="stroke:#000000; stroke-linecap:round; stroke-linejoin:round; stroke-width:2; stroke-opacity:0.1; fill:none" points="1342.84,1486.45 1342.84,123.472 "/>
<polyline clip-path="url(#clip012)" style="stroke:#000000; stroke-linecap:round; stroke-linejoin:round; stroke-width:2; stroke-opacity:0.1; fill:none" points="1819.25,1486.45 1819.25,123.472 "/>
<polyline clip-path="url(#clip012)" style="stroke:#000000; stroke-linecap:round; stroke-linejoin:round; stroke-width:2; stroke-opacity:0.1; fill:none" points="2295.66,1486.45 2295.66,123.472 "/>
<polyline clip-path="url(#clip010)" style="stroke:#000000; stroke-linecap:round; stroke-linejoin:round; stroke-width:4; stroke-opacity:1; fill:none" points="335.305,1486.45 2352.76,1486.45 "/>
<polyline clip-path="url(#clip010)" style="stroke:#000000; stroke-linecap:round; stroke-linejoin:round; stroke-width:4; stroke-opacity:1; fill:none" points="390.021,1486.45 390.021,1467.55 "/>
<polyline clip-path="url(#clip010)" style="stroke:#000000; stroke-linecap:round; stroke-linejoin:round; stroke-width:4; stroke-opacity:1; fill:none" points="866.43,1486.45 866.43,1467.55 "/>
<polyline clip-path="url(#clip010)" style="stroke:#000000; stroke-linecap:round; stroke-linejoin:round; stroke-width:4; stroke-opacity:1; fill:none" points="1342.84,1486.45 1342.84,1467.55 "/>
<polyline clip-path="url(#clip010)" style="stroke:#000000; stroke-linecap:round; stroke-linejoin:round; stroke-width:4; stroke-opacity:1; fill:none" points="1819.25,1486.45 1819.25,1467.55 "/>
<polyline clip-path="url(#clip010)" style="stroke:#000000; stroke-linecap:round; stroke-linejoin:round; stroke-width:4; stroke-opacity:1; fill:none" points="2295.66,1486.45 2295.66,1467.55 "/>
<path clip-path="url(#clip010)" d="M390.021 1517.37 Q386.41 1517.37 384.581 1520.93 Q382.776 1524.47 382.776 1531.6 Q382.776 1538.71 384.581 1542.27 Q386.41 1545.82 390.021 1545.82 Q393.655 1545.82 395.461 1542.27 Q397.289 1538.71 397.289 1531.6 Q397.289 1524.47 395.461 1520.93 Q393.655 1517.37 390.021 1517.37 M390.021 1513.66 Q395.831 1513.66 398.887 1518.27 Q401.965 1522.85 401.965 1531.6 Q401.965 1540.33 398.887 1544.94 Q395.831 1549.52 390.021 1549.52 Q384.211 1549.52 381.132 1544.94 Q378.077 1540.33 378.077 1531.6 Q378.077 1522.85 381.132 1518.27 Q384.211 1513.66 390.021 1513.66 Z" fill="#000000" fill-rule="nonzero" fill-opacity="1" /><path clip-path="url(#clip010)" d="M830.123 1544.91 L846.442 1544.91 L846.442 1548.85 L824.498 1548.85 L824.498 1544.91 Q827.16 1542.16 831.743 1537.53 Q836.349 1532.88 837.53 1531.53 Q839.775 1529.01 840.655 1527.27 Q841.558 1525.51 841.558 1523.82 Q841.558 1521.07 839.613 1519.33 Q837.692 1517.6 834.59 1517.6 Q832.391 1517.6 829.937 1518.36 Q827.507 1519.13 824.729 1520.68 L824.729 1515.95 Q827.553 1514.82 830.007 1514.24 Q832.461 1513.66 834.498 1513.66 Q839.868 1513.66 843.062 1516.35 Q846.257 1519.03 846.257 1523.52 Q846.257 1525.65 845.447 1527.57 Q844.66 1529.47 842.553 1532.07 Q841.974 1532.74 838.873 1535.95 Q835.771 1539.15 830.123 1544.91 Z" fill="#000000" fill-rule="nonzero" fill-opacity="1" /><path clip-path="url(#clip010)" d="M866.257 1517.37 Q862.646 1517.37 860.817 1520.93 Q859.011 1524.47 859.011 1531.6 Q859.011 1538.71 860.817 1542.27 Q862.646 1545.82 866.257 1545.82 Q869.891 1545.82 871.696 1542.27 Q873.525 1538.71 873.525 1531.6 Q873.525 1524.47 871.696 1520.93 Q869.891 1517.37 866.257 1517.37 M866.257 1513.66 Q872.067 1513.66 875.122 1518.27 Q878.201 1522.85 878.201 1531.6 Q878.201 1540.33 875.122 1544.94 Q872.067 1549.52 866.257 1549.52 Q860.446 1549.52 857.368 1544.94 Q854.312 1540.33 854.312 1531.6 Q854.312 1522.85 857.368 1518.27 Q860.446 1513.66 866.257 1513.66 Z" fill="#000000" fill-rule="nonzero" fill-opacity="1" /><path clip-path="url(#clip010)" d="M896.419 1517.37 Q892.807 1517.37 890.979 1520.93 Q889.173 1524.47 889.173 1531.6 Q889.173 1538.71 890.979 1542.27 Q892.807 1545.82 896.419 1545.82 Q900.053 1545.82 901.858 1542.27 Q903.687 1538.71 903.687 1531.6 Q903.687 1524.47 901.858 1520.93 Q900.053 1517.37 896.419 1517.37 M896.419 1513.66 Q902.229 1513.66 905.284 1518.27 Q908.363 1522.85 908.363 1531.6 Q908.363 1540.33 905.284 1544.94 Q902.229 1549.52 896.419 1549.52 Q890.608 1549.52 887.53 1544.94 Q884.474 1540.33 884.474 1531.6 Q884.474 1522.85 887.53 1518.27 Q890.608 1513.66 896.419 1513.66 Z" fill="#000000" fill-rule="nonzero" fill-opacity="1" /><path clip-path="url(#clip010)" d="M1315.93 1518.36 L1304.12 1536.81 L1315.93 1536.81 L1315.93 1518.36 M1314.7 1514.29 L1320.58 1514.29 L1320.58 1536.81 L1325.51 1536.81 L1325.51 1540.7 L1320.58 1540.7 L1320.58 1548.85 L1315.93 1548.85 L1315.93 1540.7 L1300.33 1540.7 L1300.33 1536.19 L1314.7 1514.29 Z" fill="#000000" fill-rule="nonzero" fill-opacity="1" /><path clip-path="url(#clip010)" d="M1343.24 1517.37 Q1339.63 1517.37 1337.8 1520.93 Q1336 1524.47 1336 1531.6 Q1336 1538.71 1337.8 1542.27 Q1339.63 1545.82 1343.24 1545.82 Q1346.88 1545.82 1348.68 1542.27 Q1350.51 1538.71 1350.51 1531.6 Q1350.51 1524.47 1348.68 1520.93 Q1346.88 1517.37 1343.24 1517.37 M1343.24 1513.66 Q1349.05 1513.66 1352.11 1518.27 Q1355.19 1522.85 1355.19 1531.6 Q1355.19 1540.33 1352.11 1544.94 Q1349.05 1549.52 1343.24 1549.52 Q1337.43 1549.52 1334.36 1544.94 Q1331.3 1540.33 1331.3 1531.6 Q1331.3 1522.85 1334.36 1518.27 Q1337.43 1513.66 1343.24 1513.66 Z" fill="#000000" fill-rule="nonzero" fill-opacity="1" /><path clip-path="url(#clip010)" d="M1373.41 1517.37 Q1369.8 1517.37 1367.97 1520.93 Q1366.16 1524.47 1366.16 1531.6 Q1366.16 1538.71 1367.97 1542.27 Q1369.8 1545.82 1373.41 1545.82 Q1377.04 1545.82 1378.85 1542.27 Q1380.68 1538.71 1380.68 1531.6 Q1380.68 1524.47 1378.85 1520.93 Q1377.04 1517.37 1373.41 1517.37 M1373.41 1513.66 Q1379.22 1513.66 1382.27 1518.27 Q1385.35 1522.85 1385.35 1531.6 Q1385.35 1540.33 1382.27 1544.94 Q1379.22 1549.52 1373.41 1549.52 Q1367.6 1549.52 1364.52 1544.94 Q1361.46 1540.33 1361.46 1531.6 Q1361.46 1522.85 1364.52 1518.27 Q1367.6 1513.66 1373.41 1513.66 Z" fill="#000000" fill-rule="nonzero" fill-opacity="1" /><path clip-path="url(#clip010)" d="M1789.57 1529.7 Q1786.43 1529.7 1784.57 1531.86 Q1782.74 1534.01 1782.74 1537.76 Q1782.74 1541.49 1784.57 1543.66 Q1786.43 1545.82 1789.57 1545.82 Q1792.72 1545.82 1794.55 1543.66 Q1796.4 1541.49 1796.4 1537.76 Q1796.4 1534.01 1794.55 1531.86 Q1792.72 1529.7 1789.57 1529.7 M1798.86 1515.05 L1798.86 1519.31 Q1797.1 1518.48 1795.29 1518.04 Q1793.51 1517.6 1791.75 1517.6 Q1787.12 1517.6 1784.67 1520.72 Q1782.24 1523.85 1781.89 1530.17 Q1783.25 1528.15 1785.31 1527.09 Q1787.37 1526 1789.85 1526 Q1795.06 1526 1798.07 1529.17 Q1801.1 1532.32 1801.1 1537.76 Q1801.1 1543.08 1797.95 1546.3 Q1794.8 1549.52 1789.57 1549.52 Q1783.58 1549.52 1780.41 1544.94 Q1777.24 1540.33 1777.24 1531.6 Q1777.24 1523.41 1781.12 1518.55 Q1785.01 1513.66 1791.56 1513.66 Q1793.32 1513.66 1795.11 1514.01 Q1796.91 1514.36 1798.86 1515.05 Z" fill="#000000" fill-rule="nonzero" fill-opacity="1" /><path clip-path="url(#clip010)" d="M1819.16 1517.37 Q1815.55 1517.37 1813.72 1520.93 Q1811.91 1524.47 1811.91 1531.6 Q1811.91 1538.71 1813.72 1542.27 Q1815.55 1545.82 1819.16 1545.82 Q1822.79 1545.82 1824.6 1542.27 Q1826.42 1538.71 1826.42 1531.6 Q1826.42 1524.47 1824.6 1520.93 Q1822.79 1517.37 1819.16 1517.37 M1819.16 1513.66 Q1824.97 1513.66 1828.02 1518.27 Q1831.1 1522.85 1831.1 1531.6 Q1831.1 1540.33 1828.02 1544.94 Q1824.97 1549.52 1819.16 1549.52 Q1813.35 1549.52 1810.27 1544.94 Q1807.21 1540.33 1807.21 1531.6 Q1807.21 1522.85 1810.27 1518.27 Q1813.35 1513.66 1819.16 1513.66 Z" fill="#000000" fill-rule="nonzero" fill-opacity="1" /><path clip-path="url(#clip010)" d="M1849.32 1517.37 Q1845.71 1517.37 1843.88 1520.93 Q1842.07 1524.47 1842.07 1531.6 Q1842.07 1538.71 1843.88 1542.27 Q1845.71 1545.82 1849.32 1545.82 Q1852.95 1545.82 1854.76 1542.27 Q1856.59 1538.71 1856.59 1531.6 Q1856.59 1524.47 1854.76 1520.93 Q1852.95 1517.37 1849.32 1517.37 M1849.32 1513.66 Q1855.13 1513.66 1858.18 1518.27 Q1861.26 1522.85 1861.26 1531.6 Q1861.26 1540.33 1858.18 1544.94 Q1855.13 1549.52 1849.32 1549.52 Q1843.51 1549.52 1840.43 1544.94 Q1837.37 1540.33 1837.37 1531.6 Q1837.37 1522.85 1840.43 1518.27 Q1843.51 1513.66 1849.32 1513.66 Z" fill="#000000" fill-rule="nonzero" fill-opacity="1" /><path clip-path="url(#clip010)" d="M2265.45 1532.44 Q2262.12 1532.44 2260.2 1534.22 Q2258.3 1536 2258.3 1539.13 Q2258.3 1542.25 2260.2 1544.03 Q2262.12 1545.82 2265.45 1545.82 Q2268.78 1545.82 2270.7 1544.03 Q2272.63 1542.23 2272.63 1539.13 Q2272.63 1536 2270.7 1534.22 Q2268.81 1532.44 2265.45 1532.44 M2260.77 1530.45 Q2257.76 1529.7 2256.08 1527.64 Q2254.41 1525.58 2254.41 1522.62 Q2254.41 1518.48 2257.35 1516.07 Q2260.31 1513.66 2265.45 1513.66 Q2270.61 1513.66 2273.55 1516.07 Q2276.49 1518.48 2276.49 1522.62 Q2276.49 1525.58 2274.8 1527.64 Q2273.14 1529.7 2270.15 1530.45 Q2273.53 1531.23 2275.4 1533.52 Q2277.3 1535.82 2277.3 1539.13 Q2277.3 1544.15 2274.22 1546.83 Q2271.17 1549.52 2265.45 1549.52 Q2259.73 1549.52 2256.65 1546.83 Q2253.6 1544.15 2253.6 1539.13 Q2253.6 1535.82 2255.5 1533.52 Q2257.39 1531.23 2260.77 1530.45 M2259.06 1523.06 Q2259.06 1525.75 2260.73 1527.25 Q2262.42 1528.76 2265.45 1528.76 Q2268.46 1528.76 2270.15 1527.25 Q2271.86 1525.75 2271.86 1523.06 Q2271.86 1520.38 2270.15 1518.87 Q2268.46 1517.37 2265.45 1517.37 Q2262.42 1517.37 2260.73 1518.87 Q2259.06 1520.38 2259.06 1523.06 Z" fill="#000000" fill-rule="nonzero" fill-opacity="1" /><path clip-path="url(#clip010)" d="M2295.61 1517.37 Q2292 1517.37 2290.17 1520.93 Q2288.37 1524.47 2288.37 1531.6 Q2288.37 1538.71 2290.17 1542.27 Q2292 1545.82 2295.61 1545.82 Q2299.25 1545.82 2301.05 1542.27 Q2302.88 1538.71 2302.88 1531.6 Q2302.88 1524.47 2301.05 1520.93 Q2299.25 1517.37 2295.61 1517.37 M2295.61 1513.66 Q2301.42 1513.66 2304.48 1518.27 Q2307.56 1522.85 2307.56 1531.6 Q2307.56 1540.33 2304.48 1544.94 Q2301.42 1549.52 2295.61 1549.52 Q2289.8 1549.52 2286.72 1544.94 Q2283.67 1540.33 2283.67 1531.6 Q2283.67 1522.85 2286.72 1518.27 Q2289.8 1513.66 2295.61 1513.66 Z" fill="#000000" fill-rule="nonzero" fill-opacity="1" /><path clip-path="url(#clip010)" d="M2325.77 1517.37 Q2322.16 1517.37 2320.33 1520.93 Q2318.53 1524.47 2318.53 1531.6 Q2318.53 1538.71 2320.33 1542.27 Q2322.16 1545.82 2325.77 1545.82 Q2329.41 1545.82 2331.21 1542.27 Q2333.04 1538.71 2333.04 1531.6 Q2333.04 1524.47 2331.21 1520.93 Q2329.41 1517.37 2325.77 1517.37 M2325.77 1513.66 Q2331.58 1513.66 2334.64 1518.27 Q2337.72 1522.85 2337.72 1531.6 Q2337.72 1540.33 2334.64 1544.94 Q2331.58 1549.52 2325.77 1549.52 Q2319.96 1549.52 2316.88 1544.94 Q2313.83 1540.33 2313.83 1531.6 Q2313.83 1522.85 2316.88 1518.27 Q2319.96 1513.66 2325.77 1513.66 Z" fill="#000000" fill-rule="nonzero" fill-opacity="1" /><polyline clip-path="url(#clip012)" style="stroke:#000000; stroke-linecap:round; stroke-linejoin:round; stroke-width:2; stroke-opacity:0.1; fill:none" points="335.305,1153.92 2352.76,1153.92 "/>
<polyline clip-path="url(#clip012)" style="stroke:#000000; stroke-linecap:round; stroke-linejoin:round; stroke-width:2; stroke-opacity:0.1; fill:none" points="335.305,810.627 2352.76,810.627 "/>
<polyline clip-path="url(#clip012)" style="stroke:#000000; stroke-linecap:round; stroke-linejoin:round; stroke-width:2; stroke-opacity:0.1; fill:none" points="335.305,467.337 2352.76,467.337 "/>
<polyline clip-path="url(#clip012)" style="stroke:#000000; stroke-linecap:round; stroke-linejoin:round; stroke-width:2; stroke-opacity:0.1; fill:none" points="335.305,124.047 2352.76,124.047 "/>
<polyline clip-path="url(#clip010)" style="stroke:#000000; stroke-linecap:round; stroke-linejoin:round; stroke-width:4; stroke-opacity:1; fill:none" points="335.305,1486.45 335.305,123.472 "/>
<polyline clip-path="url(#clip010)" style="stroke:#000000; stroke-linecap:round; stroke-linejoin:round; stroke-width:4; stroke-opacity:1; fill:none" points="335.305,1153.92 354.203,1153.92 "/>
<polyline clip-path="url(#clip010)" style="stroke:#000000; stroke-linecap:round; stroke-linejoin:round; stroke-width:4; stroke-opacity:1; fill:none" points="335.305,810.627 354.203,810.627 "/>
<polyline clip-path="url(#clip010)" style="stroke:#000000; stroke-linecap:round; stroke-linejoin:round; stroke-width:4; stroke-opacity:1; fill:none" points="335.305,467.337 354.203,467.337 "/>
<polyline clip-path="url(#clip010)" style="stroke:#000000; stroke-linecap:round; stroke-linejoin:round; stroke-width:4; stroke-opacity:1; fill:none" points="335.305,124.047 354.203,124.047 "/>
<path clip-path="url(#clip010)" d="M53.3995 1173.71 L61.0384 1173.71 L61.0384 1147.34 L52.7282 1149.01 L52.7282 1144.75 L60.9921 1143.09 L65.668 1143.09 L65.668 1173.71 L73.3068 1173.71 L73.3068 1177.65 L53.3995 1177.65 L53.3995 1173.71 Z" fill="#000000" fill-rule="nonzero" fill-opacity="1" /><path clip-path="url(#clip010)" d="M82.7512 1171.77 L87.6354 1171.77 L87.6354 1177.65 L82.7512 1177.65 L82.7512 1171.77 Z" fill="#000000" fill-rule="nonzero" fill-opacity="1" /><path clip-path="url(#clip010)" d="M97.8669 1143.09 L116.223 1143.09 L116.223 1147.02 L102.149 1147.02 L102.149 1155.49 Q103.168 1155.15 104.186 1154.98 Q105.205 1154.8 106.223 1154.8 Q112.01 1154.8 115.39 1157.97 Q118.77 1161.14 118.77 1166.56 Q118.77 1172.14 115.297 1175.24 Q111.825 1178.32 105.506 1178.32 Q103.33 1178.32 101.061 1177.95 Q98.8159 1177.58 96.4085 1176.83 L96.4085 1172.14 Q98.4919 1173.27 100.714 1173.83 Q102.936 1174.38 105.413 1174.38 Q109.418 1174.38 111.756 1172.27 Q114.094 1170.17 114.094 1166.56 Q114.094 1162.95 111.756 1160.84 Q109.418 1158.73 105.413 1158.73 Q103.538 1158.73 101.663 1159.15 Q99.8113 1159.57 97.8669 1160.45 L97.8669 1143.09 Z" fill="#000000" fill-rule="nonzero" fill-opacity="1" /><path clip-path="url(#clip010)" d="M137.982 1146.16 Q134.371 1146.16 132.543 1149.73 Q130.737 1153.27 130.737 1160.4 Q130.737 1167.51 132.543 1171.07 Q134.371 1174.61 137.982 1174.61 Q141.617 1174.61 143.422 1171.07 Q145.251 1167.51 145.251 1160.4 Q145.251 1153.27 143.422 1149.73 Q141.617 1146.16 137.982 1146.16 M137.982 1142.46 Q143.793 1142.46 146.848 1147.07 Q149.927 1151.65 149.927 1160.4 Q149.927 1169.13 146.848 1173.73 Q143.793 1178.32 137.982 1178.32 Q132.172 1178.32 129.094 1173.73 Q126.038 1169.13 126.038 1160.4 Q126.038 1151.65 129.094 1147.07 Q132.172 1142.46 137.982 1142.46 Z" fill="#000000" fill-rule="nonzero" fill-opacity="1" /><path clip-path="url(#clip010)" d="M186.315 1152.18 L175.737 1162.81 L186.315 1173.39 L183.561 1176.19 L172.936 1165.56 L162.311 1176.19 L159.58 1173.39 L170.135 1162.81 L159.58 1152.18 L162.311 1149.38 L172.936 1160.01 L183.561 1149.38 L186.315 1152.18 Z" fill="#000000" fill-rule="nonzero" fill-opacity="1" /><path clip-path="url(#clip010)" d="M198.677 1173.71 L206.315 1173.71 L206.315 1147.34 L198.005 1149.01 L198.005 1144.75 L206.269 1143.09 L210.945 1143.09 L210.945 1173.71 L218.584 1173.71 L218.584 1177.65 L198.677 1177.65 L198.677 1173.71 Z" fill="#000000" fill-rule="nonzero" fill-opacity="1" /><path clip-path="url(#clip010)" d="M238.028 1146.16 Q234.417 1146.16 232.588 1149.73 Q230.783 1153.27 230.783 1160.4 Q230.783 1167.51 232.588 1171.07 Q234.417 1174.61 238.028 1174.61 Q241.662 1174.61 243.468 1171.07 Q245.297 1167.51 245.297 1160.4 Q245.297 1153.27 243.468 1149.73 Q241.662 1146.16 238.028 1146.16 M238.028 1142.46 Q243.838 1142.46 246.894 1147.07 Q249.973 1151.65 249.973 1160.4 Q249.973 1169.13 246.894 1173.73 Q243.838 1178.32 238.028 1178.32 Q232.218 1178.32 229.139 1173.73 Q226.084 1169.13 226.084 1160.4 Q226.084 1151.65 229.139 1147.07 Q232.218 1142.46 238.028 1142.46 Z" fill="#000000" fill-rule="nonzero" fill-opacity="1" /><path clip-path="url(#clip010)" d="M249.973 1136.56 L274.084 1136.56 L274.084 1139.76 L249.973 1139.76 L249.973 1136.56 Z" fill="#000000" fill-rule="nonzero" fill-opacity="1" /><path clip-path="url(#clip010)" d="M282.322 1122.15 L297.236 1122.15 L297.236 1125.35 L285.801 1125.35 L285.801 1132.24 Q286.629 1131.95 287.456 1131.82 Q288.284 1131.67 289.112 1131.67 Q293.813 1131.67 296.559 1134.25 Q299.305 1136.82 299.305 1141.23 Q299.305 1145.76 296.484 1148.28 Q293.663 1150.78 288.528 1150.78 Q286.761 1150.78 284.917 1150.48 Q283.093 1150.18 281.137 1149.58 L281.137 1145.76 Q282.83 1146.68 284.635 1147.13 Q286.441 1147.58 288.453 1147.58 Q291.707 1147.58 293.607 1145.87 Q295.506 1144.16 295.506 1141.23 Q295.506 1138.29 293.607 1136.58 Q291.707 1134.87 288.453 1134.87 Q286.93 1134.87 285.406 1135.21 Q283.902 1135.55 282.322 1136.26 L282.322 1122.15 Z" fill="#000000" fill-rule="nonzero" fill-opacity="1" /><path clip-path="url(#clip010)" d="M56.6171 830.42 L72.9365 830.42 L72.9365 834.355 L50.9921 834.355 L50.9921 830.42 Q53.6541 827.665 58.2375 823.036 Q62.8439 818.383 64.0245 817.04 Q66.2698 814.517 67.1494 812.781 Q68.0522 811.022 68.0522 809.332 Q68.0522 806.577 66.1078 804.841 Q64.1865 803.105 61.0847 803.105 Q58.8856 803.105 56.4319 803.869 Q54.0014 804.633 51.2236 806.184 L51.2236 801.462 Q54.0477 800.327 56.5014 799.749 Q58.955 799.17 60.9921 799.17 Q66.3624 799.17 69.5568 801.855 Q72.7513 804.54 72.7513 809.031 Q72.7513 811.161 71.9411 813.082 Q71.1541 814.98 69.0476 817.573 Q68.4689 818.244 65.367 821.462 Q62.2652 824.656 56.6171 830.42 Z" fill="#000000" fill-rule="nonzero" fill-opacity="1" /><path clip-path="url(#clip010)" d="M82.7512 828.475 L87.6354 828.475 L87.6354 834.355 L82.7512 834.355 L82.7512 828.475 Z" fill="#000000" fill-rule="nonzero" fill-opacity="1" /><path clip-path="url(#clip010)" d="M107.821 802.874 Q104.209 802.874 102.381 806.439 Q100.575 809.98 100.575 817.11 Q100.575 824.216 102.381 827.781 Q104.209 831.323 107.821 831.323 Q111.455 831.323 113.26 827.781 Q115.089 824.216 115.089 817.11 Q115.089 809.98 113.26 806.439 Q111.455 802.874 107.821 802.874 M107.821 799.17 Q113.631 799.17 116.686 803.777 Q119.765 808.36 119.765 817.11 Q119.765 825.837 116.686 830.443 Q113.631 835.026 107.821 835.026 Q102.01 835.026 98.9317 830.443 Q95.8761 825.837 95.8761 817.11 Q95.8761 808.36 98.9317 803.777 Q102.01 799.17 107.821 799.17 Z" fill="#000000" fill-rule="nonzero" fill-opacity="1" /><path clip-path="url(#clip010)" d="M137.982 802.874 Q134.371 802.874 132.543 806.439 Q130.737 809.98 130.737 817.11 Q130.737 824.216 132.543 827.781 Q134.371 831.323 137.982 831.323 Q141.617 831.323 143.422 827.781 Q145.251 824.216 145.251 817.11 Q145.251 809.98 143.422 806.439 Q141.617 802.874 137.982 802.874 M137.982 799.17 Q143.793 799.17 146.848 803.777 Q149.927 808.36 149.927 817.11 Q149.927 825.837 146.848 830.443 Q143.793 835.026 137.982 835.026 Q132.172 835.026 129.094 830.443 Q126.038 825.837 126.038 817.11 Q126.038 808.36 129.094 803.777 Q132.172 799.17 137.982 799.17 Z" fill="#000000" fill-rule="nonzero" fill-opacity="1" /><path clip-path="url(#clip010)" d="M186.315 808.892 L175.737 819.517 L186.315 830.096 L183.561 832.897 L172.936 822.272 L162.311 832.897 L159.58 830.096 L170.135 819.517 L159.58 808.892 L162.311 806.091 L172.936 816.716 L183.561 806.091 L186.315 808.892 Z" fill="#000000" fill-rule="nonzero" fill-opacity="1" /><path clip-path="url(#clip010)" d="M198.677 830.42 L206.315 830.42 L206.315 804.054 L198.005 805.721 L198.005 801.462 L206.269 799.795 L210.945 799.795 L210.945 830.42 L218.584 830.42 L218.584 834.355 L198.677 834.355 L198.677 830.42 Z" fill="#000000" fill-rule="nonzero" fill-opacity="1" /><path clip-path="url(#clip010)" d="M238.028 802.874 Q234.417 802.874 232.588 806.439 Q230.783 809.98 230.783 817.11 Q230.783 824.216 232.588 827.781 Q234.417 831.323 238.028 831.323 Q241.662 831.323 243.468 827.781 Q245.297 824.216 245.297 817.11 Q245.297 809.98 243.468 806.439 Q241.662 802.874 238.028 802.874 M238.028 799.17 Q243.838 799.17 246.894 803.777 Q249.973 808.36 249.973 817.11 Q249.973 825.837 246.894 830.443 Q243.838 835.026 238.028 835.026 Q232.218 835.026 229.139 830.443 Q226.084 825.837 226.084 817.11 Q226.084 808.36 229.139 803.777 Q232.218 799.17 238.028 799.17 Z" fill="#000000" fill-rule="nonzero" fill-opacity="1" /><path clip-path="url(#clip010)" d="M249.973 793.271 L274.084 793.271 L274.084 796.469 L249.973 796.469 L249.973 793.271 Z" fill="#000000" fill-rule="nonzero" fill-opacity="1" /><path clip-path="url(#clip010)" d="M282.322 778.865 L297.236 778.865 L297.236 782.062 L285.801 782.062 L285.801 788.946 Q286.629 788.664 287.456 788.532 Q288.284 788.381 289.112 788.381 Q293.813 788.381 296.559 790.958 Q299.305 793.535 299.305 797.936 Q299.305 802.468 296.484 804.989 Q293.663 807.49 288.528 807.49 Q286.761 807.49 284.917 807.189 Q283.093 806.888 281.137 806.286 L281.137 802.468 Q282.83 803.39 284.635 803.841 Q286.441 804.293 288.453 804.293 Q291.707 804.293 293.607 802.581 Q295.506 800.87 295.506 797.936 Q295.506 795.002 293.607 793.29 Q291.707 791.579 288.453 791.579 Q286.93 791.579 285.406 791.917 Q283.902 792.256 282.322 792.97 L282.322 778.865 Z" fill="#000000" fill-rule="nonzero" fill-opacity="1" /><path clip-path="url(#clip010)" d="M56.6171 487.13 L72.9365 487.13 L72.9365 491.065 L50.9921 491.065 L50.9921 487.13 Q53.6541 484.375 58.2375 479.746 Q62.8439 475.093 64.0245 473.75 Q66.2698 471.227 67.1494 469.491 Q68.0522 467.732 68.0522 466.042 Q68.0522 463.287 66.1078 461.551 Q64.1865 459.815 61.0847 459.815 Q58.8856 459.815 56.4319 460.579 Q54.0014 461.343 51.2236 462.894 L51.2236 458.172 Q54.0477 457.037 56.5014 456.459 Q58.955 455.88 60.9921 455.88 Q66.3624 455.88 69.5568 458.565 Q72.7513 461.25 72.7513 465.741 Q72.7513 467.871 71.9411 469.792 Q71.1541 471.69 69.0476 474.283 Q68.4689 474.954 65.367 478.172 Q62.2652 481.366 56.6171 487.13 Z" fill="#000000" fill-rule="nonzero" fill-opacity="1" /><path clip-path="url(#clip010)" d="M82.7512 485.185 L87.6354 485.185 L87.6354 491.065 L82.7512 491.065 L82.7512 485.185 Z" fill="#000000" fill-rule="nonzero" fill-opacity="1" /><path clip-path="url(#clip010)" d="M97.8669 456.505 L116.223 456.505 L116.223 460.44 L102.149 460.44 L102.149 468.912 Q103.168 468.565 104.186 468.403 Q105.205 468.218 106.223 468.218 Q112.01 468.218 115.39 471.389 Q118.77 474.56 118.77 479.977 Q118.77 485.556 115.297 488.658 Q111.825 491.736 105.506 491.736 Q103.33 491.736 101.061 491.366 Q98.8159 490.996 96.4085 490.255 L96.4085 485.556 Q98.4919 486.69 100.714 487.246 Q102.936 487.801 105.413 487.801 Q109.418 487.801 111.756 485.695 Q114.094 483.588 114.094 479.977 Q114.094 476.366 111.756 474.259 Q109.418 472.153 105.413 472.153 Q103.538 472.153 101.663 472.57 Q99.8113 472.986 97.8669 473.866 L97.8669 456.505 Z" fill="#000000" fill-rule="nonzero" fill-opacity="1" /><path clip-path="url(#clip010)" d="M137.982 459.584 Q134.371 459.584 132.543 463.148 Q130.737 466.69 130.737 473.82 Q130.737 480.926 132.543 484.491 Q134.371 488.033 137.982 488.033 Q141.617 488.033 143.422 484.491 Q145.251 480.926 145.251 473.82 Q145.251 466.69 143.422 463.148 Q141.617 459.584 137.982 459.584 M137.982 455.88 Q143.793 455.88 146.848 460.486 Q149.927 465.07 149.927 473.82 Q149.927 482.546 146.848 487.153 Q143.793 491.736 137.982 491.736 Q132.172 491.736 129.094 487.153 Q126.038 482.546 126.038 473.82 Q126.038 465.07 129.094 460.486 Q132.172 455.88 137.982 455.88 Z" fill="#000000" fill-rule="nonzero" fill-opacity="1" /><path clip-path="url(#clip010)" d="M186.315 465.602 L175.737 476.227 L186.315 486.806 L183.561 489.607 L172.936 478.982 L162.311 489.607 L159.58 486.806 L170.135 476.227 L159.58 465.602 L162.311 462.801 L172.936 473.426 L183.561 462.801 L186.315 465.602 Z" fill="#000000" fill-rule="nonzero" fill-opacity="1" /><path clip-path="url(#clip010)" d="M198.677 487.13 L206.315 487.13 L206.315 460.764 L198.005 462.431 L198.005 458.172 L206.269 456.505 L210.945 456.505 L210.945 487.13 L218.584 487.13 L218.584 491.065 L198.677 491.065 L198.677 487.13 Z" fill="#000000" fill-rule="nonzero" fill-opacity="1" /><path clip-path="url(#clip010)" d="M238.028 459.584 Q234.417 459.584 232.588 463.148 Q230.783 466.69 230.783 473.82 Q230.783 480.926 232.588 484.491 Q234.417 488.033 238.028 488.033 Q241.662 488.033 243.468 484.491 Q245.297 480.926 245.297 473.82 Q245.297 466.69 243.468 463.148 Q241.662 459.584 238.028 459.584 M238.028 455.88 Q243.838 455.88 246.894 460.486 Q249.973 465.07 249.973 473.82 Q249.973 482.546 246.894 487.153 Q243.838 491.736 238.028 491.736 Q232.218 491.736 229.139 487.153 Q226.084 482.546 226.084 473.82 Q226.084 465.07 229.139 460.486 Q232.218 455.88 238.028 455.88 Z" fill="#000000" fill-rule="nonzero" fill-opacity="1" /><path clip-path="url(#clip010)" d="M249.973 449.981 L274.084 449.981 L274.084 453.179 L249.973 453.179 L249.973 449.981 Z" fill="#000000" fill-rule="nonzero" fill-opacity="1" /><path clip-path="url(#clip010)" d="M282.322 435.575 L297.236 435.575 L297.236 438.772 L285.801 438.772 L285.801 445.656 Q286.629 445.373 287.456 445.242 Q288.284 445.091 289.112 445.091 Q293.813 445.091 296.559 447.668 Q299.305 450.245 299.305 454.646 Q299.305 459.178 296.484 461.699 Q293.663 464.2 288.528 464.2 Q286.761 464.2 284.917 463.899 Q283.093 463.598 281.137 462.996 L281.137 459.178 Q282.83 460.1 284.635 460.551 Q286.441 461.003 288.453 461.003 Q291.707 461.003 293.607 459.291 Q295.506 457.58 295.506 454.646 Q295.506 451.712 293.607 450 Q291.707 448.289 288.453 448.289 Q286.93 448.289 285.406 448.627 Q283.902 448.966 282.322 449.68 L282.322 435.575 Z" fill="#000000" fill-rule="nonzero" fill-opacity="1" /><path clip-path="url(#clip010)" d="M66.7559 129.141 Q70.1124 129.858 71.9874 132.127 Q73.8855 134.395 73.8855 137.729 Q73.8855 142.844 70.367 145.645 Q66.8485 148.446 60.3671 148.446 Q58.1912 148.446 55.8764 148.006 Q53.5847 147.59 51.131 146.733 L51.131 142.219 Q53.0754 143.354 55.3903 143.932 Q57.7051 144.511 60.2282 144.511 Q64.6263 144.511 66.918 142.775 Q69.2328 141.039 69.2328 137.729 Q69.2328 134.673 67.08 132.96 Q64.9504 131.224 61.131 131.224 L57.1032 131.224 L57.1032 127.381 L61.3161 127.381 Q64.7652 127.381 66.5939 126.016 Q68.4226 124.627 68.4226 122.034 Q68.4226 119.372 66.5245 117.96 Q64.6495 116.525 61.131 116.525 Q59.2097 116.525 57.0106 116.942 Q54.8115 117.358 52.1727 118.238 L52.1727 114.071 Q54.8347 113.331 57.1495 112.96 Q59.4875 112.59 61.5476 112.59 Q66.8717 112.59 69.9735 115.02 Q73.0753 117.428 73.0753 121.548 Q73.0753 124.418 71.4318 126.409 Q69.7883 128.377 66.7559 129.141 Z" fill="#000000" fill-rule="nonzero" fill-opacity="1" /><path clip-path="url(#clip010)" d="M82.7512 141.895 L87.6354 141.895 L87.6354 147.775 L82.7512 147.775 L82.7512 141.895 Z" fill="#000000" fill-rule="nonzero" fill-opacity="1" /><path clip-path="url(#clip010)" d="M107.821 116.294 Q104.209 116.294 102.381 119.858 Q100.575 123.4 100.575 130.53 Q100.575 137.636 102.381 141.201 Q104.209 144.742 107.821 144.742 Q111.455 144.742 113.26 141.201 Q115.089 137.636 115.089 130.53 Q115.089 123.4 113.26 119.858 Q111.455 116.294 107.821 116.294 M107.821 112.59 Q113.631 112.59 116.686 117.196 Q119.765 121.78 119.765 130.53 Q119.765 139.256 116.686 143.863 Q113.631 148.446 107.821 148.446 Q102.01 148.446 98.9317 143.863 Q95.8761 139.256 95.8761 130.53 Q95.8761 121.78 98.9317 117.196 Q102.01 112.59 107.821 112.59 Z" fill="#000000" fill-rule="nonzero" fill-opacity="1" /><path clip-path="url(#clip010)" d="M137.982 116.294 Q134.371 116.294 132.543 119.858 Q130.737 123.4 130.737 130.53 Q130.737 137.636 132.543 141.201 Q134.371 144.742 137.982 144.742 Q141.617 144.742 143.422 141.201 Q145.251 137.636 145.251 130.53 Q145.251 123.4 143.422 119.858 Q141.617 116.294 137.982 116.294 M137.982 112.59 Q143.793 112.59 146.848 117.196 Q149.927 121.78 149.927 130.53 Q149.927 139.256 146.848 143.863 Q143.793 148.446 137.982 148.446 Q132.172 148.446 129.094 143.863 Q126.038 139.256 126.038 130.53 Q126.038 121.78 129.094 117.196 Q132.172 112.59 137.982 112.59 Z" fill="#000000" fill-rule="nonzero" fill-opacity="1" /><path clip-path="url(#clip010)" d="M186.315 122.312 L175.737 132.937 L186.315 143.516 L183.561 146.317 L172.936 135.692 L162.311 146.317 L159.58 143.516 L170.135 132.937 L159.58 122.312 L162.311 119.511 L172.936 130.136 L183.561 119.511 L186.315 122.312 Z" fill="#000000" fill-rule="nonzero" fill-opacity="1" /><path clip-path="url(#clip010)" d="M198.677 143.84 L206.315 143.84 L206.315 117.474 L198.005 119.141 L198.005 114.882 L206.269 113.215 L210.945 113.215 L210.945 143.84 L218.584 143.84 L218.584 147.775 L198.677 147.775 L198.677 143.84 Z" fill="#000000" fill-rule="nonzero" fill-opacity="1" /><path clip-path="url(#clip010)" d="M238.028 116.294 Q234.417 116.294 232.588 119.858 Q230.783 123.4 230.783 130.53 Q230.783 137.636 232.588 141.201 Q234.417 144.742 238.028 144.742 Q241.662 144.742 243.468 141.201 Q245.297 137.636 245.297 130.53 Q245.297 123.4 243.468 119.858 Q241.662 116.294 238.028 116.294 M238.028 112.59 Q243.838 112.59 246.894 117.196 Q249.973 121.78 249.973 130.53 Q249.973 139.256 246.894 143.863 Q243.838 148.446 238.028 148.446 Q232.218 148.446 229.139 143.863 Q226.084 139.256 226.084 130.53 Q226.084 121.78 229.139 117.196 Q232.218 112.59 238.028 112.59 Z" fill="#000000" fill-rule="nonzero" fill-opacity="1" /><path clip-path="url(#clip010)" d="M249.973 106.691 L274.084 106.691 L274.084 109.889 L249.973 109.889 L249.973 106.691 Z" fill="#000000" fill-rule="nonzero" fill-opacity="1" /><path clip-path="url(#clip010)" d="M282.322 92.2844 L297.236 92.2844 L297.236 95.4818 L285.801 95.4818 L285.801 102.365 Q286.629 102.083 287.456 101.952 Q288.284 101.801 289.112 101.801 Q293.813 101.801 296.559 104.378 Q299.305 106.955 299.305 111.356 Q299.305 115.888 296.484 118.408 Q293.663 120.91 288.528 120.91 Q286.761 120.91 284.917 120.609 Q283.093 120.308 281.137 119.706 L281.137 115.888 Q282.83 116.81 284.635 117.261 Q286.441 117.713 288.453 117.713 Q291.707 117.713 293.607 116.001 Q295.506 114.29 295.506 111.356 Q295.506 108.422 293.607 106.71 Q291.707 104.999 288.453 104.999 Q286.93 104.999 285.406 105.337 Q283.902 105.676 282.322 106.39 L282.322 92.2844 Z" fill="#000000" fill-rule="nonzero" fill-opacity="1" /><path clip-path="url(#clip010)" d="M737.468 44.2197 Q740.102 45.1109 742.573 48.0275 Q745.084 50.9442 747.596 56.0483 L755.9 72.576 L747.11 72.576 L739.372 57.061 Q736.375 50.9847 733.539 48.9997 Q730.744 47.0148 725.883 47.0148 L716.971 47.0148 L716.971 72.576 L708.788 72.576 L708.788 12.096 L727.26 12.096 Q737.631 12.096 742.735 16.4305 Q747.839 20.7649 747.839 29.5149 Q747.839 35.2267 745.165 38.994 Q742.532 42.7613 737.468 44.2197 M716.971 18.8205 L716.971 40.2903 L727.26 40.2903 Q733.175 40.2903 736.172 37.5762 Q739.21 34.8216 739.21 29.5149 Q739.21 24.2082 736.172 21.5346 Q733.175 18.8205 727.26 18.8205 L716.971 18.8205 Z" fill="#000000" fill-rule="nonzero" fill-opacity="1" /><path clip-path="url(#clip010)" d="M779.962 32.4315 Q773.967 32.4315 770.483 37.1306 Q767 41.7891 767 49.9314 Q767 58.0738 770.443 62.7728 Q773.927 67.4314 779.962 67.4314 Q785.917 67.4314 789.401 62.7323 Q792.885 58.0333 792.885 49.9314 Q792.885 41.8701 789.401 37.1711 Q785.917 32.4315 779.962 32.4315 M779.962 26.1121 Q789.685 26.1121 795.234 32.4315 Q800.784 38.7509 800.784 49.9314 Q800.784 61.0714 795.234 67.4314 Q789.685 73.7508 779.962 73.7508 Q770.2 73.7508 764.65 67.4314 Q759.141 61.0714 759.141 49.9314 Q759.141 38.7509 764.65 32.4315 Q770.2 26.1121 779.962 26.1121 Z" fill="#000000" fill-rule="nonzero" fill-opacity="1" /><path clip-path="url(#clip010)" d="M813.139 9.54393 L820.593 9.54393 L820.593 72.576 L813.139 72.576 L813.139 9.54393 Z" fill="#000000" fill-rule="nonzero" fill-opacity="1" /><path clip-path="url(#clip010)" d="M836.189 9.54393 L843.643 9.54393 L843.643 72.576 L836.189 72.576 L836.189 9.54393 Z" fill="#000000" fill-rule="nonzero" fill-opacity="1" /><path clip-path="url(#clip010)" d="M859.239 27.2059 L866.692 27.2059 L866.692 72.576 L859.239 72.576 L859.239 27.2059 M859.239 9.54393 L866.692 9.54393 L866.692 18.9825 L859.239 18.9825 L859.239 9.54393 Z" fill="#000000" fill-rule="nonzero" fill-opacity="1" /><path clip-path="url(#clip010)" d="M920.002 45.1919 L920.002 72.576 L912.549 72.576 L912.549 45.4349 Q912.549 38.994 910.037 35.7938 Q907.525 32.5936 902.502 32.5936 Q896.466 32.5936 892.983 36.4419 Q889.499 40.2903 889.499 46.9338 L889.499 72.576 L882.005 72.576 L882.005 27.2059 L889.499 27.2059 L889.499 34.2544 Q892.173 30.163 895.778 28.1376 Q899.424 26.1121 904.163 26.1121 Q911.981 26.1121 915.992 30.9732 Q920.002 35.7938 920.002 45.1919 Z" fill="#000000" fill-rule="nonzero" fill-opacity="1" /><path clip-path="url(#clip010)" d="M964.724 49.3643 Q964.724 41.2625 961.362 36.8065 Q958.04 32.3505 952.004 32.3505 Q946.009 32.3505 942.647 36.8065 Q939.325 41.2625 939.325 49.3643 Q939.325 57.4256 942.647 61.8816 Q946.009 66.3376 952.004 66.3376 Q958.04 66.3376 961.362 61.8816 Q964.724 57.4256 964.724 49.3643 M972.178 66.9452 Q972.178 78.5308 967.033 84.1616 Q961.889 89.8329 951.275 89.8329 Q947.346 89.8329 943.862 89.2252 Q940.378 88.6581 937.097 87.4428 L937.097 80.1917 Q940.378 81.9741 943.578 82.8248 Q946.779 83.6755 950.1 83.6755 Q957.433 83.6755 961.078 79.8271 Q964.724 76.0193 964.724 68.282 L964.724 64.5957 Q962.415 68.6061 958.81 70.5911 Q955.205 72.576 950.181 72.576 Q941.837 72.576 936.732 66.2161 Q931.628 59.8562 931.628 49.3643 Q931.628 38.832 936.732 32.472 Q941.837 26.1121 950.181 26.1121 Q955.205 26.1121 958.81 28.0971 Q962.415 30.082 964.724 34.0924 L964.724 27.2059 L972.178 27.2059 L972.178 66.9452 Z" fill="#000000" fill-rule="nonzero" fill-opacity="1" /><path clip-path="url(#clip010)" d="M1009.57 27.2059 L1017.02 27.2059 L1026.34 62.6108 L1035.62 27.2059 L1044.41 27.2059 L1053.72 62.6108 L1063 27.2059 L1070.45 27.2059 L1058.58 72.576 L1049.79 72.576 L1040.03 35.3887 L1030.23 72.576 L1021.44 72.576 L1009.57 27.2059 Z" fill="#000000" fill-rule="nonzero" fill-opacity="1" /><path clip-path="url(#clip010)" d="M1081.75 27.2059 L1089.21 27.2059 L1089.21 72.576 L1081.75 72.576 L1081.75 27.2059 M1081.75 9.54393 L1089.21 9.54393 L1089.21 18.9825 L1081.75 18.9825 L1081.75 9.54393 Z" fill="#000000" fill-rule="nonzero" fill-opacity="1" /><path clip-path="url(#clip010)" d="M1142.52 45.1919 L1142.52 72.576 L1135.06 72.576 L1135.06 45.4349 Q1135.06 38.994 1132.55 35.7938 Q1130.04 32.5936 1125.02 32.5936 Q1118.98 32.5936 1115.5 36.4419 Q1112.02 40.2903 1112.02 46.9338 L1112.02 72.576 L1104.52 72.576 L1104.52 27.2059 L1112.02 27.2059 L1112.02 34.2544 Q1114.69 30.163 1118.29 28.1376 Q1121.94 26.1121 1126.68 26.1121 Q1134.5 26.1121 1138.51 30.9732 Q1142.52 35.7938 1142.52 45.1919 Z" fill="#000000" fill-rule="nonzero" fill-opacity="1" /><path clip-path="url(#clip010)" d="M1187.24 34.0924 L1187.24 9.54393 L1194.69 9.54393 L1194.69 72.576 L1187.24 72.576 L1187.24 65.7705 Q1184.89 69.8214 1181.29 71.8063 Q1177.72 73.7508 1172.7 73.7508 Q1164.47 73.7508 1159.29 67.1883 Q1154.14 60.6258 1154.14 49.9314 Q1154.14 39.2371 1159.29 32.6746 Q1164.47 26.1121 1172.7 26.1121 Q1177.72 26.1121 1181.29 28.0971 Q1184.89 30.0415 1187.24 34.0924 M1161.84 49.9314 Q1161.84 58.1548 1165.2 62.8538 Q1168.61 67.5124 1174.52 67.5124 Q1180.43 67.5124 1183.84 62.8538 Q1187.24 58.1548 1187.24 49.9314 Q1187.24 41.7081 1183.84 37.0496 Q1180.43 32.3505 1174.52 32.3505 Q1168.61 32.3505 1165.2 37.0496 Q1161.84 41.7081 1161.84 49.9314 Z" fill="#000000" fill-rule="nonzero" fill-opacity="1" /><path clip-path="url(#clip010)" d="M1227.63 32.4315 Q1221.63 32.4315 1218.15 37.1306 Q1214.66 41.7891 1214.66 49.9314 Q1214.66 58.0738 1218.11 62.7728 Q1221.59 67.4314 1227.63 67.4314 Q1233.58 67.4314 1237.07 62.7323 Q1240.55 58.0333 1240.55 49.9314 Q1240.55 41.8701 1237.07 37.1711 Q1233.58 32.4315 1227.63 32.4315 M1227.63 26.1121 Q1237.35 26.1121 1242.9 32.4315 Q1248.45 38.7509 1248.45 49.9314 Q1248.45 61.0714 1242.9 67.4314 Q1237.35 73.7508 1227.63 73.7508 Q1217.87 73.7508 1212.32 67.4314 Q1206.81 61.0714 1206.81 49.9314 Q1206.81 38.7509 1212.32 32.4315 Q1217.87 26.1121 1227.63 26.1121 Z" fill="#000000" fill-rule="nonzero" fill-opacity="1" /><path clip-path="url(#clip010)" d="M1256.47 27.2059 L1263.92 27.2059 L1273.24 62.6108 L1282.52 27.2059 L1291.31 27.2059 L1300.63 62.6108 L1309.9 27.2059 L1317.36 27.2059 L1305.49 72.576 L1296.7 72.576 L1286.93 35.3887 L1277.13 72.576 L1268.34 72.576 L1256.47 27.2059 Z" fill="#000000" fill-rule="nonzero" fill-opacity="1" /><path clip-path="url(#clip010)" d="M1383.95 28.5427 L1383.95 35.5912 Q1380.79 33.9709 1377.39 33.1607 Q1373.99 32.3505 1370.34 32.3505 Q1364.79 32.3505 1362 34.0519 Q1359.24 35.7533 1359.24 39.156 Q1359.24 41.7486 1361.23 43.2475 Q1363.21 44.7058 1369.21 46.0426 L1371.76 46.6097 Q1379.7 48.3111 1383.02 51.4303 Q1386.38 54.509 1386.38 60.0587 Q1386.38 66.3781 1381.36 70.0644 Q1376.38 73.7508 1367.63 73.7508 Q1363.98 73.7508 1360.01 73.0216 Q1356.08 72.3329 1351.71 70.9151 L1351.71 63.2184 Q1355.84 65.3654 1359.85 66.4591 Q1363.86 67.5124 1367.79 67.5124 Q1373.06 67.5124 1375.89 65.73 Q1378.73 63.9071 1378.73 60.6258 Q1378.73 57.5877 1376.66 55.9673 Q1374.64 54.3469 1367.71 52.8481 L1365.12 52.2405 Q1358.19 50.7821 1355.11 47.7845 Q1352.03 44.7463 1352.03 39.4801 Q1352.03 33.0797 1356.57 29.5959 Q1361.11 26.1121 1369.45 26.1121 Q1373.58 26.1121 1377.23 26.7198 Q1380.87 27.3274 1383.95 28.5427 Z" fill="#000000" fill-rule="nonzero" fill-opacity="1" /><path clip-path="url(#clip010)" d="M1405.62 14.324 L1405.62 27.2059 L1420.98 27.2059 L1420.98 32.9987 L1405.62 32.9987 L1405.62 57.6282 Q1405.62 63.1779 1407.12 64.7578 Q1408.66 66.3376 1413.32 66.3376 L1420.98 66.3376 L1420.98 72.576 L1413.32 72.576 Q1404.69 72.576 1401.41 69.3758 Q1398.13 66.1351 1398.13 57.6282 L1398.13 32.9987 L1392.66 32.9987 L1392.66 27.2059 L1398.13 27.2059 L1398.13 14.324 L1405.62 14.324 Z" fill="#000000" fill-rule="nonzero" fill-opacity="1" /><path clip-path="url(#clip010)" d="M1460.64 34.0924 L1460.64 9.54393 L1468.09 9.54393 L1468.09 72.576 L1460.64 72.576 L1460.64 65.7705 Q1458.29 69.8214 1454.68 71.8063 Q1451.12 73.7508 1446.09 73.7508 Q1437.87 73.7508 1432.68 67.1883 Q1427.54 60.6258 1427.54 49.9314 Q1427.54 39.2371 1432.68 32.6746 Q1437.87 26.1121 1446.09 26.1121 Q1451.12 26.1121 1454.68 28.0971 Q1458.29 30.0415 1460.64 34.0924 M1435.24 49.9314 Q1435.24 58.1548 1438.6 62.8538 Q1442 67.5124 1447.92 67.5124 Q1453.83 67.5124 1457.23 62.8538 Q1460.64 58.1548 1460.64 49.9314 Q1460.64 41.7081 1457.23 37.0496 Q1453.83 32.3505 1447.92 32.3505 Q1442 32.3505 1438.6 37.0496 Q1435.24 41.7081 1435.24 49.9314 Z" fill="#000000" fill-rule="nonzero" fill-opacity="1" /><path clip-path="url(#clip010)" d="M1484.5 62.2867 L1493.04 62.2867 L1493.04 72.576 L1484.5 72.576 L1484.5 62.2867 Z" fill="#000000" fill-rule="nonzero" fill-opacity="1" /><path clip-path="url(#clip010)" d="M1553.77 32.4315 Q1547.77 32.4315 1544.29 37.1306 Q1540.8 41.7891 1540.8 49.9314 Q1540.8 58.0738 1544.25 62.7728 Q1547.73 67.4314 1553.77 67.4314 Q1559.72 67.4314 1563.2 62.7323 Q1566.69 58.0333 1566.69 49.9314 Q1566.69 41.8701 1563.2 37.1711 Q1559.72 32.4315 1553.77 32.4315 M1553.77 26.1121 Q1563.49 26.1121 1569.04 32.4315 Q1574.59 38.7509 1574.59 49.9314 Q1574.59 61.0714 1569.04 67.4314 Q1563.49 73.7508 1553.77 73.7508 Q1544 73.7508 1538.45 67.4314 Q1532.94 61.0714 1532.94 49.9314 Q1532.94 38.7509 1538.45 32.4315 Q1544 26.1121 1553.77 26.1121 Z" fill="#000000" fill-rule="nonzero" fill-opacity="1" /><path clip-path="url(#clip010)" d="M1609.91 9.54393 L1609.91 15.7418 L1602.78 15.7418 Q1598.77 15.7418 1597.19 17.3622 Q1595.65 18.9825 1595.65 23.1955 L1595.65 27.2059 L1607.93 27.2059 L1607.93 32.9987 L1595.65 32.9987 L1595.65 72.576 L1588.16 72.576 L1588.16 32.9987 L1581.03 32.9987 L1581.03 27.2059 L1588.16 27.2059 L1588.16 24.0462 Q1588.16 16.471 1591.68 13.0277 Q1595.21 9.54393 1602.86 9.54393 L1609.91 9.54393 Z" fill="#000000" fill-rule="nonzero" fill-opacity="1" /><path clip-path="url(#clip010)" d="M1675.17 28.9478 L1675.17 35.9153 Q1672.01 34.1734 1668.81 33.3227 Q1665.65 32.4315 1662.41 32.4315 Q1655.16 32.4315 1651.15 37.0496 Q1647.14 41.6271 1647.14 49.9314 Q1647.14 58.2358 1651.15 62.8538 Q1655.16 67.4314 1662.41 67.4314 Q1665.65 67.4314 1668.81 66.5807 Q1672.01 65.6895 1675.17 63.9476 L1675.17 70.8341 Q1672.05 72.2924 1668.69 73.0216 Q1665.37 73.7508 1661.6 73.7508 Q1651.35 73.7508 1645.32 67.3098 Q1639.28 60.8689 1639.28 49.9314 Q1639.28 38.832 1645.36 32.472 Q1651.47 26.1121 1662.09 26.1121 Q1665.53 26.1121 1668.81 26.8413 Q1672.09 27.5299 1675.17 28.9478 Z" fill="#000000" fill-rule="nonzero" fill-opacity="1" /><path clip-path="url(#clip010)" d="M1705.72 32.4315 Q1699.72 32.4315 1696.24 37.1306 Q1692.75 41.7891 1692.75 49.9314 Q1692.75 58.0738 1696.2 62.7728 Q1699.68 67.4314 1705.72 67.4314 Q1711.67 67.4314 1715.15 62.7323 Q1718.64 58.0333 1718.64 49.9314 Q1718.64 41.8701 1715.15 37.1711 Q1711.67 32.4315 1705.72 32.4315 M1705.72 26.1121 Q1715.44 26.1121 1720.99 32.4315 Q1726.54 38.7509 1726.54 49.9314 Q1726.54 61.0714 1720.99 67.4314 Q1715.44 73.7508 1705.72 73.7508 Q1695.95 73.7508 1690.4 67.4314 Q1684.89 61.0714 1684.89 49.9314 Q1684.89 38.7509 1690.4 32.4315 Q1695.95 26.1121 1705.72 26.1121 Z" fill="#000000" fill-rule="nonzero" fill-opacity="1" /><path clip-path="url(#clip010)" d="M1738.89 9.54393 L1746.35 9.54393 L1746.35 72.576 L1738.89 72.576 L1738.89 9.54393 Z" fill="#000000" fill-rule="nonzero" fill-opacity="1" /><path clip-path="url(#clip010)" d="M1761.17 54.671 L1761.17 27.2059 L1768.63 27.2059 L1768.63 54.3874 Q1768.63 60.8284 1771.14 64.0691 Q1773.65 67.2693 1778.67 67.2693 Q1784.71 67.2693 1788.19 63.421 Q1791.72 59.5726 1791.72 52.9291 L1791.72 27.2059 L1799.17 27.2059 L1799.17 72.576 L1791.72 72.576 L1791.72 65.6084 Q1789 69.7404 1785.4 71.7658 Q1781.83 73.7508 1777.09 73.7508 Q1769.27 73.7508 1765.22 68.8897 Q1761.17 64.0286 1761.17 54.671 M1779.93 26.1121 L1779.93 26.1121 Z" fill="#000000" fill-rule="nonzero" fill-opacity="1" /><path clip-path="url(#clip010)" d="M1849.85 35.9153 Q1852.64 30.8922 1856.53 28.5022 Q1860.42 26.1121 1865.69 26.1121 Q1872.77 26.1121 1876.62 31.0947 Q1880.47 36.0368 1880.47 45.1919 L1880.47 72.576 L1872.98 72.576 L1872.98 45.4349 Q1872.98 38.913 1870.67 35.7533 Q1868.36 32.5936 1863.62 32.5936 Q1857.83 32.5936 1854.46 36.4419 Q1851.1 40.2903 1851.1 46.9338 L1851.1 72.576 L1843.61 72.576 L1843.61 45.4349 Q1843.61 38.8725 1841.3 35.7533 Q1838.99 32.5936 1834.17 32.5936 Q1828.46 32.5936 1825.1 36.4824 Q1821.73 40.3308 1821.73 46.9338 L1821.73 72.576 L1814.24 72.576 L1814.24 27.2059 L1821.73 27.2059 L1821.73 34.2544 Q1824.29 30.082 1827.85 28.0971 Q1831.42 26.1121 1836.32 26.1121 Q1841.26 26.1121 1844.7 28.6237 Q1848.19 31.1352 1849.85 35.9153 Z" fill="#000000" fill-rule="nonzero" fill-opacity="1" /><path clip-path="url(#clip010)" d="M1933.05 45.1919 L1933.05 72.576 L1925.6 72.576 L1925.6 45.4349 Q1925.6 38.994 1923.09 35.7938 Q1920.58 32.5936 1915.55 32.5936 Q1909.52 32.5936 1906.03 36.4419 Q1902.55 40.2903 1902.55 46.9338 L1902.55 72.576 L1895.05 72.576 L1895.05 27.2059 L1902.55 27.2059 L1902.55 34.2544 Q1905.22 30.163 1908.83 28.1376 Q1912.47 26.1121 1917.21 26.1121 Q1925.03 26.1121 1929.04 30.9732 Q1933.05 35.7938 1933.05 45.1919 Z" fill="#000000" fill-rule="nonzero" fill-opacity="1" /><path clip-path="url(#clip010)" d="M1976.84 28.5427 L1976.84 35.5912 Q1973.68 33.9709 1970.28 33.1607 Q1966.88 32.3505 1963.23 32.3505 Q1957.68 32.3505 1954.89 34.0519 Q1952.13 35.7533 1952.13 39.156 Q1952.13 41.7486 1954.12 43.2475 Q1956.1 44.7058 1962.1 46.0426 L1964.65 46.6097 Q1972.59 48.3111 1975.91 51.4303 Q1979.27 54.509 1979.27 60.0587 Q1979.27 66.3781 1974.25 70.0644 Q1969.27 73.7508 1960.52 73.7508 Q1956.87 73.7508 1952.9 73.0216 Q1948.97 72.3329 1944.6 70.9151 L1944.6 63.2184 Q1948.73 65.3654 1952.74 66.4591 Q1956.75 67.5124 1960.68 67.5124 Q1965.95 67.5124 1968.78 65.73 Q1971.62 63.9071 1971.62 60.6258 Q1971.62 57.5877 1969.55 55.9673 Q1967.53 54.3469 1960.6 52.8481 L1958.01 52.2405 Q1951.08 50.7821 1948 47.7845 Q1944.92 44.7463 1944.92 39.4801 Q1944.92 33.0797 1949.46 29.5959 Q1954 26.1121 1962.34 26.1121 Q1966.47 26.1121 1970.12 26.7198 Q1973.76 27.3274 1976.84 28.5427 Z" fill="#000000" fill-rule="nonzero" fill-opacity="1" /><polyline clip-path="url(#clip012)" style="stroke:#009af9; stroke-linecap:round; stroke-linejoin:round; stroke-width:4; stroke-opacity:1; fill:none" points="392.403,243.623 394.785,243.963 397.167,244.073 399.549,246.391 401.931,247.214 404.313,248.679 406.695,249.37 409.077,249.644 411.459,250.245 413.841,248.972 416.223,249.799 418.605,250.781 420.988,252.938 423.37,254.09 425.752,254.364 428.134,257.14 430.516,258.633 432.898,259.299 435.28,264.728 437.662,272.288 440.044,274.722 442.426,276.222 444.808,277.328 447.19,279.002 449.572,280.691 451.954,282.748 454.336,283.403 456.718,285.728 459.1,286.497 461.482,288.181 463.864,290.42 466.246,292.051 468.628,291.835 471.011,294.025 473.393,294.898 475.775,294.795 478.157,297.205 480.539,297.398 482.921,298.571 485.303,300.835 487.685,300.298 490.067,301.794 492.449,303.893 494.831,305.914 497.213,307.277 499.595,309.166 501.977,310.642 504.359,312.172 506.741,315.131 509.123,320.847 511.505,320.352 513.887,326.665 516.269,326.655 518.651,325.953 521.033,328.336 523.416,329.458 525.798,331.079 528.18,331.439 530.562,243.118 532.944,239.644 535.326,241.069 537.708,241.894 540.09,243.642 542.472,242.971 544.854,241.827 547.236,240.75 549.618,241.433 552,238.452 554.382,240.25 556.764,240.86 559.146,241.46 561.528,241.591 563.91,242.74 566.292,243.877 568.674,242.771 571.056,243.751 573.439,243.269 575.821,241.138 578.203,242.865 580.585,239.091 582.967,241.182 585.349,234.835 587.731,235.717 590.113,224.295 592.495,224.752 594.877,224.42 597.259,221.642 599.641,223.958 602.023,222.273 604.405,220.712 606.787,220.576 609.169,221.024 611.551,221.065 613.933,222.738 616.315,222.692 618.697,222.839 621.079,224.722 623.462,223.019 625.844,224.014 628.226,223.425 630.608,222.189 632.99,211.65 635.372,213.17 637.754,211.919 640.136,209.867 642.518,211.98 644.9,209.162 647.282,210.952 649.664,206.864 652.046,197.958 654.428,197.671 656.81,196.187 659.192,196.12 661.574,185.271 663.956,185.542 666.338,173.348 668.72,172.194 671.102,171.665 673.484,172.197 675.867,175.002 678.249,174.197 680.631,173 683.013,170.274 685.395,169.944 687.777,168.973 690.159,169.108 692.541,166.559 694.923,163.082 697.305,162.047 699.687,163.794 702.069,165.222 704.451,166.349 706.833,168.397 709.215,170.303 711.597,172.55 713.979,174.776 716.361,176.415 718.743,178.553 721.125,181.662 723.507,183.871 725.89,185.223 728.272,187.331 730.654,187.826 733.036,190.613 735.418,191.918 737.8,195.319 740.182,199.295 742.564,204.292 744.946,208.059 747.328,211.62 749.71,215.296 752.092,218.3 754.474,222.043 756.856,225.982 759.238,229.713 761.62,233.799 764.002,237.39 766.384,242.473 768.766,245.14 771.148,246.01 773.53,249.66 775.912,253.807 778.295,258.161 780.677,261.72 783.059,265.387 785.441,269.435 787.823,273.799 790.205,278.136 792.587,283.495 794.969,291.076 797.351,295.772 799.733,299.603 802.115,303.051 804.497,307.414 806.879,312.025 809.261,315.957 811.643,319.645 814.025,323.863 816.407,327.195 818.789,331.072 821.171,334.642 823.553,338.682 825.935,342.29 828.318,346.84 830.7,350.42 833.082,353.583 835.464,358.308 837.846,362.082 840.228,366.049 842.61,370.878 844.992,374.749 847.374,379.114 849.756,384.694 852.138,389.772 854.52,394.109 856.902,400.967 859.284,404.652 861.666,409.484 864.048,414.618 866.43,417.838 868.812,423.047 871.194,427.666 873.576,430.861 875.958,434.717 878.34,439.017 880.723,443.236 883.105,447.351 885.487,451.595 887.869,454.155 890.251,458.502 892.633,465.098 895.015,468.971 897.397,473.707 899.779,480.437 902.161,483.804 904.543,487.817 906.925,491.935 909.307,499.293 911.689,619.212 914.071,630.145 916.453,636.12 918.835,641.265 921.217,645.687 923.599,653.978 925.981,660.236 928.363,668.715 930.746,674.545 933.128,685.468 935.51,692.248 937.892,707.99 940.274,714.381 942.656,720.57 945.038,726.15 947.42,731.136 949.802,738.828 952.184,747.495 954.566,754.771 956.948,768.796 959.33,774.588 961.712,788.928 964.094,794.631 966.476,812.557 968.858,819.543 971.24,844.057 973.622,851.368 976.004,858.662 978.386,869.485 980.769,874.523 983.151,883.818 985.533,895.002 987.915,903.901 990.297,910.742 992.679,918.995 995.061,923.889 997.443,930.701 999.825,938.894 1002.21,944.728 1004.59,956.828 1006.97,960.599 1009.35,965.032 1011.74,975.891 1014.12,1001.68 1016.5,1007.21 1018.88,1017.35 1021.26,1030.92 1023.65,1038.01 1026.03,1050.88 1028.41,1058.66 1030.79,1078.33 1033.17,1108.59 1035.56,1120.98 1037.94,1131.87 1040.32,1144.16 1042.7,1179.98 1045.08,1189.24 1047.47,1230.42 1049.85,1241.98 1052.23,1258.27 1054.61,1268.24 1056.99,1280.2 1059.38,1296.12 1061.76,1309.77 1064.14,1330.74 1066.52,1341.98 1068.9,1360.03 1071.29,1372.99 1073.67,1396.59 1076.05,1427.29 1078.43,1446.14 1080.81,1447.87 1083.2,1408.12 1085.58,1404.56 1087.96,1391.36 1090.34,1371.76 1092.72,1359.22 1095.11,1342.45 1097.49,1329.36 1099.87,1312.4 1102.25,1295.53 1104.63,1282.36 1107.02,1259.61 1109.4,1248.68 1111.78,1241.38 1114.16,1231.71 1116.55,1222.16 1118.93,1217.26 1121.31,1208.28 1123.69,1198.83 1126.07,1184.78 1128.46,1165.12 1130.84,1154.91 1133.22,1145.97 1135.6,1133.19 1137.98,1122.51 1140.37,1114.14 1142.75,1101.62 1145.13,1091.7 1147.51,1086.05 1149.89,1082.73 1152.28,1078.35 1154.66,1072.73 1157.04,1066.23 1159.42,1059.51 1161.8,1053.5 1164.19,1046 1166.57,1038.62 1168.95,1031.75 1171.33,1021.19 1173.71,1011.78 1176.1,1004.99 1178.48,993.896 1180.86,984.051 1183.24,976.911 1185.62,969.634 1188.01,959.779 1190.39,950.615 1192.77,944.444 1195.15,936.481 1197.53,929.951 1199.92,922.114 1202.3,913.905 1204.68,908.776 1207.06,899.753 1209.44,889.245 1211.83,880.206 1214.21,870.954 1216.59,861.586 1218.97,856.189 1221.36,850.042 1223.74,842.15 1226.12,834.07 1228.5,825.146 1230.88,818.857 1233.27,812.942 1235.65,805.797 1238.03,798.738 1240.41,792.846 1242.79,785.214 1245.18,773.62 1247.56,755.204 1249.94,746.173 1252.32,738.547 1254.7,733.353 1257.09,727.827 1259.47,720.807 1261.85,717.111 1264.23,712.825 1266.61,706.41 1269,702.743 1271.38,701.139 1273.76,696.127 1276.14,691.448 1278.52,685.096 1280.91,678.817 1283.29,672.894 1285.67,664.949 1288.05,658.406 1290.43,654.026 1292.82,648.702 1295.2,641.928 1297.58,638.274 1299.96,634.597 1302.34,629.278 1304.73,624.294 1307.11,618.175 1309.49,613.049 1311.87,607.118 1314.26,600.033 1316.64,593.747 1319.02,588.319 1321.4,582.033 1323.78,575.319 1326.17,571.477 1328.55,567.742 1330.93,562.121 1333.31,558.573 1335.69,554.862 1338.08,550.765 1340.46,546.785 1342.84,541.582 1345.22,535.261 1347.6,533.484 1349.99,529.134 1352.37,525.146 1354.75,522.621 1357.13,518.849 1359.51,514.898 1361.9,512.807 1364.28,506.43 1366.66,494.146 1369.04,492.445 1371.42,490.351 1373.81,486.833 1376.19,484.959 1378.57,481.063 1380.95,477.129 1383.33,475.251 1385.72,470.647 1388.1,467.736 1390.48,467.496 1392.86,461.986 1395.24,457.809 1397.63,455.8 1400.01,452.212 1402.39,448.738 1404.77,447.057 1407.15,444.817 1409.54,442.786 1411.92,440.541 1414.3,437.369 1416.68,435.097 1419.07,433.028 1421.45,430.381 1423.83,426.137 1426.21,423.818 1428.59,418.204 1430.98,415.18 1433.36,414.159 1435.74,410.905 1438.12,406.439 1440.5,403.313 1442.89,401.125 1445.27,398.296 1447.65,394.652 1450.03,391.895 1452.41,389.306 1454.8,387.17 1457.18,384.059 1459.56,379.501 1461.94,377.385 1464.32,382.19 1466.71,379.739 1469.09,383.785 1471.47,386.041 1473.85,385.688 1476.23,385.846 1478.62,386.947 1481,388.063 1483.38,389.116 1485.76,383.564 1488.14,385.904 1490.53,386.876 1492.91,384.673 1495.29,380.438 1497.67,380.918 1500.05,377.576 1502.44,374.302 1504.82,374.161 1507.2,375.657 1509.58,379.772 1511.96,379.187 1514.35,377.489 1516.73,375.933 1519.11,376.913 1521.49,376.359 1523.88,375.137 1526.26,375.322 1528.64,372.272 1531.02,368.035 1533.4,368.465 1535.79,364.672 1538.17,361.059 1540.55,360.003 1542.93,357.333 1545.31,355.433 1547.7,354.372 1550.08,352.815 1552.46,350.548 1554.84,348.818 1557.22,347.35 1559.61,345.401 1561.99,345.541 1564.37,342.654 1566.75,339.714 1569.13,339.895 1571.52,337.211 1573.9,333.47 1576.28,332.354 1578.66,330.362 1581.04,328.437 1583.43,327.23 1585.81,325.663 1588.19,323.121 1590.57,323.982 1592.95,324.122 1595.34,322.4 1597.72,323.46 1600.1,320.18 1602.48,313.012 1604.86,307.327 1607.25,304.931 1609.63,303.209 1612.01,301.908 1614.39,299.748 1616.77,298.944 1619.16,298.286 1621.54,296.741 1623.92,294.496 1626.3,297.519 1628.69,304.497 1631.07,303.121 1633.45,303.692 1635.83,300.37 1638.21,296.948 1640.6,297.688 1642.98,293.137 1645.36,290.008 1647.74,288.857 1650.12,286.716 1652.51,285.271 1654.89,284.59 1657.27,282.636 1659.65,279.729 1662.03,279.516 1664.42,278.842 1666.8,276.072 1669.18,276.413 1671.56,273.736 1673.94,271.554 1676.33,271.928 1678.71,268.52 1681.09,266.373 1683.47,264.95 1685.85,261.9 1688.24,260.713 1690.62,259.149 1693,258.406 1695.38,255.828 1697.76,256.553 1700.15,256.336 1702.53,252.307 1704.91,252.516 1707.29,249.197 1709.67,246.529 1712.06,247.09 1714.44,243.64 1716.82,240.957 1719.2,239.42 1721.59,233.916 1723.97,225.709 1726.35,225.007 1728.73,223.632 1731.11,220.321 1733.5,221.122 1735.88,220.248 1738.26,217.638 1740.64,218.461 1743.02,215.223 1745.41,215.813 1747.79,222.537 1750.17,220.402 1752.55,218.426 1754.93,217.99 1757.32,215.825 1759.7,215.528 1762.08,215.041 1764.46,213.305 1766.84,211.922 1769.23,212.293 1771.61,212.409 1773.99,212.249 1776.37,213.648 1778.75,211.621 1781.14,210.834 1783.52,211.486 1785.9,209.797 1788.28,209.024 1790.66,207.949 1793.05,206.999 1795.43,207.171 1797.81,206.358 1800.19,205.264 1802.57,203.539 1804.96,205.484 1807.34,205.27 1809.72,206.806 1812.1,207.845 1814.48,206.581 1816.87,207.143 1819.25,209.9 1821.63,208.909 1824.01,207.237 1826.4,208.438 1828.78,208.7 1831.16,209.417 1833.54,209.902 1835.92,210.46 1838.31,210.562 1840.69,211.132 1843.07,205.372 1845.45,204.888 1847.83,206.968 1850.22,205.375 1852.6,204.716 1854.98,206.645 1857.36,206.494 1859.74,206.175 1862.13,206.583 1864.51,209.261 1866.89,215.906 1869.27,217.681 1871.65,218.047 1874.04,218.029 1876.42,220.711 1878.8,221.953 1881.18,221.931 1883.56,224.299 1885.95,222.438 1888.33,221.871 1890.71,224.199 1893.09,223.235 1895.47,223.673 1897.86,224.753 1900.24,224.994 1902.62,225.503 1905,225.812 1907.38,226.462 1909.77,226.483 1912.15,227.99 1914.53,228.185 1916.91,227.351 1919.29,229.318 1921.68,228.429 1924.06,228.643 1926.44,230.637 1928.82,229.199 1931.21,229.093 1933.59,230.077 1935.97,231.314 1938.35,231.992 1940.73,232.384 1943.12,232.851 1945.5,232.535 1947.88,233.895 1950.26,234.88 1952.64,234.268 1955.03,235.475 1957.41,235.775 1959.79,232.676 1962.17,228.025 1964.55,226.96 1966.94,226.83 1969.32,228.545 1971.7,228.15 1974.08,228.464 1976.46,229.615 1978.85,229.444 1981.23,228.969 1983.61,234.671 1985.99,239.348 1988.37,239.592 1990.76,240.404 1993.14,240.049 1995.52,239.573 1997.9,240.773 2000.28,239.55 2002.67,239.226 2005.05,241.112 2007.43,240.102 2009.81,240.305 2012.19,241.824 2014.58,241.392 2016.96,241.979 2019.34,243.441 2021.72,242.831 2024.1,243.912 2026.49,244.616 2028.87,244.137 2031.25,243.656 2033.63,237.854 2036.02,236.733 2038.4,232.799 2040.78,234.915 2043.16,235.529 2045.54,235.698 2047.93,237.638 2050.31,237.238 2052.69,237.856 2055.07,239.276 2057.45,239.326 2059.84,239.236 2062.22,239.62 2064.6,239.093 2066.98,239.935 2069.36,241.722 2071.75,241.913 2074.13,241.493 2076.51,243.82 2078.89,241.605 2081.27,234.922 2083.66,237.599 2086.04,237.809 2088.42,238.265 2090.8,239.712 2093.18,239.506 2095.57,239.112 2097.95,239.514 2100.33,238.576 2102.71,241.259 2105.09,248.646 2107.48,247.732 2109.86,246.519 2112.24,247.781 2114.62,246.665 2117,245.866 2119.39,246.987 2121.77,246.441 2124.15,245.473 2126.53,246.725 2128.91,245.404 2131.3,244.677 2133.68,244.807 2136.06,243.945 2138.44,243.977 2140.83,243.593 2143.21,242.798 2145.59,241.308 2147.97,242.924 2150.35,242.554 2152.74,242.078 2155.12,242.864 2157.5,243.025 2159.88,243.022 2162.26,243.25 2164.65,242.645 2167.03,240.9 2169.41,241.417 2171.79,240.086 2174.17,239.918 2176.56,239.799 2178.94,238.798 2181.32,239.496 2183.7,239.322 2186.08,239.008 2188.47,238.148 2190.85,238.881 2193.23,238.783 2195.61,238.402 2197.99,237.79 2200.38,232.994 2202.76,234.329 2205.14,235.481 2207.52,235.116 2209.9,235.336 2212.29,234.632 2214.67,234.022 2217.05,232.377 2219.43,232.159 2221.81,233.45 2224.2,239.008 2226.58,240.633 2228.96,239.649 2231.34,238.563 2233.73,238.464 2236.11,236.657 2238.49,235.651 2240.87,235.473 2243.25,233.781 2245.64,232.068 2248.02,231.498 2250.4,230.655 2252.78,230.426 2255.16,230.786 2257.55,231.533 2259.93,230.447 2262.31,232.278 2264.69,231.479 2267.07,231.94 2269.46,233.184 2271.84,232.974 2274.22,233.796 2276.6,235.206 2278.98,235.255 2281.37,236.369 2283.75,237.3 2286.13,237.723 2288.51,238.346 2290.89,238.535 2293.28,239.902 2295.66,241.413 "/>
<path clip-path="url(#clip010)" d="M2031.33 1441.02 L2285.51 1441.02 L2285.51 1337.34 L2031.33 1337.34  Z" fill="#ffffff" fill-rule="evenodd" fill-opacity="1"/>
<polyline clip-path="url(#clip010)" style="stroke:#000000; stroke-linecap:round; stroke-linejoin:round; stroke-width:4; stroke-opacity:1; fill:none" points="2031.33,1441.02 2285.51,1441.02 2285.51,1337.34 2031.33,1337.34 2031.33,1441.02 "/>
<polyline clip-path="url(#clip010)" style="stroke:#009af9; stroke-linecap:round; stroke-linejoin:round; stroke-width:4; stroke-opacity:1; fill:none" points="2053.75,1389.18 2188.25,1389.18 "/>
<path clip-path="url(#clip010)" d="M2224.5 1408.86 Q2222.7 1413.49 2220.99 1414.9 Q2219.27 1416.32 2216.4 1416.32 L2213 1416.32 L2213 1412.75 L2215.5 1412.75 Q2217.26 1412.75 2218.23 1411.92 Q2219.2 1411.08 2220.38 1407.98 L2221.15 1406.04 L2210.66 1380.53 L2215.18 1380.53 L2223.28 1400.81 L2231.38 1380.53 L2235.89 1380.53 L2224.5 1408.86 Z" fill="#000000" fill-rule="nonzero" fill-opacity="1" /><path clip-path="url(#clip010)" d="M2243.18 1402.52 L2250.82 1402.52 L2250.82 1376.15 L2242.51 1377.82 L2242.51 1373.56 L2250.78 1371.9 L2255.45 1371.9 L2255.45 1402.52 L2263.09 1402.52 L2263.09 1406.46 L2243.18 1406.46 L2243.18 1402.52 Z" fill="#000000" fill-rule="nonzero" fill-opacity="1" /></svg>
