<?xml version="1.0" encoding="utf-8"?>
<svg xmlns="http://www.w3.org/2000/svg" xmlns:xlink="http://www.w3.org/1999/xlink" width="600" height="400" viewBox="0 0 2400 1600">
<defs>
  <clipPath id="clip090">
    <rect x="0" y="0" width="2400" height="1600"/>
  </clipPath>
</defs>
<path clip-path="url(#clip090)" d="M0 1600 L2400 1600 L2400 0 L0 0  Z" fill="#ffffff" fill-rule="evenodd" fill-opacity="1"/>
<defs>
  <clipPath id="clip091">
    <rect x="480" y="0" width="1681" height="1600"/>
  </clipPath>
</defs>
<path clip-path="url(#clip090)" d="M335.305 1486.45 L2352.76 1486.45 L2352.76 123.472 L335.305 123.472  Z" fill="#ffffff" fill-rule="evenodd" fill-opacity="1"/>
<defs>
  <clipPath id="clip092">
    <rect x="335" y="123" width="2018" height="1364"/>
  </clipPath>
</defs>
<polyline clip-path="url(#clip092)" style="stroke:#000000; stroke-linecap:round; stroke-linejoin:round; stroke-width:2; stroke-opacity:0.1; fill:none" points="388.771,1486.45 388.771,123.472 "/>
<polyline clip-path="url(#clip092)" style="stroke:#000000; stroke-linecap:round; stroke-linejoin:round; stroke-width:2; stroke-opacity:0.1; fill:none" points="751.987,1486.45 751.987,123.472 "/>
<polyline clip-path="url(#clip092)" style="stroke:#000000; stroke-linecap:round; stroke-linejoin:round; stroke-width:2; stroke-opacity:0.1; fill:none" points="1115.2,1486.45 1115.2,123.472 "/>
<polyline clip-path="url(#clip092)" style="stroke:#000000; stroke-linecap:round; stroke-linejoin:round; stroke-width:2; stroke-opacity:0.1; fill:none" points="1478.42,1486.45 1478.42,123.472 "/>
<polyline clip-path="url(#clip092)" style="stroke:#000000; stroke-linecap:round; stroke-linejoin:round; stroke-width:2; stroke-opacity:0.1; fill:none" points="1841.64,1486.45 1841.64,123.472 "/>
<polyline clip-path="url(#clip092)" style="stroke:#000000; stroke-linecap:round; stroke-linejoin:round; stroke-width:2; stroke-opacity:0.1; fill:none" points="2204.85,1486.45 2204.85,123.472 "/>
<polyline clip-path="url(#clip090)" style="stroke:#000000; stroke-linecap:round; stroke-linejoin:round; stroke-width:4; stroke-opacity:1; fill:none" points="335.305,1486.45 2352.76,1486.45 "/>
<polyline clip-path="url(#clip090)" style="stroke:#000000; stroke-linecap:round; stroke-linejoin:round; stroke-width:4; stroke-opacity:1; fill:none" points="388.771,1486.45 388.771,1467.55 "/>
<polyline clip-path="url(#clip090)" style="stroke:#000000; stroke-linecap:round; stroke-linejoin:round; stroke-width:4; stroke-opacity:1; fill:none" points="751.987,1486.45 751.987,1467.55 "/>
<polyline clip-path="url(#clip090)" style="stroke:#000000; stroke-linecap:round; stroke-linejoin:round; stroke-width:4; stroke-opacity:1; fill:none" points="1115.2,1486.45 1115.2,1467.55 "/>
<polyline clip-path="url(#clip090)" style="stroke:#000000; stroke-linecap:round; stroke-linejoin:round; stroke-width:4; stroke-opacity:1; fill:none" points="1478.42,1486.45 1478.42,1467.55 "/>
<polyline clip-path="url(#clip090)" style="stroke:#000000; stroke-linecap:round; stroke-linejoin:round; stroke-width:4; stroke-opacity:1; fill:none" points="1841.64,1486.45 1841.64,1467.55 "/>
<polyline clip-path="url(#clip090)" style="stroke:#000000; stroke-linecap:round; stroke-linejoin:round; stroke-width:4; stroke-opacity:1; fill:none" points="2204.85,1486.45 2204.85,1467.55 "/>
<path clip-path="url(#clip090)" d="M388.771 1517.37 Q385.16 1517.37 383.331 1520.93 Q381.525 1524.47 381.525 1531.6 Q381.525 1538.71 383.331 1542.27 Q385.16 1545.82 388.771 1545.82 Q392.405 1545.82 394.211 1542.27 Q396.039 1538.71 396.039 1531.6 Q396.039 1524.47 394.211 1520.93 Q392.405 1517.37 388.771 1517.37 M388.771 1513.66 Q394.581 1513.66 397.637 1518.27 Q400.715 1522.85 400.715 1531.6 Q400.715 1540.33 397.637 1544.94 Q394.581 1549.52 388.771 1549.52 Q382.961 1549.52 379.882 1544.94 Q376.826 1540.33 376.826 1531.6 Q376.826 1522.85 379.882 1518.27 Q382.961 1513.66 388.771 1513.66 Z" fill="#000000" fill-rule="nonzero" fill-opacity="1" /><path clip-path="url(#clip090)" d="M711.594 1544.91 L719.233 1544.91 L719.233 1518.55 L710.923 1520.21 L710.923 1515.95 L719.187 1514.29 L723.863 1514.29 L723.863 1544.91 L731.501 1544.91 L731.501 1548.85 L711.594 1548.85 L711.594 1544.91 Z" fill="#000000" fill-rule="nonzero" fill-opacity="1" /><path clip-path="url(#clip090)" d="M750.946 1517.37 Q747.335 1517.37 745.506 1520.93 Q743.7 1524.47 743.7 1531.6 Q743.7 1538.71 745.506 1542.27 Q747.335 1545.82 750.946 1545.82 Q754.58 1545.82 756.386 1542.27 Q758.214 1538.71 758.214 1531.6 Q758.214 1524.47 756.386 1520.93 Q754.58 1517.37 750.946 1517.37 M750.946 1513.66 Q756.756 1513.66 759.811 1518.27 Q762.89 1522.85 762.89 1531.6 Q762.89 1540.33 759.811 1544.94 Q756.756 1549.52 750.946 1549.52 Q745.136 1549.52 742.057 1544.94 Q739.001 1540.33 739.001 1531.6 Q739.001 1522.85 742.057 1518.27 Q745.136 1513.66 750.946 1513.66 Z" fill="#000000" fill-rule="nonzero" fill-opacity="1" /><path clip-path="url(#clip090)" d="M781.108 1517.37 Q777.497 1517.37 775.668 1520.93 Q773.862 1524.47 773.862 1531.6 Q773.862 1538.71 775.668 1542.27 Q777.497 1545.82 781.108 1545.82 Q784.742 1545.82 786.547 1542.27 Q788.376 1538.71 788.376 1531.6 Q788.376 1524.47 786.547 1520.93 Q784.742 1517.37 781.108 1517.37 M781.108 1513.66 Q786.918 1513.66 789.973 1518.27 Q793.052 1522.85 793.052 1531.6 Q793.052 1540.33 789.973 1544.94 Q786.918 1549.52 781.108 1549.52 Q775.298 1549.52 772.219 1544.94 Q769.163 1540.33 769.163 1531.6 Q769.163 1522.85 772.219 1518.27 Q775.298 1513.66 781.108 1513.66 Z" fill="#000000" fill-rule="nonzero" fill-opacity="1" /><path clip-path="url(#clip090)" d="M1078.9 1544.91 L1095.22 1544.91 L1095.22 1548.85 L1073.27 1548.85 L1073.27 1544.91 Q1075.93 1542.16 1080.52 1537.53 Q1085.12 1532.88 1086.3 1531.53 Q1088.55 1529.01 1089.43 1527.27 Q1090.33 1525.51 1090.33 1523.82 Q1090.33 1521.07 1088.39 1519.33 Q1086.47 1517.6 1083.36 1517.6 Q1081.16 1517.6 1078.71 1518.36 Q1076.28 1519.13 1073.5 1520.68 L1073.5 1515.95 Q1076.33 1514.82 1078.78 1514.24 Q1081.23 1513.66 1083.27 1513.66 Q1088.64 1513.66 1091.84 1516.35 Q1095.03 1519.03 1095.03 1523.52 Q1095.03 1525.65 1094.22 1527.57 Q1093.43 1529.47 1091.33 1532.07 Q1090.75 1532.74 1087.65 1535.95 Q1084.54 1539.15 1078.9 1544.91 Z" fill="#000000" fill-rule="nonzero" fill-opacity="1" /><path clip-path="url(#clip090)" d="M1115.03 1517.37 Q1111.42 1517.37 1109.59 1520.93 Q1107.79 1524.47 1107.79 1531.6 Q1107.79 1538.71 1109.59 1542.27 Q1111.42 1545.82 1115.03 1545.82 Q1118.66 1545.82 1120.47 1542.27 Q1122.3 1538.71 1122.3 1531.6 Q1122.3 1524.47 1120.47 1520.93 Q1118.66 1517.37 1115.03 1517.37 M1115.03 1513.66 Q1120.84 1513.66 1123.9 1518.27 Q1126.97 1522.85 1126.97 1531.6 Q1126.97 1540.33 1123.9 1544.94 Q1120.84 1549.52 1115.03 1549.52 Q1109.22 1549.52 1106.14 1544.94 Q1103.09 1540.33 1103.09 1531.6 Q1103.09 1522.85 1106.14 1518.27 Q1109.22 1513.66 1115.03 1513.66 Z" fill="#000000" fill-rule="nonzero" fill-opacity="1" /><path clip-path="url(#clip090)" d="M1145.19 1517.37 Q1141.58 1517.37 1139.75 1520.93 Q1137.95 1524.47 1137.95 1531.6 Q1137.95 1538.71 1139.75 1542.27 Q1141.58 1545.82 1145.19 1545.82 Q1148.83 1545.82 1150.63 1542.27 Q1152.46 1538.71 1152.46 1531.6 Q1152.46 1524.47 1150.63 1520.93 Q1148.83 1517.37 1145.19 1517.37 M1145.19 1513.66 Q1151 1513.66 1154.06 1518.27 Q1157.14 1522.85 1157.14 1531.6 Q1157.14 1540.33 1154.06 1544.94 Q1151 1549.52 1145.19 1549.52 Q1139.38 1549.52 1136.3 1544.94 Q1133.25 1540.33 1133.25 1531.6 Q1133.25 1522.85 1136.3 1518.27 Q1139.38 1513.66 1145.19 1513.66 Z" fill="#000000" fill-rule="nonzero" fill-opacity="1" /><path clip-path="url(#clip090)" d="M1452.18 1530.21 Q1455.54 1530.93 1457.41 1533.2 Q1459.31 1535.47 1459.31 1538.8 Q1459.31 1543.92 1455.79 1546.72 Q1452.28 1549.52 1445.79 1549.52 Q1443.62 1549.52 1441.3 1549.08 Q1439.01 1548.66 1436.56 1547.81 L1436.56 1543.29 Q1438.5 1544.43 1440.82 1545.01 Q1443.13 1545.58 1445.65 1545.58 Q1450.05 1545.58 1452.34 1543.85 Q1454.66 1542.11 1454.66 1538.8 Q1454.66 1535.75 1452.51 1534.03 Q1450.38 1532.3 1446.56 1532.3 L1442.53 1532.3 L1442.53 1528.45 L1446.74 1528.45 Q1450.19 1528.45 1452.02 1527.09 Q1453.85 1525.7 1453.85 1523.11 Q1453.85 1520.45 1451.95 1519.03 Q1450.08 1517.6 1446.56 1517.6 Q1444.64 1517.6 1442.44 1518.01 Q1440.24 1518.43 1437.6 1519.31 L1437.6 1515.14 Q1440.26 1514.4 1442.58 1514.03 Q1444.91 1513.66 1446.97 1513.66 Q1452.3 1513.66 1455.4 1516.09 Q1458.5 1518.5 1458.5 1522.62 Q1458.5 1525.49 1456.86 1527.48 Q1455.21 1529.45 1452.18 1530.21 Z" fill="#000000" fill-rule="nonzero" fill-opacity="1" /><path clip-path="url(#clip090)" d="M1478.18 1517.37 Q1474.57 1517.37 1472.74 1520.93 Q1470.93 1524.47 1470.93 1531.6 Q1470.93 1538.71 1472.74 1542.27 Q1474.57 1545.82 1478.18 1545.82 Q1481.81 1545.82 1483.62 1542.27 Q1485.45 1538.71 1485.45 1531.6 Q1485.45 1524.47 1483.62 1520.93 Q1481.81 1517.37 1478.18 1517.37 M1478.18 1513.66 Q1483.99 1513.66 1487.04 1518.27 Q1490.12 1522.85 1490.12 1531.6 Q1490.12 1540.33 1487.04 1544.94 Q1483.99 1549.52 1478.18 1549.52 Q1472.37 1549.52 1469.29 1544.94 Q1466.23 1540.33 1466.23 1531.6 Q1466.23 1522.85 1469.29 1518.27 Q1472.37 1513.66 1478.18 1513.66 Z" fill="#000000" fill-rule="nonzero" fill-opacity="1" /><path clip-path="url(#clip090)" d="M1508.34 1517.37 Q1504.73 1517.37 1502.9 1520.93 Q1501.09 1524.47 1501.09 1531.6 Q1501.09 1538.71 1502.9 1542.27 Q1504.73 1545.82 1508.34 1545.82 Q1511.97 1545.82 1513.78 1542.27 Q1515.61 1538.71 1515.61 1531.6 Q1515.61 1524.47 1513.78 1520.93 Q1511.97 1517.37 1508.34 1517.37 M1508.34 1513.66 Q1514.15 1513.66 1517.21 1518.27 Q1520.28 1522.85 1520.28 1531.6 Q1520.28 1540.33 1517.21 1544.94 Q1514.15 1549.52 1508.34 1549.52 Q1502.53 1549.52 1499.45 1544.94 Q1496.4 1540.33 1496.4 1531.6 Q1496.4 1522.85 1499.45 1518.27 Q1502.53 1513.66 1508.34 1513.66 Z" fill="#000000" fill-rule="nonzero" fill-opacity="1" /><path clip-path="url(#clip090)" d="M1814.73 1518.36 L1802.92 1536.81 L1814.73 1536.81 L1814.73 1518.36 M1813.5 1514.29 L1819.38 1514.29 L1819.38 1536.81 L1824.31 1536.81 L1824.31 1540.7 L1819.38 1540.7 L1819.38 1548.85 L1814.73 1548.85 L1814.73 1540.7 L1799.13 1540.7 L1799.13 1536.19 L1813.5 1514.29 Z" fill="#000000" fill-rule="nonzero" fill-opacity="1" /><path clip-path="url(#clip090)" d="M1842.04 1517.37 Q1838.43 1517.37 1836.6 1520.93 Q1834.8 1524.47 1834.8 1531.6 Q1834.8 1538.71 1836.6 1542.27 Q1838.43 1545.82 1842.04 1545.82 Q1845.68 1545.82 1847.48 1542.27 Q1849.31 1538.71 1849.31 1531.6 Q1849.31 1524.47 1847.48 1520.93 Q1845.68 1517.37 1842.04 1517.37 M1842.04 1513.66 Q1847.85 1513.66 1850.91 1518.27 Q1853.99 1522.85 1853.99 1531.6 Q1853.99 1540.33 1850.91 1544.94 Q1847.85 1549.52 1842.04 1549.52 Q1836.23 1549.52 1833.15 1544.94 Q1830.1 1540.33 1830.1 1531.6 Q1830.1 1522.85 1833.15 1518.27 Q1836.23 1513.66 1842.04 1513.66 Z" fill="#000000" fill-rule="nonzero" fill-opacity="1" /><path clip-path="url(#clip090)" d="M1872.2 1517.37 Q1868.59 1517.37 1866.76 1520.93 Q1864.96 1524.47 1864.96 1531.6 Q1864.96 1538.71 1866.76 1542.27 Q1868.59 1545.82 1872.2 1545.82 Q1875.84 1545.82 1877.64 1542.27 Q1879.47 1538.71 1879.47 1531.6 Q1879.47 1524.47 1877.64 1520.93 Q1875.84 1517.37 1872.2 1517.37 M1872.2 1513.66 Q1878.01 1513.66 1881.07 1518.27 Q1884.15 1522.85 1884.15 1531.6 Q1884.15 1540.33 1881.07 1544.94 Q1878.01 1549.52 1872.2 1549.52 Q1866.39 1549.52 1863.32 1544.94 Q1860.26 1540.33 1860.26 1531.6 Q1860.26 1522.85 1863.32 1518.27 Q1866.39 1513.66 1872.2 1513.66 Z" fill="#000000" fill-rule="nonzero" fill-opacity="1" /><path clip-path="url(#clip090)" d="M2164.47 1514.29 L2182.83 1514.29 L2182.83 1518.22 L2168.75 1518.22 L2168.75 1526.7 Q2169.77 1526.35 2170.79 1526.19 Q2171.81 1526 2172.83 1526 Q2178.62 1526 2182 1529.17 Q2185.38 1532.34 2185.38 1537.76 Q2185.38 1543.34 2181.9 1546.44 Q2178.43 1549.52 2172.11 1549.52 Q2169.94 1549.52 2167.67 1549.15 Q2165.42 1548.78 2163.01 1548.04 L2163.01 1543.34 Q2165.1 1544.47 2167.32 1545.03 Q2169.54 1545.58 2172.02 1545.58 Q2176.02 1545.58 2178.36 1543.48 Q2180.7 1541.37 2180.7 1537.76 Q2180.7 1534.15 2178.36 1532.04 Q2176.02 1529.94 2172.02 1529.94 Q2170.14 1529.94 2168.27 1530.35 Q2166.42 1530.77 2164.47 1531.65 L2164.47 1514.29 Z" fill="#000000" fill-rule="nonzero" fill-opacity="1" /><path clip-path="url(#clip090)" d="M2204.59 1517.37 Q2200.98 1517.37 2199.15 1520.93 Q2197.34 1524.47 2197.34 1531.6 Q2197.34 1538.71 2199.15 1542.27 Q2200.98 1545.82 2204.59 1545.82 Q2208.22 1545.82 2210.03 1542.27 Q2211.86 1538.71 2211.86 1531.6 Q2211.86 1524.47 2210.03 1520.93 Q2208.22 1517.37 2204.59 1517.37 M2204.59 1513.66 Q2210.4 1513.66 2213.45 1518.27 Q2216.53 1522.85 2216.53 1531.6 Q2216.53 1540.33 2213.45 1544.94 Q2210.4 1549.52 2204.59 1549.52 Q2198.78 1549.52 2195.7 1544.94 Q2192.64 1540.33 2192.64 1531.6 Q2192.64 1522.85 2195.7 1518.27 Q2198.78 1513.66 2204.59 1513.66 Z" fill="#000000" fill-rule="nonzero" fill-opacity="1" /><path clip-path="url(#clip090)" d="M2234.75 1517.37 Q2231.14 1517.37 2229.31 1520.93 Q2227.5 1524.47 2227.5 1531.6 Q2227.5 1538.71 2229.31 1542.27 Q2231.14 1545.82 2234.75 1545.82 Q2238.38 1545.82 2240.19 1542.27 Q2242.02 1538.71 2242.02 1531.6 Q2242.02 1524.47 2240.19 1520.93 Q2238.38 1517.37 2234.75 1517.37 M2234.75 1513.66 Q2240.56 1513.66 2243.62 1518.27 Q2246.69 1522.85 2246.69 1531.6 Q2246.69 1540.33 2243.62 1544.94 Q2240.56 1549.52 2234.75 1549.52 Q2228.94 1549.52 2225.86 1544.94 Q2222.81 1540.33 2222.81 1531.6 Q2222.81 1522.85 2225.86 1518.27 Q2228.94 1513.66 2234.75 1513.66 Z" fill="#000000" fill-rule="nonzero" fill-opacity="1" /><polyline clip-path="url(#clip092)" style="stroke:#000000; stroke-linecap:round; stroke-linejoin:round; stroke-width:2; stroke-opacity:0.1; fill:none" points="335.305,1424.75 2352.76,1424.75 "/>
<polyline clip-path="url(#clip092)" style="stroke:#000000; stroke-linecap:round; stroke-linejoin:round; stroke-width:2; stroke-opacity:0.1; fill:none" points="335.305,1192.5 2352.76,1192.5 "/>
<polyline clip-path="url(#clip092)" style="stroke:#000000; stroke-linecap:round; stroke-linejoin:round; stroke-width:2; stroke-opacity:0.1; fill:none" points="335.305,960.246 2352.76,960.246 "/>
<polyline clip-path="url(#clip092)" style="stroke:#000000; stroke-linecap:round; stroke-linejoin:round; stroke-width:2; stroke-opacity:0.1; fill:none" points="335.305,727.992 2352.76,727.992 "/>
<polyline clip-path="url(#clip092)" style="stroke:#000000; stroke-linecap:round; stroke-linejoin:round; stroke-width:2; stroke-opacity:0.1; fill:none" points="335.305,495.739 2352.76,495.739 "/>
<polyline clip-path="url(#clip092)" style="stroke:#000000; stroke-linecap:round; stroke-linejoin:round; stroke-width:2; stroke-opacity:0.1; fill:none" points="335.305,263.485 2352.76,263.485 "/>
<polyline clip-path="url(#clip090)" style="stroke:#000000; stroke-linecap:round; stroke-linejoin:round; stroke-width:4; stroke-opacity:1; fill:none" points="335.305,1486.45 335.305,123.472 "/>
<polyline clip-path="url(#clip090)" style="stroke:#000000; stroke-linecap:round; stroke-linejoin:round; stroke-width:4; stroke-opacity:1; fill:none" points="335.305,1424.75 354.203,1424.75 "/>
<polyline clip-path="url(#clip090)" style="stroke:#000000; stroke-linecap:round; stroke-linejoin:round; stroke-width:4; stroke-opacity:1; fill:none" points="335.305,1192.5 354.203,1192.5 "/>
<polyline clip-path="url(#clip090)" style="stroke:#000000; stroke-linecap:round; stroke-linejoin:round; stroke-width:4; stroke-opacity:1; fill:none" points="335.305,960.246 354.203,960.246 "/>
<polyline clip-path="url(#clip090)" style="stroke:#000000; stroke-linecap:round; stroke-linejoin:round; stroke-width:4; stroke-opacity:1; fill:none" points="335.305,727.992 354.203,727.992 "/>
<polyline clip-path="url(#clip090)" style="stroke:#000000; stroke-linecap:round; stroke-linejoin:round; stroke-width:4; stroke-opacity:1; fill:none" points="335.305,495.739 354.203,495.739 "/>
<polyline clip-path="url(#clip090)" style="stroke:#000000; stroke-linecap:round; stroke-linejoin:round; stroke-width:4; stroke-opacity:1; fill:none" points="335.305,263.485 354.203,263.485 "/>
<path clip-path="url(#clip090)" d="M53.3995 1444.55 L61.0384 1444.55 L61.0384 1418.18 L52.7282 1419.85 L52.7282 1415.59 L60.9921 1413.92 L65.668 1413.92 L65.668 1444.55 L73.3068 1444.55 L73.3068 1448.48 L53.3995 1448.48 L53.3995 1444.55 Z" fill="#000000" fill-rule="nonzero" fill-opacity="1" /><path clip-path="url(#clip090)" d="M82.7512 1442.6 L87.6354 1442.6 L87.6354 1448.48 L82.7512 1448.48 L82.7512 1442.6 Z" fill="#000000" fill-rule="nonzero" fill-opacity="1" /><path clip-path="url(#clip090)" d="M107.821 1417 Q104.209 1417 102.381 1420.56 Q100.575 1424.11 100.575 1431.24 Q100.575 1438.34 102.381 1441.91 Q104.209 1445.45 107.821 1445.45 Q111.455 1445.45 113.26 1441.91 Q115.089 1438.34 115.089 1431.24 Q115.089 1424.11 113.26 1420.56 Q111.455 1417 107.821 1417 M107.821 1413.3 Q113.631 1413.3 116.686 1417.9 Q119.765 1422.49 119.765 1431.24 Q119.765 1439.96 116.686 1444.57 Q113.631 1449.15 107.821 1449.15 Q102.01 1449.15 98.9317 1444.57 Q95.8761 1439.96 95.8761 1431.24 Q95.8761 1422.49 98.9317 1417.9 Q102.01 1413.3 107.821 1413.3 Z" fill="#000000" fill-rule="nonzero" fill-opacity="1" /><path clip-path="url(#clip090)" d="M137.982 1417 Q134.371 1417 132.543 1420.56 Q130.737 1424.11 130.737 1431.24 Q130.737 1438.34 132.543 1441.91 Q134.371 1445.45 137.982 1445.45 Q141.617 1445.45 143.422 1441.91 Q145.251 1438.34 145.251 1431.24 Q145.251 1424.11 143.422 1420.56 Q141.617 1417 137.982 1417 M137.982 1413.3 Q143.793 1413.3 146.848 1417.9 Q149.927 1422.49 149.927 1431.24 Q149.927 1439.96 146.848 1444.57 Q143.793 1449.15 137.982 1449.15 Q132.172 1449.15 129.094 1444.57 Q126.038 1439.96 126.038 1431.24 Q126.038 1422.49 129.094 1417.9 Q132.172 1413.3 137.982 1413.3 Z" fill="#000000" fill-rule="nonzero" fill-opacity="1" /><path clip-path="url(#clip090)" d="M186.315 1423.02 L175.737 1433.64 L186.315 1444.22 L183.561 1447.02 L172.936 1436.4 L162.311 1447.02 L159.58 1444.22 L170.135 1433.64 L159.58 1423.02 L162.311 1420.22 L172.936 1430.84 L183.561 1420.22 L186.315 1423.02 Z" fill="#000000" fill-rule="nonzero" fill-opacity="1" /><path clip-path="url(#clip090)" d="M198.677 1444.55 L206.315 1444.55 L206.315 1418.18 L198.005 1419.85 L198.005 1415.59 L206.269 1413.92 L210.945 1413.92 L210.945 1444.55 L218.584 1444.55 L218.584 1448.48 L198.677 1448.48 L198.677 1444.55 Z" fill="#000000" fill-rule="nonzero" fill-opacity="1" /><path clip-path="url(#clip090)" d="M238.028 1417 Q234.417 1417 232.588 1420.56 Q230.783 1424.11 230.783 1431.24 Q230.783 1438.34 232.588 1441.91 Q234.417 1445.45 238.028 1445.45 Q241.662 1445.45 243.468 1441.91 Q245.297 1438.34 245.297 1431.24 Q245.297 1424.11 243.468 1420.56 Q241.662 1417 238.028 1417 M238.028 1413.3 Q243.838 1413.3 246.894 1417.9 Q249.973 1422.49 249.973 1431.24 Q249.973 1439.96 246.894 1444.57 Q243.838 1449.15 238.028 1449.15 Q232.218 1449.15 229.139 1444.57 Q226.084 1439.96 226.084 1431.24 Q226.084 1422.49 229.139 1417.9 Q232.218 1413.3 238.028 1413.3 Z" fill="#000000" fill-rule="nonzero" fill-opacity="1" /><path clip-path="url(#clip090)" d="M249.973 1407.4 L274.084 1407.4 L274.084 1410.59 L249.973 1410.59 L249.973 1407.4 Z" fill="#000000" fill-rule="nonzero" fill-opacity="1" /><path clip-path="url(#clip090)" d="M282.322 1392.99 L297.236 1392.99 L297.236 1396.19 L285.801 1396.19 L285.801 1403.07 Q286.629 1402.79 287.456 1402.66 Q288.284 1402.51 289.112 1402.51 Q293.813 1402.51 296.559 1405.08 Q299.305 1407.66 299.305 1412.06 Q299.305 1416.59 296.484 1419.11 Q293.663 1421.62 288.528 1421.62 Q286.761 1421.62 284.917 1421.32 Q283.093 1421.01 281.137 1420.41 L281.137 1416.59 Q282.83 1417.52 284.635 1417.97 Q286.441 1418.42 288.453 1418.42 Q291.707 1418.42 293.607 1416.71 Q295.506 1415 295.506 1412.06 Q295.506 1409.13 293.607 1407.42 Q291.707 1405.7 288.453 1405.7 Q286.93 1405.7 285.406 1406.04 Q283.902 1406.38 282.322 1407.1 L282.322 1392.99 Z" fill="#000000" fill-rule="nonzero" fill-opacity="1" /><path clip-path="url(#clip090)" d="M53.3995 1212.29 L61.0384 1212.29 L61.0384 1185.93 L52.7282 1187.59 L52.7282 1183.33 L60.9921 1181.67 L65.668 1181.67 L65.668 1212.29 L73.3068 1212.29 L73.3068 1216.23 L53.3995 1216.23 L53.3995 1212.29 Z" fill="#000000" fill-rule="nonzero" fill-opacity="1" /><path clip-path="url(#clip090)" d="M82.7512 1210.35 L87.6354 1210.35 L87.6354 1216.23 L82.7512 1216.23 L82.7512 1210.35 Z" fill="#000000" fill-rule="nonzero" fill-opacity="1" /><path clip-path="url(#clip090)" d="M97.8669 1181.67 L116.223 1181.67 L116.223 1185.6 L102.149 1185.6 L102.149 1194.07 Q103.168 1193.73 104.186 1193.57 Q105.205 1193.38 106.223 1193.38 Q112.01 1193.38 115.39 1196.55 Q118.77 1199.72 118.77 1205.14 Q118.77 1210.72 115.297 1213.82 Q111.825 1216.9 105.506 1216.9 Q103.33 1216.9 101.061 1216.53 Q98.8159 1216.16 96.4085 1215.42 L96.4085 1210.72 Q98.4919 1211.85 100.714 1212.41 Q102.936 1212.96 105.413 1212.96 Q109.418 1212.96 111.756 1210.86 Q114.094 1208.75 114.094 1205.14 Q114.094 1201.53 111.756 1199.42 Q109.418 1197.32 105.413 1197.32 Q103.538 1197.32 101.663 1197.73 Q99.8113 1198.15 97.8669 1199.03 L97.8669 1181.67 Z" fill="#000000" fill-rule="nonzero" fill-opacity="1" /><path clip-path="url(#clip090)" d="M137.982 1184.75 Q134.371 1184.75 132.543 1188.31 Q130.737 1191.85 130.737 1198.98 Q130.737 1206.09 132.543 1209.65 Q134.371 1213.2 137.982 1213.2 Q141.617 1213.2 143.422 1209.65 Q145.251 1206.09 145.251 1198.98 Q145.251 1191.85 143.422 1188.31 Q141.617 1184.75 137.982 1184.75 M137.982 1181.04 Q143.793 1181.04 146.848 1185.65 Q149.927 1190.23 149.927 1198.98 Q149.927 1207.71 146.848 1212.32 Q143.793 1216.9 137.982 1216.9 Q132.172 1216.9 129.094 1212.32 Q126.038 1207.71 126.038 1198.98 Q126.038 1190.23 129.094 1185.65 Q132.172 1181.04 137.982 1181.04 Z" fill="#000000" fill-rule="nonzero" fill-opacity="1" /><path clip-path="url(#clip090)" d="M186.315 1190.76 L175.737 1201.39 L186.315 1211.97 L183.561 1214.77 L172.936 1204.14 L162.311 1214.77 L159.58 1211.97 L170.135 1201.39 L159.58 1190.76 L162.311 1187.96 L172.936 1198.59 L183.561 1187.96 L186.315 1190.76 Z" fill="#000000" fill-rule="nonzero" fill-opacity="1" /><path clip-path="url(#clip090)" d="M198.677 1212.29 L206.315 1212.29 L206.315 1185.93 L198.005 1187.59 L198.005 1183.33 L206.269 1181.67 L210.945 1181.67 L210.945 1212.29 L218.584 1212.29 L218.584 1216.23 L198.677 1216.23 L198.677 1212.29 Z" fill="#000000" fill-rule="nonzero" fill-opacity="1" /><path clip-path="url(#clip090)" d="M238.028 1184.75 Q234.417 1184.75 232.588 1188.31 Q230.783 1191.85 230.783 1198.98 Q230.783 1206.09 232.588 1209.65 Q234.417 1213.2 238.028 1213.2 Q241.662 1213.2 243.468 1209.65 Q245.297 1206.09 245.297 1198.98 Q245.297 1191.85 243.468 1188.31 Q241.662 1184.75 238.028 1184.75 M238.028 1181.04 Q243.838 1181.04 246.894 1185.65 Q249.973 1190.23 249.973 1198.98 Q249.973 1207.71 246.894 1212.32 Q243.838 1216.9 238.028 1216.9 Q232.218 1216.9 229.139 1212.32 Q226.084 1207.71 226.084 1198.98 Q226.084 1190.23 229.139 1185.65 Q232.218 1181.04 238.028 1181.04 Z" fill="#000000" fill-rule="nonzero" fill-opacity="1" /><path clip-path="url(#clip090)" d="M249.973 1175.14 L274.084 1175.14 L274.084 1178.34 L249.973 1178.34 L249.973 1175.14 Z" fill="#000000" fill-rule="nonzero" fill-opacity="1" /><path clip-path="url(#clip090)" d="M282.322 1160.74 L297.236 1160.74 L297.236 1163.93 L285.801 1163.93 L285.801 1170.82 Q286.629 1170.54 287.456 1170.4 Q288.284 1170.25 289.112 1170.25 Q293.813 1170.25 296.559 1172.83 Q299.305 1175.41 299.305 1179.81 Q299.305 1184.34 296.484 1186.86 Q293.663 1189.36 288.528 1189.36 Q286.761 1189.36 284.917 1189.06 Q283.093 1188.76 281.137 1188.16 L281.137 1184.34 Q282.83 1185.26 284.635 1185.71 Q286.441 1186.17 288.453 1186.17 Q291.707 1186.17 293.607 1184.45 Q295.506 1182.74 295.506 1179.81 Q295.506 1176.87 293.607 1175.16 Q291.707 1173.45 288.453 1173.45 Q286.93 1173.45 285.406 1173.79 Q283.902 1174.13 282.322 1174.84 L282.322 1160.74 Z" fill="#000000" fill-rule="nonzero" fill-opacity="1" /><path clip-path="url(#clip090)" d="M56.6171 980.039 L72.9365 980.039 L72.9365 983.974 L50.9921 983.974 L50.9921 980.039 Q53.6541 977.284 58.2375 972.654 Q62.8439 968.002 64.0245 966.659 Q66.2698 964.136 67.1494 962.4 Q68.0522 960.641 68.0522 958.951 Q68.0522 956.196 66.1078 954.46 Q64.1865 952.724 61.0847 952.724 Q58.8856 952.724 56.4319 953.488 Q54.0014 954.252 51.2236 955.803 L51.2236 951.08 Q54.0477 949.946 56.5014 949.367 Q58.955 948.789 60.9921 948.789 Q66.3624 948.789 69.5568 951.474 Q72.7513 954.159 72.7513 958.65 Q72.7513 960.779 71.9411 962.701 Q71.1541 964.599 69.0476 967.191 Q68.4689 967.863 65.367 971.08 Q62.2652 974.275 56.6171 980.039 Z" fill="#000000" fill-rule="nonzero" fill-opacity="1" /><path clip-path="url(#clip090)" d="M82.7512 978.094 L87.6354 978.094 L87.6354 983.974 L82.7512 983.974 L82.7512 978.094 Z" fill="#000000" fill-rule="nonzero" fill-opacity="1" /><path clip-path="url(#clip090)" d="M107.821 952.492 Q104.209 952.492 102.381 956.057 Q100.575 959.599 100.575 966.728 Q100.575 973.835 102.381 977.4 Q104.209 980.941 107.821 980.941 Q111.455 980.941 113.26 977.4 Q115.089 973.835 115.089 966.728 Q115.089 959.599 113.26 956.057 Q111.455 952.492 107.821 952.492 M107.821 948.789 Q113.631 948.789 116.686 953.395 Q119.765 957.979 119.765 966.728 Q119.765 975.455 116.686 980.062 Q113.631 984.645 107.821 984.645 Q102.01 984.645 98.9317 980.062 Q95.8761 975.455 95.8761 966.728 Q95.8761 957.979 98.9317 953.395 Q102.01 948.789 107.821 948.789 Z" fill="#000000" fill-rule="nonzero" fill-opacity="1" /><path clip-path="url(#clip090)" d="M137.982 952.492 Q134.371 952.492 132.543 956.057 Q130.737 959.599 130.737 966.728 Q130.737 973.835 132.543 977.4 Q134.371 980.941 137.982 980.941 Q141.617 980.941 143.422 977.4 Q145.251 973.835 145.251 966.728 Q145.251 959.599 143.422 956.057 Q141.617 952.492 137.982 952.492 M137.982 948.789 Q143.793 948.789 146.848 953.395 Q149.927 957.979 149.927 966.728 Q149.927 975.455 146.848 980.062 Q143.793 984.645 137.982 984.645 Q132.172 984.645 129.094 980.062 Q126.038 975.455 126.038 966.728 Q126.038 957.979 129.094 953.395 Q132.172 948.789 137.982 948.789 Z" fill="#000000" fill-rule="nonzero" fill-opacity="1" /><path clip-path="url(#clip090)" d="M186.315 958.511 L175.737 969.136 L186.315 979.715 L183.561 982.515 L172.936 971.89 L162.311 982.515 L159.58 979.715 L170.135 969.136 L159.58 958.511 L162.311 955.71 L172.936 966.335 L183.561 955.71 L186.315 958.511 Z" fill="#000000" fill-rule="nonzero" fill-opacity="1" /><path clip-path="url(#clip090)" d="M198.677 980.039 L206.315 980.039 L206.315 953.673 L198.005 955.34 L198.005 951.08 L206.269 949.414 L210.945 949.414 L210.945 980.039 L218.584 980.039 L218.584 983.974 L198.677 983.974 L198.677 980.039 Z" fill="#000000" fill-rule="nonzero" fill-opacity="1" /><path clip-path="url(#clip090)" d="M238.028 952.492 Q234.417 952.492 232.588 956.057 Q230.783 959.599 230.783 966.728 Q230.783 973.835 232.588 977.4 Q234.417 980.941 238.028 980.941 Q241.662 980.941 243.468 977.4 Q245.297 973.835 245.297 966.728 Q245.297 959.599 243.468 956.057 Q241.662 952.492 238.028 952.492 M238.028 948.789 Q243.838 948.789 246.894 953.395 Q249.973 957.979 249.973 966.728 Q249.973 975.455 246.894 980.062 Q243.838 984.645 238.028 984.645 Q232.218 984.645 229.139 980.062 Q226.084 975.455 226.084 966.728 Q226.084 957.979 229.139 953.395 Q232.218 948.789 238.028 948.789 Z" fill="#000000" fill-rule="nonzero" fill-opacity="1" /><path clip-path="url(#clip090)" d="M249.973 942.89 L274.084 942.89 L274.084 946.087 L249.973 946.087 L249.973 942.89 Z" fill="#000000" fill-rule="nonzero" fill-opacity="1" /><path clip-path="url(#clip090)" d="M282.322 928.483 L297.236 928.483 L297.236 931.681 L285.801 931.681 L285.801 938.564 Q286.629 938.282 287.456 938.151 Q288.284 938 289.112 938 Q293.813 938 296.559 940.577 Q299.305 943.153 299.305 947.554 Q299.305 952.087 296.484 954.607 Q293.663 957.109 288.528 957.109 Q286.761 957.109 284.917 956.808 Q283.093 956.507 281.137 955.905 L281.137 952.087 Q282.83 953.009 284.635 953.46 Q286.441 953.911 288.453 953.911 Q291.707 953.911 293.607 952.2 Q295.506 950.488 295.506 947.554 Q295.506 944.62 293.607 942.909 Q291.707 941.197 288.453 941.197 Q286.93 941.197 285.406 941.536 Q283.902 941.874 282.322 942.589 L282.322 928.483 Z" fill="#000000" fill-rule="nonzero" fill-opacity="1" /><path clip-path="url(#clip090)" d="M56.6171 747.785 L72.9365 747.785 L72.9365 751.72 L50.9921 751.72 L50.9921 747.785 Q53.6541 745.03 58.2375 740.401 Q62.8439 735.748 64.0245 734.405 Q66.2698 731.882 67.1494 730.146 Q68.0522 728.387 68.0522 726.697 Q68.0522 723.942 66.1078 722.206 Q64.1865 720.47 61.0847 720.47 Q58.8856 720.47 56.4319 721.234 Q54.0014 721.998 51.2236 723.549 L51.2236 718.827 Q54.0477 717.692 56.5014 717.114 Q58.955 716.535 60.9921 716.535 Q66.3624 716.535 69.5568 719.22 Q72.7513 721.905 72.7513 726.396 Q72.7513 728.526 71.9411 730.447 Q71.1541 732.345 69.0476 734.938 Q68.4689 735.609 65.367 738.827 Q62.2652 742.021 56.6171 747.785 Z" fill="#000000" fill-rule="nonzero" fill-opacity="1" /><path clip-path="url(#clip090)" d="M82.7512 745.84 L87.6354 745.84 L87.6354 751.72 L82.7512 751.72 L82.7512 745.84 Z" fill="#000000" fill-rule="nonzero" fill-opacity="1" /><path clip-path="url(#clip090)" d="M97.8669 717.16 L116.223 717.16 L116.223 721.095 L102.149 721.095 L102.149 729.567 Q103.168 729.22 104.186 729.058 Q105.205 728.873 106.223 728.873 Q112.01 728.873 115.39 732.044 Q118.77 735.215 118.77 740.632 Q118.77 746.211 115.297 749.313 Q111.825 752.391 105.506 752.391 Q103.33 752.391 101.061 752.021 Q98.8159 751.651 96.4085 750.91 L96.4085 746.211 Q98.4919 747.345 100.714 747.901 Q102.936 748.456 105.413 748.456 Q109.418 748.456 111.756 746.35 Q114.094 744.243 114.094 740.632 Q114.094 737.021 111.756 734.915 Q109.418 732.808 105.413 732.808 Q103.538 732.808 101.663 733.225 Q99.8113 733.641 97.8669 734.521 L97.8669 717.16 Z" fill="#000000" fill-rule="nonzero" fill-opacity="1" /><path clip-path="url(#clip090)" d="M137.982 720.239 Q134.371 720.239 132.543 723.804 Q130.737 727.345 130.737 734.475 Q130.737 741.581 132.543 745.146 Q134.371 748.688 137.982 748.688 Q141.617 748.688 143.422 745.146 Q145.251 741.581 145.251 734.475 Q145.251 727.345 143.422 723.804 Q141.617 720.239 137.982 720.239 M137.982 716.535 Q143.793 716.535 146.848 721.141 Q149.927 725.725 149.927 734.475 Q149.927 743.202 146.848 747.808 Q143.793 752.391 137.982 752.391 Q132.172 752.391 129.094 747.808 Q126.038 743.202 126.038 734.475 Q126.038 725.725 129.094 721.141 Q132.172 716.535 137.982 716.535 Z" fill="#000000" fill-rule="nonzero" fill-opacity="1" /><path clip-path="url(#clip090)" d="M186.315 726.257 L175.737 736.882 L186.315 747.461 L183.561 750.262 L172.936 739.637 L162.311 750.262 L159.58 747.461 L170.135 736.882 L159.58 726.257 L162.311 723.456 L172.936 734.081 L183.561 723.456 L186.315 726.257 Z" fill="#000000" fill-rule="nonzero" fill-opacity="1" /><path clip-path="url(#clip090)" d="M198.677 747.785 L206.315 747.785 L206.315 721.419 L198.005 723.086 L198.005 718.827 L206.269 717.16 L210.945 717.16 L210.945 747.785 L218.584 747.785 L218.584 751.72 L198.677 751.72 L198.677 747.785 Z" fill="#000000" fill-rule="nonzero" fill-opacity="1" /><path clip-path="url(#clip090)" d="M238.028 720.239 Q234.417 720.239 232.588 723.804 Q230.783 727.345 230.783 734.475 Q230.783 741.581 232.588 745.146 Q234.417 748.688 238.028 748.688 Q241.662 748.688 243.468 745.146 Q245.297 741.581 245.297 734.475 Q245.297 727.345 243.468 723.804 Q241.662 720.239 238.028 720.239 M238.028 716.535 Q243.838 716.535 246.894 721.141 Q249.973 725.725 249.973 734.475 Q249.973 743.202 246.894 747.808 Q243.838 752.391 238.028 752.391 Q232.218 752.391 229.139 747.808 Q226.084 743.202 226.084 734.475 Q226.084 725.725 229.139 721.141 Q232.218 716.535 238.028 716.535 Z" fill="#000000" fill-rule="nonzero" fill-opacity="1" /><path clip-path="url(#clip090)" d="M249.973 710.636 L274.084 710.636 L274.084 713.834 L249.973 713.834 L249.973 710.636 Z" fill="#000000" fill-rule="nonzero" fill-opacity="1" /><path clip-path="url(#clip090)" d="M282.322 696.23 L297.236 696.23 L297.236 699.427 L285.801 699.427 L285.801 706.311 Q286.629 706.028 287.456 705.897 Q288.284 705.746 289.112 705.746 Q293.813 705.746 296.559 708.323 Q299.305 710.9 299.305 715.301 Q299.305 719.833 296.484 722.354 Q293.663 724.855 288.528 724.855 Q286.761 724.855 284.917 724.554 Q283.093 724.253 281.137 723.651 L281.137 719.833 Q282.83 720.755 284.635 721.206 Q286.441 721.658 288.453 721.658 Q291.707 721.658 293.607 719.946 Q295.506 718.235 295.506 715.301 Q295.506 712.367 293.607 710.655 Q291.707 708.944 288.453 708.944 Q286.93 708.944 285.406 709.282 Q283.902 709.621 282.322 710.335 L282.322 696.23 Z" fill="#000000" fill-rule="nonzero" fill-opacity="1" /><path clip-path="url(#clip090)" d="M66.7559 500.832 Q70.1124 501.55 71.9874 503.818 Q73.8855 506.087 73.8855 509.42 Q73.8855 514.536 70.367 517.337 Q66.8485 520.138 60.3671 520.138 Q58.1912 520.138 55.8764 519.698 Q53.5847 519.281 51.131 518.425 L51.131 513.911 Q53.0754 515.045 55.3903 515.624 Q57.7051 516.202 60.2282 516.202 Q64.6263 516.202 66.918 514.466 Q69.2328 512.73 69.2328 509.42 Q69.2328 506.365 67.08 504.652 Q64.9504 502.915 61.131 502.915 L57.1032 502.915 L57.1032 499.073 L61.3161 499.073 Q64.7652 499.073 66.5939 497.707 Q68.4226 496.318 68.4226 493.726 Q68.4226 491.064 66.5245 489.652 Q64.6495 488.216 61.131 488.216 Q59.2097 488.216 57.0106 488.633 Q54.8115 489.05 52.1727 489.929 L52.1727 485.763 Q54.8347 485.022 57.1495 484.652 Q59.4875 484.281 61.5476 484.281 Q66.8717 484.281 69.9735 486.712 Q73.0753 489.119 73.0753 493.24 Q73.0753 496.11 71.4318 498.101 Q69.7883 500.068 66.7559 500.832 Z" fill="#000000" fill-rule="nonzero" fill-opacity="1" /><path clip-path="url(#clip090)" d="M82.7512 513.587 L87.6354 513.587 L87.6354 519.466 L82.7512 519.466 L82.7512 513.587 Z" fill="#000000" fill-rule="nonzero" fill-opacity="1" /><path clip-path="url(#clip090)" d="M107.821 487.985 Q104.209 487.985 102.381 491.55 Q100.575 495.091 100.575 502.221 Q100.575 509.327 102.381 512.892 Q104.209 516.434 107.821 516.434 Q111.455 516.434 113.26 512.892 Q115.089 509.327 115.089 502.221 Q115.089 495.091 113.26 491.55 Q111.455 487.985 107.821 487.985 M107.821 484.281 Q113.631 484.281 116.686 488.888 Q119.765 493.471 119.765 502.221 Q119.765 510.948 116.686 515.554 Q113.631 520.138 107.821 520.138 Q102.01 520.138 98.9317 515.554 Q95.8761 510.948 95.8761 502.221 Q95.8761 493.471 98.9317 488.888 Q102.01 484.281 107.821 484.281 Z" fill="#000000" fill-rule="nonzero" fill-opacity="1" /><path clip-path="url(#clip090)" d="M137.982 487.985 Q134.371 487.985 132.543 491.55 Q130.737 495.091 130.737 502.221 Q130.737 509.327 132.543 512.892 Q134.371 516.434 137.982 516.434 Q141.617 516.434 143.422 512.892 Q145.251 509.327 145.251 502.221 Q145.251 495.091 143.422 491.55 Q141.617 487.985 137.982 487.985 M137.982 484.281 Q143.793 484.281 146.848 488.888 Q149.927 493.471 149.927 502.221 Q149.927 510.948 146.848 515.554 Q143.793 520.138 137.982 520.138 Q132.172 520.138 129.094 515.554 Q126.038 510.948 126.038 502.221 Q126.038 493.471 129.094 488.888 Q132.172 484.281 137.982 484.281 Z" fill="#000000" fill-rule="nonzero" fill-opacity="1" /><path clip-path="url(#clip090)" d="M186.315 494.003 L175.737 504.628 L186.315 515.207 L183.561 518.008 L172.936 507.383 L162.311 518.008 L159.58 515.207 L170.135 504.628 L159.58 494.003 L162.311 491.203 L172.936 501.828 L183.561 491.203 L186.315 494.003 Z" fill="#000000" fill-rule="nonzero" fill-opacity="1" /><path clip-path="url(#clip090)" d="M198.677 515.531 L206.315 515.531 L206.315 489.166 L198.005 490.832 L198.005 486.573 L206.269 484.906 L210.945 484.906 L210.945 515.531 L218.584 515.531 L218.584 519.466 L198.677 519.466 L198.677 515.531 Z" fill="#000000" fill-rule="nonzero" fill-opacity="1" /><path clip-path="url(#clip090)" d="M238.028 487.985 Q234.417 487.985 232.588 491.55 Q230.783 495.091 230.783 502.221 Q230.783 509.327 232.588 512.892 Q234.417 516.434 238.028 516.434 Q241.662 516.434 243.468 512.892 Q245.297 509.327 245.297 502.221 Q245.297 495.091 243.468 491.55 Q241.662 487.985 238.028 487.985 M238.028 484.281 Q243.838 484.281 246.894 488.888 Q249.973 493.471 249.973 502.221 Q249.973 510.948 246.894 515.554 Q243.838 520.138 238.028 520.138 Q232.218 520.138 229.139 515.554 Q226.084 510.948 226.084 502.221 Q226.084 493.471 229.139 488.888 Q232.218 484.281 238.028 484.281 Z" fill="#000000" fill-rule="nonzero" fill-opacity="1" /><path clip-path="url(#clip090)" d="M249.973 478.383 L274.084 478.383 L274.084 481.58 L249.973 481.58 L249.973 478.383 Z" fill="#000000" fill-rule="nonzero" fill-opacity="1" /><path clip-path="url(#clip090)" d="M282.322 463.976 L297.236 463.976 L297.236 467.173 L285.801 467.173 L285.801 474.057 Q286.629 473.775 287.456 473.643 Q288.284 473.493 289.112 473.493 Q293.813 473.493 296.559 476.069 Q299.305 478.646 299.305 483.047 Q299.305 487.58 296.484 490.1 Q293.663 492.601 288.528 492.601 Q286.761 492.601 284.917 492.3 Q283.093 491.999 281.137 491.398 L281.137 487.58 Q282.83 488.501 284.635 488.953 Q286.441 489.404 288.453 489.404 Q291.707 489.404 293.607 487.693 Q295.506 485.981 295.506 483.047 Q295.506 480.113 293.607 478.401 Q291.707 476.69 288.453 476.69 Q286.93 476.69 285.406 477.029 Q283.902 477.367 282.322 478.082 L282.322 463.976 Z" fill="#000000" fill-rule="nonzero" fill-opacity="1" /><path clip-path="url(#clip090)" d="M66.7559 268.578 Q70.1124 269.296 71.9874 271.565 Q73.8855 273.833 73.8855 277.166 Q73.8855 282.282 70.367 285.083 Q66.8485 287.884 60.3671 287.884 Q58.1912 287.884 55.8764 287.444 Q53.5847 287.027 51.131 286.171 L51.131 281.657 Q53.0754 282.791 55.3903 283.37 Q57.7051 283.949 60.2282 283.949 Q64.6263 283.949 66.918 282.213 Q69.2328 280.477 69.2328 277.166 Q69.2328 274.111 67.08 272.398 Q64.9504 270.662 61.131 270.662 L57.1032 270.662 L57.1032 266.819 L61.3161 266.819 Q64.7652 266.819 66.5939 265.453 Q68.4226 264.065 68.4226 261.472 Q68.4226 258.81 66.5245 257.398 Q64.6495 255.963 61.131 255.963 Q59.2097 255.963 57.0106 256.379 Q54.8115 256.796 52.1727 257.676 L52.1727 253.509 Q54.8347 252.768 57.1495 252.398 Q59.4875 252.028 61.5476 252.028 Q66.8717 252.028 69.9735 254.458 Q73.0753 256.866 73.0753 260.986 Q73.0753 263.856 71.4318 265.847 Q69.7883 267.815 66.7559 268.578 Z" fill="#000000" fill-rule="nonzero" fill-opacity="1" /><path clip-path="url(#clip090)" d="M82.7512 281.333 L87.6354 281.333 L87.6354 287.213 L82.7512 287.213 L82.7512 281.333 Z" fill="#000000" fill-rule="nonzero" fill-opacity="1" /><path clip-path="url(#clip090)" d="M97.8669 252.653 L116.223 252.653 L116.223 256.588 L102.149 256.588 L102.149 265.06 Q103.168 264.713 104.186 264.551 Q105.205 264.366 106.223 264.366 Q112.01 264.366 115.39 267.537 Q118.77 270.708 118.77 276.125 Q118.77 281.703 115.297 284.805 Q111.825 287.884 105.506 287.884 Q103.33 287.884 101.061 287.514 Q98.8159 287.143 96.4085 286.402 L96.4085 281.703 Q98.4919 282.838 100.714 283.393 Q102.936 283.949 105.413 283.949 Q109.418 283.949 111.756 281.842 Q114.094 279.736 114.094 276.125 Q114.094 272.514 111.756 270.407 Q109.418 268.301 105.413 268.301 Q103.538 268.301 101.663 268.717 Q99.8113 269.134 97.8669 270.014 L97.8669 252.653 Z" fill="#000000" fill-rule="nonzero" fill-opacity="1" /><path clip-path="url(#clip090)" d="M137.982 255.731 Q134.371 255.731 132.543 259.296 Q130.737 262.838 130.737 269.967 Q130.737 277.074 132.543 280.639 Q134.371 284.18 137.982 284.18 Q141.617 284.18 143.422 280.639 Q145.251 277.074 145.251 269.967 Q145.251 262.838 143.422 259.296 Q141.617 255.731 137.982 255.731 M137.982 252.028 Q143.793 252.028 146.848 256.634 Q149.927 261.217 149.927 269.967 Q149.927 278.694 146.848 283.301 Q143.793 287.884 137.982 287.884 Q132.172 287.884 129.094 283.301 Q126.038 278.694 126.038 269.967 Q126.038 261.217 129.094 256.634 Q132.172 252.028 137.982 252.028 Z" fill="#000000" fill-rule="nonzero" fill-opacity="1" /><path clip-path="url(#clip090)" d="M186.315 261.75 L175.737 272.375 L186.315 282.953 L183.561 285.754 L172.936 275.129 L162.311 285.754 L159.58 282.953 L170.135 272.375 L159.58 261.75 L162.311 258.949 L172.936 269.574 L183.561 258.949 L186.315 261.75 Z" fill="#000000" fill-rule="nonzero" fill-opacity="1" /><path clip-path="url(#clip090)" d="M198.677 283.277 L206.315 283.277 L206.315 256.912 L198.005 258.579 L198.005 254.319 L206.269 252.653 L210.945 252.653 L210.945 283.277 L218.584 283.277 L218.584 287.213 L198.677 287.213 L198.677 283.277 Z" fill="#000000" fill-rule="nonzero" fill-opacity="1" /><path clip-path="url(#clip090)" d="M238.028 255.731 Q234.417 255.731 232.588 259.296 Q230.783 262.838 230.783 269.967 Q230.783 277.074 232.588 280.639 Q234.417 284.18 238.028 284.18 Q241.662 284.18 243.468 280.639 Q245.297 277.074 245.297 269.967 Q245.297 262.838 243.468 259.296 Q241.662 255.731 238.028 255.731 M238.028 252.028 Q243.838 252.028 246.894 256.634 Q249.973 261.217 249.973 269.967 Q249.973 278.694 246.894 283.301 Q243.838 287.884 238.028 287.884 Q232.218 287.884 229.139 283.301 Q226.084 278.694 226.084 269.967 Q226.084 261.217 229.139 256.634 Q232.218 252.028 238.028 252.028 Z" fill="#000000" fill-rule="nonzero" fill-opacity="1" /><path clip-path="url(#clip090)" d="M249.973 246.129 L274.084 246.129 L274.084 249.326 L249.973 249.326 L249.973 246.129 Z" fill="#000000" fill-rule="nonzero" fill-opacity="1" /><path clip-path="url(#clip090)" d="M282.322 231.722 L297.236 231.722 L297.236 234.92 L285.801 234.92 L285.801 241.803 Q286.629 241.521 287.456 241.389 Q288.284 241.239 289.112 241.239 Q293.813 241.239 296.559 243.816 Q299.305 246.392 299.305 250.793 Q299.305 255.326 296.484 257.846 Q293.663 260.348 288.528 260.348 Q286.761 260.348 284.917 260.047 Q283.093 259.746 281.137 259.144 L281.137 255.326 Q282.83 256.248 284.635 256.699 Q286.441 257.15 288.453 257.15 Q291.707 257.15 293.607 255.439 Q295.506 253.727 295.506 250.793 Q295.506 247.859 293.607 246.148 Q291.707 244.436 288.453 244.436 Q286.93 244.436 285.406 244.775 Q283.902 245.113 282.322 245.828 L282.322 231.722 Z" fill="#000000" fill-rule="nonzero" fill-opacity="1" /><path clip-path="url(#clip090)" d="M814.719 44.2197 Q817.352 45.1109 819.823 48.0275 Q822.335 50.9442 824.846 56.0483 L833.151 72.576 L824.36 72.576 L816.623 57.061 Q813.625 50.9847 810.79 48.9997 Q807.995 47.0148 803.134 47.0148 L794.222 47.0148 L794.222 72.576 L786.039 72.576 L786.039 12.096 L804.511 12.096 Q814.881 12.096 819.985 16.4305 Q825.09 20.7649 825.09 29.5149 Q825.09 35.2267 822.416 38.994 Q819.783 42.7613 814.719 44.2197 M794.222 18.8205 L794.222 40.2903 L804.511 40.2903 Q810.425 40.2903 813.423 37.5762 Q816.461 34.8216 816.461 29.5149 Q816.461 24.2082 813.423 21.5346 Q810.425 18.8205 804.511 18.8205 L794.222 18.8205 Z" fill="#000000" fill-rule="nonzero" fill-opacity="1" /><path clip-path="url(#clip090)" d="M857.213 32.4315 Q851.218 32.4315 847.734 37.1306 Q844.25 41.7891 844.25 49.9314 Q844.25 58.0738 847.694 62.7728 Q851.177 67.4314 857.213 67.4314 Q863.168 67.4314 866.652 62.7323 Q870.136 58.0333 870.136 49.9314 Q870.136 41.8701 866.652 37.1711 Q863.168 32.4315 857.213 32.4315 M857.213 26.1121 Q866.935 26.1121 872.485 32.4315 Q878.035 38.7509 878.035 49.9314 Q878.035 61.0714 872.485 67.4314 Q866.935 73.7508 857.213 73.7508 Q847.451 73.7508 841.901 67.4314 Q836.392 61.0714 836.392 49.9314 Q836.392 38.7509 841.901 32.4315 Q847.451 26.1121 857.213 26.1121 Z" fill="#000000" fill-rule="nonzero" fill-opacity="1" /><path clip-path="url(#clip090)" d="M890.39 9.54393 L897.844 9.54393 L897.844 72.576 L890.39 72.576 L890.39 9.54393 Z" fill="#000000" fill-rule="nonzero" fill-opacity="1" /><path clip-path="url(#clip090)" d="M913.44 9.54393 L920.893 9.54393 L920.893 72.576 L913.44 72.576 L913.44 9.54393 Z" fill="#000000" fill-rule="nonzero" fill-opacity="1" /><path clip-path="url(#clip090)" d="M936.489 27.2059 L943.943 27.2059 L943.943 72.576 L936.489 72.576 L936.489 27.2059 M936.489 9.54393 L943.943 9.54393 L943.943 18.9825 L936.489 18.9825 L936.489 9.54393 Z" fill="#000000" fill-rule="nonzero" fill-opacity="1" /><path clip-path="url(#clip090)" d="M997.253 45.1919 L997.253 72.576 L989.799 72.576 L989.799 45.4349 Q989.799 38.994 987.288 35.7938 Q984.776 32.5936 979.753 32.5936 Q973.717 32.5936 970.233 36.4419 Q966.75 40.2903 966.75 46.9338 L966.75 72.576 L959.255 72.576 L959.255 27.2059 L966.75 27.2059 L966.75 34.2544 Q969.423 30.163 973.029 28.1376 Q976.674 26.1121 981.414 26.1121 Q989.232 26.1121 993.243 30.9732 Q997.253 35.7938 997.253 45.1919 Z" fill="#000000" fill-rule="nonzero" fill-opacity="1" /><path clip-path="url(#clip090)" d="M1041.97 49.3643 Q1041.97 41.2625 1038.61 36.8065 Q1035.29 32.3505 1029.26 32.3505 Q1023.26 32.3505 1019.9 36.8065 Q1016.58 41.2625 1016.58 49.3643 Q1016.58 57.4256 1019.9 61.8816 Q1023.26 66.3376 1029.26 66.3376 Q1035.29 66.3376 1038.61 61.8816 Q1041.97 57.4256 1041.97 49.3643 M1049.43 66.9452 Q1049.43 78.5308 1044.28 84.1616 Q1039.14 89.8329 1028.53 89.8329 Q1024.6 89.8329 1021.11 89.2252 Q1017.63 88.6581 1014.35 87.4428 L1014.35 80.1917 Q1017.63 81.9741 1020.83 82.8248 Q1024.03 83.6755 1027.35 83.6755 Q1034.68 83.6755 1038.33 79.8271 Q1041.97 76.0193 1041.97 68.282 L1041.97 64.5957 Q1039.67 68.6061 1036.06 70.5911 Q1032.46 72.576 1027.43 72.576 Q1019.09 72.576 1013.98 66.2161 Q1008.88 59.8562 1008.88 49.3643 Q1008.88 38.832 1013.98 32.472 Q1019.09 26.1121 1027.43 26.1121 Q1032.46 26.1121 1036.06 28.0971 Q1039.67 30.082 1041.97 34.0924 L1041.97 27.2059 L1049.43 27.2059 L1049.43 66.9452 Z" fill="#000000" fill-rule="nonzero" fill-opacity="1" /><path clip-path="url(#clip090)" d="M1086.82 27.2059 L1094.27 27.2059 L1103.59 62.6108 L1112.87 27.2059 L1121.66 27.2059 L1130.97 62.6108 L1140.25 27.2059 L1147.7 27.2059 L1135.83 72.576 L1127.04 72.576 L1117.28 35.3887 L1107.48 72.576 L1098.69 72.576 L1086.82 27.2059 Z" fill="#000000" fill-rule="nonzero" fill-opacity="1" /><path clip-path="url(#clip090)" d="M1159.01 27.2059 L1166.46 27.2059 L1166.46 72.576 L1159.01 72.576 L1159.01 27.2059 M1159.01 9.54393 L1166.46 9.54393 L1166.46 18.9825 L1159.01 18.9825 L1159.01 9.54393 Z" fill="#000000" fill-rule="nonzero" fill-opacity="1" /><path clip-path="url(#clip090)" d="M1219.77 45.1919 L1219.77 72.576 L1212.32 72.576 L1212.32 45.4349 Q1212.32 38.994 1209.8 35.7938 Q1207.29 32.5936 1202.27 32.5936 Q1196.23 32.5936 1192.75 36.4419 Q1189.27 40.2903 1189.27 46.9338 L1189.27 72.576 L1181.77 72.576 L1181.77 27.2059 L1189.27 27.2059 L1189.27 34.2544 Q1191.94 30.163 1195.54 28.1376 Q1199.19 26.1121 1203.93 26.1121 Q1211.75 26.1121 1215.76 30.9732 Q1219.77 35.7938 1219.77 45.1919 Z" fill="#000000" fill-rule="nonzero" fill-opacity="1" /><path clip-path="url(#clip090)" d="M1264.49 34.0924 L1264.49 9.54393 L1271.94 9.54393 L1271.94 72.576 L1264.49 72.576 L1264.49 65.7705 Q1262.14 69.8214 1258.54 71.8063 Q1254.97 73.7508 1249.95 73.7508 Q1241.73 73.7508 1236.54 67.1883 Q1231.4 60.6258 1231.4 49.9314 Q1231.4 39.2371 1236.54 32.6746 Q1241.73 26.1121 1249.95 26.1121 Q1254.97 26.1121 1258.54 28.0971 Q1262.14 30.0415 1264.49 34.0924 M1239.09 49.9314 Q1239.09 58.1548 1242.45 62.8538 Q1245.86 67.5124 1251.77 67.5124 Q1257.69 67.5124 1261.09 62.8538 Q1264.49 58.1548 1264.49 49.9314 Q1264.49 41.7081 1261.09 37.0496 Q1257.69 32.3505 1251.77 32.3505 Q1245.86 32.3505 1242.45 37.0496 Q1239.09 41.7081 1239.09 49.9314 Z" fill="#000000" fill-rule="nonzero" fill-opacity="1" /><path clip-path="url(#clip090)" d="M1304.88 32.4315 Q1298.88 32.4315 1295.4 37.1306 Q1291.92 41.7891 1291.92 49.9314 Q1291.92 58.0738 1295.36 62.7728 Q1298.84 67.4314 1304.88 67.4314 Q1310.83 67.4314 1314.32 62.7323 Q1317.8 58.0333 1317.8 49.9314 Q1317.8 41.8701 1314.32 37.1711 Q1310.83 32.4315 1304.88 32.4315 M1304.88 26.1121 Q1314.6 26.1121 1320.15 32.4315 Q1325.7 38.7509 1325.7 49.9314 Q1325.7 61.0714 1320.15 67.4314 Q1314.6 73.7508 1304.88 73.7508 Q1295.12 73.7508 1289.57 67.4314 Q1284.06 61.0714 1284.06 49.9314 Q1284.06 38.7509 1289.57 32.4315 Q1295.12 26.1121 1304.88 26.1121 Z" fill="#000000" fill-rule="nonzero" fill-opacity="1" /><path clip-path="url(#clip090)" d="M1333.72 27.2059 L1341.17 27.2059 L1350.49 62.6108 L1359.77 27.2059 L1368.56 27.2059 L1377.88 62.6108 L1387.15 27.2059 L1394.61 27.2059 L1382.74 72.576 L1373.95 72.576 L1364.18 35.3887 L1354.38 72.576 L1345.59 72.576 L1333.72 27.2059 Z" fill="#000000" fill-rule="nonzero" fill-opacity="1" /><path clip-path="url(#clip090)" d="M1461.2 28.5427 L1461.2 35.5912 Q1458.04 33.9709 1454.64 33.1607 Q1451.24 32.3505 1447.59 32.3505 Q1442.04 32.3505 1439.25 34.0519 Q1436.49 35.7533 1436.49 39.156 Q1436.49 41.7486 1438.48 43.2475 Q1440.46 44.7058 1446.46 46.0426 L1449.01 46.6097 Q1456.95 48.3111 1460.27 51.4303 Q1463.63 54.509 1463.63 60.0587 Q1463.63 66.3781 1458.61 70.0644 Q1453.63 73.7508 1444.88 73.7508 Q1441.23 73.7508 1437.26 73.0216 Q1433.33 72.3329 1428.96 70.9151 L1428.96 63.2184 Q1433.09 65.3654 1437.1 66.4591 Q1441.11 67.5124 1445.04 67.5124 Q1450.31 67.5124 1453.14 65.73 Q1455.98 63.9071 1455.98 60.6258 Q1455.98 57.5877 1453.91 55.9673 Q1451.89 54.3469 1444.96 52.8481 L1442.37 52.2405 Q1435.44 50.7821 1432.36 47.7845 Q1429.28 44.7463 1429.28 39.4801 Q1429.28 33.0797 1433.82 29.5959 Q1438.36 26.1121 1446.7 26.1121 Q1450.83 26.1121 1454.48 26.7198 Q1458.12 27.3274 1461.2 28.5427 Z" fill="#000000" fill-rule="nonzero" fill-opacity="1" /><path clip-path="url(#clip090)" d="M1482.88 14.324 L1482.88 27.2059 L1498.23 27.2059 L1498.23 32.9987 L1482.88 32.9987 L1482.88 57.6282 Q1482.88 63.1779 1484.37 64.7578 Q1485.91 66.3376 1490.57 66.3376 L1498.23 66.3376 L1498.23 72.576 L1490.57 72.576 Q1481.94 72.576 1478.66 69.3758 Q1475.38 66.1351 1475.38 57.6282 L1475.38 32.9987 L1469.91 32.9987 L1469.91 27.2059 L1475.38 27.2059 L1475.38 14.324 L1482.88 14.324 Z" fill="#000000" fill-rule="nonzero" fill-opacity="1" /><path clip-path="url(#clip090)" d="M1537.89 34.0924 L1537.89 9.54393 L1545.34 9.54393 L1545.34 72.576 L1537.89 72.576 L1537.89 65.7705 Q1535.54 69.8214 1531.93 71.8063 Q1528.37 73.7508 1523.34 73.7508 Q1515.12 73.7508 1509.94 67.1883 Q1504.79 60.6258 1504.79 49.9314 Q1504.79 39.2371 1509.94 32.6746 Q1515.12 26.1121 1523.34 26.1121 Q1528.37 26.1121 1531.93 28.0971 Q1535.54 30.0415 1537.89 34.0924 M1512.49 49.9314 Q1512.49 58.1548 1515.85 62.8538 Q1519.25 67.5124 1525.17 67.5124 Q1531.08 67.5124 1534.48 62.8538 Q1537.89 58.1548 1537.89 49.9314 Q1537.89 41.7081 1534.48 37.0496 Q1531.08 32.3505 1525.17 32.3505 Q1519.25 32.3505 1515.85 37.0496 Q1512.49 41.7081 1512.49 49.9314 Z" fill="#000000" fill-rule="nonzero" fill-opacity="1" /><path clip-path="url(#clip090)" d="M1561.75 62.2867 L1570.29 62.2867 L1570.29 72.576 L1561.75 72.576 L1561.75 62.2867 Z" fill="#000000" fill-rule="nonzero" fill-opacity="1" /><path clip-path="url(#clip090)" d="M1631.02 32.4315 Q1625.02 32.4315 1621.54 37.1306 Q1618.05 41.7891 1618.05 49.9314 Q1618.05 58.0738 1621.5 62.7728 Q1624.98 67.4314 1631.02 67.4314 Q1636.97 67.4314 1640.46 62.7323 Q1643.94 58.0333 1643.94 49.9314 Q1643.94 41.8701 1640.46 37.1711 Q1636.97 32.4315 1631.02 32.4315 M1631.02 26.1121 Q1640.74 26.1121 1646.29 32.4315 Q1651.84 38.7509 1651.84 49.9314 Q1651.84 61.0714 1646.29 67.4314 Q1640.74 73.7508 1631.02 73.7508 Q1621.25 73.7508 1615.7 67.4314 Q1610.2 61.0714 1610.2 49.9314 Q1610.2 38.7509 1615.7 32.4315 Q1621.25 26.1121 1631.02 26.1121 Z" fill="#000000" fill-rule="nonzero" fill-opacity="1" /><path clip-path="url(#clip090)" d="M1687.16 9.54393 L1687.16 15.7418 L1680.03 15.7418 Q1676.02 15.7418 1674.44 17.3622 Q1672.9 18.9825 1672.9 23.1955 L1672.9 27.2059 L1685.18 27.2059 L1685.18 32.9987 L1672.9 32.9987 L1672.9 72.576 L1665.41 72.576 L1665.41 32.9987 L1658.28 32.9987 L1658.28 27.2059 L1665.41 27.2059 L1665.41 24.0462 Q1665.41 16.471 1668.93 13.0277 Q1672.46 9.54393 1680.11 9.54393 L1687.16 9.54393 Z" fill="#000000" fill-rule="nonzero" fill-opacity="1" /><path clip-path="url(#clip090)" d="M1746.06 34.1734 Q1744.81 33.4443 1743.31 33.1202 Q1741.85 32.7556 1740.07 32.7556 Q1733.75 32.7556 1730.35 36.8875 Q1726.98 40.9789 1726.98 48.6757 L1726.98 72.576 L1719.49 72.576 L1719.49 27.2059 L1726.98 27.2059 L1726.98 34.2544 Q1729.33 30.1225 1733.1 28.1376 Q1736.87 26.1121 1742.25 26.1121 Q1743.02 26.1121 1743.96 26.2337 Q1744.89 26.3147 1746.02 26.5172 L1746.06 34.1734 Z" fill="#000000" fill-rule="nonzero" fill-opacity="1" /><path clip-path="url(#clip090)" d="M1769.64 32.4315 Q1763.64 32.4315 1760.16 37.1306 Q1756.68 41.7891 1756.68 49.9314 Q1756.68 58.0738 1760.12 62.7728 Q1763.6 67.4314 1769.64 67.4314 Q1775.59 67.4314 1779.08 62.7323 Q1782.56 58.0333 1782.56 49.9314 Q1782.56 41.8701 1779.08 37.1711 Q1775.59 32.4315 1769.64 32.4315 M1769.64 26.1121 Q1779.36 26.1121 1784.91 32.4315 Q1790.46 38.7509 1790.46 49.9314 Q1790.46 61.0714 1784.91 67.4314 Q1779.36 73.7508 1769.64 73.7508 Q1759.88 73.7508 1754.33 67.4314 Q1748.82 61.0714 1748.82 49.9314 Q1748.82 38.7509 1754.33 32.4315 Q1759.88 26.1121 1769.64 26.1121 Z" fill="#000000" fill-rule="nonzero" fill-opacity="1" /><path clip-path="url(#clip090)" d="M1798.48 27.2059 L1805.93 27.2059 L1815.25 62.6108 L1824.53 27.2059 L1833.32 27.2059 L1842.64 62.6108 L1851.91 27.2059 L1859.37 27.2059 L1847.5 72.576 L1838.71 72.576 L1828.94 35.3887 L1819.14 72.576 L1810.35 72.576 L1798.48 27.2059 Z" fill="#000000" fill-rule="nonzero" fill-opacity="1" /><path clip-path="url(#clip090)" d="M1899.59 28.5427 L1899.59 35.5912 Q1896.43 33.9709 1893.03 33.1607 Q1889.63 32.3505 1885.98 32.3505 Q1880.43 32.3505 1877.64 34.0519 Q1874.88 35.7533 1874.88 39.156 Q1874.88 41.7486 1876.87 43.2475 Q1878.85 44.7058 1884.85 46.0426 L1887.4 46.6097 Q1895.34 48.3111 1898.66 51.4303 Q1902.02 54.509 1902.02 60.0587 Q1902.02 66.3781 1897 70.0644 Q1892.02 73.7508 1883.27 73.7508 Q1879.62 73.7508 1875.65 73.0216 Q1871.72 72.3329 1867.35 70.9151 L1867.35 63.2184 Q1871.48 65.3654 1875.49 66.4591 Q1879.5 67.5124 1883.43 67.5124 Q1888.69 67.5124 1891.53 65.73 Q1894.37 63.9071 1894.37 60.6258 Q1894.37 57.5877 1892.3 55.9673 Q1890.27 54.3469 1883.35 52.8481 L1880.76 52.2405 Q1873.83 50.7821 1870.75 47.7845 Q1867.67 44.7463 1867.67 39.4801 Q1867.67 33.0797 1872.21 29.5959 Q1876.74 26.1121 1885.09 26.1121 Q1889.22 26.1121 1892.87 26.7198 Q1896.51 27.3274 1899.59 28.5427 Z" fill="#000000" fill-rule="nonzero" fill-opacity="1" /><polyline clip-path="url(#clip092)" style="stroke:#009af9; stroke-linecap:round; stroke-linejoin:round; stroke-width:4; stroke-opacity:1; fill:none" points="392.403,1050.09 396.035,1048.78 399.667,1049.18 403.299,1048.41 406.932,1046.49 410.564,1046.93 414.196,1046.61 417.828,1045.6 421.46,1045.63 425.092,1045.71 428.725,1045.55 432.357,1045.69 435.989,1046.67 439.621,1046.39 443.253,1047.91 446.885,1047.4 450.518,1044.88 454.15,1042.89 457.782,1043.68 461.414,1043.97 465.046,1042.41 468.678,1041.73 472.311,1040.21 475.943,1040.66 479.575,1040.98 483.207,1041.18 486.839,1042.98 490.471,1043.28 494.104,1043.88 497.736,1043.53 501.368,1043.61 505,1043.79 508.632,1046.71 512.264,1047.73 515.897,1047.88 519.529,1049.74 523.161,1050.73 526.793,1050.86 530.425,1050.52 534.057,1050.44 537.69,1050.34 541.322,1050.66 544.954,1051.3 548.586,1052.34 552.218,1053.89 555.85,1054.82 559.483,1056.02 563.115,1055.56 566.747,1055.31 570.379,1056.64 574.011,1056 577.643,1056.7 581.276,1057.14 584.908,1057.05 588.54,1057.06 592.172,1056.12 595.804,1055.88 599.436,1053.89 603.069,1053.09 606.701,1051.82 610.333,1050.8 613.965,1052.38 617.597,1054.07 621.229,1053.12 624.862,1052.38 628.494,1052.78 632.126,1053.57 635.758,1054.09 639.39,1053.78 643.022,1053.43 646.655,1052.86 650.287,1052.53 653.919,1052.23 657.551,1051.1 661.183,1049.05 664.815,1045.42 668.448,1044.23 672.08,1044.77 675.712,1045.33 679.344,1045.65 682.976,1046.17 686.608,1046.71 690.241,1045.85 693.873,1045.31 697.505,1045.17 701.137,1044.2 704.769,1032.67 708.401,909.745 712.034,849.21 715.666,838.251 719.298,830.773 722.93,822.01 726.562,815.221 730.194,810.872 733.827,806.075 737.459,798.561 741.091,784.962 744.723,767.688 748.355,751.749 751.987,738.682 755.62,723.801 759.252,710.281 762.884,700.675 766.516,691.814 770.148,680.7 773.78,670.175 777.413,664.776 781.045,657.318 784.677,646.421 788.309,641.863 791.941,634.291 795.573,623.27 799.206,612.648 802.838,600.938 806.47,589.133 810.102,576.952 813.734,568.774 817.366,557.284 820.999,541.117 824.631,532.782 828.263,527.46 831.895,526.8 835.527,522.866 839.159,512.415 842.792,507.498 846.424,491.489 850.056,482.252 853.688,470.695 857.32,459.199 860.952,449.248 864.585,440.457 868.217,437.841 871.849,507.304 875.481,539.244 879.113,538.253 882.745,538.542 886.378,542.826 890.01,544.765 893.642,542.917 897.274,544.394 900.906,545.351 904.538,547.37 908.171,549.429 911.803,549.526 915.435,549.415 919.067,553.861 922.699,555.016 926.331,556.507 929.964,556.514 933.596,557.963 937.228,556.577 940.86,556.233 944.492,559.641 948.124,566.584 951.757,567.362 955.389,567.838 959.021,570.197 962.653,561.595 966.285,555.695 969.917,554.951 973.55,555.671 977.182,550.933 980.814,552.166 984.446,560.113 988.078,559.812 991.71,558.334 995.343,555.644 998.975,554.621 1002.61,560.783 1006.24,561.514 1009.87,573.302 1013.5,573.578 1017.14,579.644 1020.77,588.848 1024.4,596.691 1028.03,604.152 1031.66,613.468 1035.3,622.511 1038.93,636.502 1042.56,645.962 1046.19,654.53 1049.83,663.425 1053.46,674.68 1057.09,688.304 1060.72,697.773 1064.35,707.84 1067.99,717.657 1071.62,730.312 1075.25,745.951 1078.88,758.524 1082.51,769.56 1086.15,785.648 1089.78,795.462 1093.41,808.269 1097.04,821.761 1100.68,844.841 1104.31,863.635 1107.94,881.383 1111.57,897.645 1115.2,914.461 1118.84,936.937 1122.47,954.04 1126.1,987.144 1129.73,1019.55 1133.36,1044.2 1137,1069.47 1140.63,1101.62 1144.26,1128.52 1147.89,1156.24 1151.53,1186.01 1155.16,1225.66 1158.79,1255.79 1162.42,1290.17 1166.05,1324.31 1169.69,1365.91 1173.32,1405.44 1176.95,1447.87 1180.58,1398.47 1184.22,1318.22 1187.85,1249.04 1191.48,1184.71 1195.11,1121.13 1198.74,1062.77 1202.38,1015.8 1206.01,978.768 1209.64,938.058 1213.27,902.214 1216.9,867.821 1220.54,833.111 1224.17,800.869 1227.8,768.276 1231.43,736.499 1235.07,710.312 1238.7,681.319 1242.33,655.139 1245.96,632.221 1249.59,610.804 1253.23,588.06 1256.86,565.074 1260.49,544.152 1264.12,525.64 1267.76,509.612 1271.39,496.589 1275.02,484.427 1278.65,471.307 1282.28,461.595 1285.92,452.827 1289.55,440.885 1293.18,434.784 1296.81,428.097 1300.44,423.756 1304.08,420.149 1307.71,416.811 1311.34,410.982 1314.97,401.495 1318.61,391.462 1322.24,382.457 1325.87,374.235 1329.5,367.335 1333.13,360.421 1336.77,354.774 1340.4,349.145 1344.03,341.483 1347.66,333.683 1351.29,323.627 1354.93,316.436 1358.56,311.272 1362.19,306.635 1365.82,299.841 1369.46,291.989 1373.09,284.919 1376.72,279.49 1380.35,271.858 1383.98,266.083 1387.62,261.947 1391.25,258.462 1394.88,256.089 1398.51,252.479 1402.15,251.008 1405.78,248.244 1409.41,245.913 1413.04,241.725 1416.67,240.842 1420.31,239.441 1423.94,237.531 1427.57,235.61 1431.2,231.317 1434.83,226.347 1438.47,221.111 1442.1,217.179 1445.73,211.376 1449.36,205.915 1453,203.186 1456.63,196.908 1460.26,190.584 1463.89,181.875 1467.52,173.773 1471.16,166.184 1474.79,162.047 1478.42,162.317 1482.05,163.775 1485.69,165.397 1489.32,166.604 1492.95,167.765 1496.58,169.223 1500.21,169.604 1503.85,170.029 1507.48,171.449 1511.11,171.977 1514.74,176.18 1518.37,178.642 1522.01,180.259 1525.64,181.598 1529.27,182.188 1532.9,184.541 1536.54,186.693 1540.17,188.451 1543.8,191.495 1547.43,192.124 1551.06,193.511 1554.7,196 1558.33,196.179 1561.96,197.197 1565.59,198.339 1569.22,199.239 1572.86,199.613 1576.49,201.353 1580.12,201.073 1583.75,203.08 1587.39,205.435 1591.02,207.032 1594.65,210.186 1598.28,211.247 1601.91,213.977 1605.55,218.223 1609.18,221.024 1612.81,224.414 1616.44,217.005 1620.08,209.587 1623.71,206.194 1627.34,203.553 1630.97,200.902 1634.6,199.584 1638.24,199.622 1641.87,198.999 1645.5,199.76 1649.13,200.841 1652.76,203.735 1656.4,205.957 1660.03,208.273 1663.66,210.681 1667.29,215.406 1670.93,218.295 1674.56,217.742 1678.19,215.643 1681.82,216.112 1685.45,217.455 1689.09,224.866 1692.72,233.969 1696.35,243.061 1699.98,252.919 1703.62,262.68 1707.25,274.727 1710.88,287.117 1714.51,299.118 1718.14,313.745 1721.78,328.37 1725.41,339.177 1729.04,346.305 1732.67,353.897 1736.3,358.34 1739.94,363.606 1743.57,370.5 1747.2,377.642 1750.83,385.704 1754.47,397.057 1758.1,407.863 1761.73,420.216 1765.36,432.344 1768.99,445.483 1772.63,459.316 1776.26,469.195 1779.89,484.001 1783.52,487.31 1787.15,482.962 1790.79,480.191 1794.42,478.945 1798.05,480.394 1801.68,483.605 1805.32,488.482 1808.95,495.204 1812.58,503.728 1816.21,512.605 1819.84,523.988 1823.48,537.242 1827.11,552.902 1830.74,569.49 1834.37,586.719 1838.01,609.605 1841.64,635.186 1845.27,659.311 1848.9,686.924 1852.53,713.118 1856.17,737.5 1859.8,766.013 1863.43,798.421 1867.06,830.049 1870.69,863.115 1874.33,900.898 1877.96,940.905 1881.59,983.585 1885.22,1040.18 1888.86,1060.92 1892.49,1060.39 1896.12,1059.69 1899.75,1059.01 1903.38,1060.2 1907.02,1059.86 1910.65,1059.56 1914.28,1058.89 1917.91,1058.58 1921.55,1057.45 1925.18,1058.12 1928.81,1059.51 1932.44,1058.97 1936.07,1060.71 1939.71,1060.71 1943.34,1059.99 1946.97,1059.58 1950.6,1059.37 1954.23,1059.23 1957.87,1058.42 1961.5,1057.97 1965.13,1059.07 1968.76,1059.78 1972.4,1058.81 1976.03,1058.16 1979.66,1055.96 1983.29,1053.6 1986.92,1050.85 1990.56,1049.69 1994.19,1049.74 1997.82,1049.28 2001.45,1049.21 2005.08,1049.31 2008.72,1049.4 2012.35,1048.04 2015.98,1047.41 2019.61,1047.53 2023.25,1047.28 2026.88,1047.02 2030.51,1047.19 2034.14,1049.17 2037.77,1051.25 2041.41,1052.47 2045.04,1053.35 2048.67,1053.09 2052.3,1053.13 2055.94,1052.98 2059.57,1052.2 2063.2,1051.89 2066.83,1051.51 2070.46,1052.05 2074.1,1052.72 2077.73,1053.38 2081.36,1052.88 2084.99,1051.13 2088.62,1050.07 2092.26,1047.97 2095.89,1045.54 2099.52,1045.43 2103.15,1045.81 2106.79,1045.87 2110.42,1045.51 2114.05,1044.9 2117.68,1044.25 2121.31,1043.5 2124.95,1042.92 2128.58,1042.2 2132.21,1042.02 2135.84,1042.93 2139.48,1043.71 2143.11,1046.12 2146.74,1049.55 2150.37,1053.08 2154,1056.19 2157.64,1056.86 2161.27,1057.47 2164.9,1056.68 2168.53,1055.56 2172.16,1054.71 2175.8,1054.06 2179.43,1053.09 2183.06,1052.71 2186.69,1050.99 2190.33,1051.15 2193.96,1053.14 2197.59,1052.23 2201.22,1051.22 2204.85,1052.11 2208.49,1052.84 2212.12,1052.05 2215.75,1052.28 2219.38,1051.68 2223.01,1051.38 2226.65,1050.78 2230.28,1048.37 2233.91,1047.63 2237.54,1047.13 2241.18,1046.36 2244.81,1045.74 2248.44,1047.62 2252.07,1046.76 2255.7,1047.36 2259.34,1049.93 2262.97,1048.83 2266.6,1048.43 2270.23,1048.62 2273.87,1048.89 2277.5,1048.76 2281.13,1049.11 2284.76,1049.66 2288.39,1049.3 2292.03,1049.12 2295.66,1048.43 "/>
<path clip-path="url(#clip090)" d="M2031.33 272.585 L2285.51 272.585 L2285.51 168.905 L2031.33 168.905  Z" fill="#ffffff" fill-rule="evenodd" fill-opacity="1"/>
<polyline clip-path="url(#clip090)" style="stroke:#000000; stroke-linecap:round; stroke-linejoin:round; stroke-width:4; stroke-opacity:1; fill:none" points="2031.33,272.585 2285.51,272.585 2285.51,168.905 2031.33,168.905 2031.33,272.585 "/>
<polyline clip-path="url(#clip090)" style="stroke:#009af9; stroke-linecap:round; stroke-linejoin:round; stroke-width:4; stroke-opacity:1; fill:none" points="2053.75,220.745 2188.25,220.745 "/>
<path clip-path="url(#clip090)" d="M2224.5 240.432 Q2222.7 245.062 2220.99 246.474 Q2219.27 247.886 2216.4 247.886 L2213 247.886 L2213 244.321 L2215.5 244.321 Q2217.26 244.321 2218.23 243.488 Q2219.2 242.654 2220.38 239.552 L2221.15 237.608 L2210.66 212.099 L2215.18 212.099 L2223.28 232.377 L2231.38 212.099 L2235.89 212.099 L2224.5 240.432 Z" fill="#000000" fill-rule="nonzero" fill-opacity="1" /><path clip-path="url(#clip090)" d="M2243.18 234.089 L2250.82 234.089 L2250.82 207.724 L2242.51 209.391 L2242.51 205.131 L2250.78 203.465 L2255.45 203.465 L2255.45 234.089 L2263.09 234.089 L2263.09 238.025 L2243.18 238.025 L2243.18 234.089 Z" fill="#000000" fill-rule="nonzero" fill-opacity="1" /></svg>
