<?xml version="1.0" encoding="utf-8"?>
<svg xmlns="http://www.w3.org/2000/svg" xmlns:xlink="http://www.w3.org/1999/xlink" width="600" height="400" viewBox="0 0 2400 1600">
<defs>
  <clipPath id="clip530">
    <rect x="0" y="0" width="2400" height="1600"/>
  </clipPath>
</defs>
<path clip-path="url(#clip530)" d="M0 1600 L2400 1600 L2400 0 L0 0  Z" fill="#ffffff" fill-rule="evenodd" fill-opacity="1"/>
<defs>
  <clipPath id="clip531">
    <rect x="480" y="0" width="1681" height="1600"/>
  </clipPath>
</defs>
<path clip-path="url(#clip530)" d="M155.765 1486.45 L2352.76 1486.45 L2352.76 123.472 L155.765 123.472  Z" fill="#ffffff" fill-rule="evenodd" fill-opacity="1"/>
<defs>
  <clipPath id="clip532">
    <rect x="155" y="123" width="2198" height="1364"/>
  </clipPath>
</defs>
<polyline clip-path="url(#clip532)" style="stroke:#000000; stroke-linecap:round; stroke-linejoin:round; stroke-width:2; stroke-opacity:0.1; fill:none" points="217.944,1486.45 217.944,123.472 "/>
<polyline clip-path="url(#clip532)" style="stroke:#000000; stroke-linecap:round; stroke-linejoin:round; stroke-width:2; stroke-opacity:0.1; fill:none" points="425.207,1486.45 425.207,123.472 "/>
<polyline clip-path="url(#clip532)" style="stroke:#000000; stroke-linecap:round; stroke-linejoin:round; stroke-width:2; stroke-opacity:0.1; fill:none" points="632.47,1486.45 632.47,123.472 "/>
<polyline clip-path="url(#clip532)" style="stroke:#000000; stroke-linecap:round; stroke-linejoin:round; stroke-width:2; stroke-opacity:0.1; fill:none" points="839.734,1486.45 839.734,123.472 "/>
<polyline clip-path="url(#clip532)" style="stroke:#000000; stroke-linecap:round; stroke-linejoin:round; stroke-width:2; stroke-opacity:0.1; fill:none" points="1047,1486.45 1047,123.472 "/>
<polyline clip-path="url(#clip532)" style="stroke:#000000; stroke-linecap:round; stroke-linejoin:round; stroke-width:2; stroke-opacity:0.1; fill:none" points="1254.26,1486.45 1254.26,123.472 "/>
<polyline clip-path="url(#clip532)" style="stroke:#000000; stroke-linecap:round; stroke-linejoin:round; stroke-width:2; stroke-opacity:0.1; fill:none" points="1461.52,1486.45 1461.52,123.472 "/>
<polyline clip-path="url(#clip532)" style="stroke:#000000; stroke-linecap:round; stroke-linejoin:round; stroke-width:2; stroke-opacity:0.1; fill:none" points="1668.79,1486.45 1668.79,123.472 "/>
<polyline clip-path="url(#clip532)" style="stroke:#000000; stroke-linecap:round; stroke-linejoin:round; stroke-width:2; stroke-opacity:0.1; fill:none" points="1876.05,1486.45 1876.05,123.472 "/>
<polyline clip-path="url(#clip532)" style="stroke:#000000; stroke-linecap:round; stroke-linejoin:round; stroke-width:2; stroke-opacity:0.1; fill:none" points="2083.31,1486.45 2083.31,123.472 "/>
<polyline clip-path="url(#clip532)" style="stroke:#000000; stroke-linecap:round; stroke-linejoin:round; stroke-width:2; stroke-opacity:0.1; fill:none" points="2290.58,1486.45 2290.58,123.472 "/>
<polyline clip-path="url(#clip530)" style="stroke:#000000; stroke-linecap:round; stroke-linejoin:round; stroke-width:4; stroke-opacity:1; fill:none" points="155.765,1486.45 2352.76,1486.45 "/>
<polyline clip-path="url(#clip530)" style="stroke:#000000; stroke-linecap:round; stroke-linejoin:round; stroke-width:4; stroke-opacity:1; fill:none" points="217.944,1486.45 217.944,1467.55 "/>
<polyline clip-path="url(#clip530)" style="stroke:#000000; stroke-linecap:round; stroke-linejoin:round; stroke-width:4; stroke-opacity:1; fill:none" points="425.207,1486.45 425.207,1467.55 "/>
<polyline clip-path="url(#clip530)" style="stroke:#000000; stroke-linecap:round; stroke-linejoin:round; stroke-width:4; stroke-opacity:1; fill:none" points="632.47,1486.45 632.47,1467.55 "/>
<polyline clip-path="url(#clip530)" style="stroke:#000000; stroke-linecap:round; stroke-linejoin:round; stroke-width:4; stroke-opacity:1; fill:none" points="839.734,1486.45 839.734,1467.55 "/>
<polyline clip-path="url(#clip530)" style="stroke:#000000; stroke-linecap:round; stroke-linejoin:round; stroke-width:4; stroke-opacity:1; fill:none" points="1047,1486.45 1047,1467.55 "/>
<polyline clip-path="url(#clip530)" style="stroke:#000000; stroke-linecap:round; stroke-linejoin:round; stroke-width:4; stroke-opacity:1; fill:none" points="1254.26,1486.45 1254.26,1467.55 "/>
<polyline clip-path="url(#clip530)" style="stroke:#000000; stroke-linecap:round; stroke-linejoin:round; stroke-width:4; stroke-opacity:1; fill:none" points="1461.52,1486.45 1461.52,1467.55 "/>
<polyline clip-path="url(#clip530)" style="stroke:#000000; stroke-linecap:round; stroke-linejoin:round; stroke-width:4; stroke-opacity:1; fill:none" points="1668.79,1486.45 1668.79,1467.55 "/>
<polyline clip-path="url(#clip530)" style="stroke:#000000; stroke-linecap:round; stroke-linejoin:round; stroke-width:4; stroke-opacity:1; fill:none" points="1876.05,1486.45 1876.05,1467.55 "/>
<polyline clip-path="url(#clip530)" style="stroke:#000000; stroke-linecap:round; stroke-linejoin:round; stroke-width:4; stroke-opacity:1; fill:none" points="2083.31,1486.45 2083.31,1467.55 "/>
<polyline clip-path="url(#clip530)" style="stroke:#000000; stroke-linecap:round; stroke-linejoin:round; stroke-width:4; stroke-opacity:1; fill:none" points="2290.58,1486.45 2290.58,1467.55 "/>
<path clip-path="url(#clip530)" d="M182.134 1544.91 L198.453 1544.91 L198.453 1548.85 L176.509 1548.85 L176.509 1544.91 Q179.171 1542.16 183.754 1537.53 Q188.361 1532.88 189.541 1531.53 Q191.787 1529.01 192.666 1527.27 Q193.569 1525.51 193.569 1523.82 Q193.569 1521.07 191.625 1519.33 Q189.703 1517.6 186.601 1517.6 Q184.402 1517.6 181.949 1518.36 Q179.518 1519.13 176.74 1520.68 L176.74 1515.95 Q179.564 1514.82 182.018 1514.24 Q184.472 1513.66 186.509 1513.66 Q191.879 1513.66 195.074 1516.35 Q198.268 1519.03 198.268 1523.52 Q198.268 1525.65 197.458 1527.57 Q196.671 1529.47 194.564 1532.07 Q193.986 1532.74 190.884 1535.95 Q187.782 1539.15 182.134 1544.91 Z" fill="#000000" fill-rule="nonzero" fill-opacity="1" /><path clip-path="url(#clip530)" d="M212.296 1544.91 L228.615 1544.91 L228.615 1548.85 L206.671 1548.85 L206.671 1544.91 Q209.333 1542.16 213.916 1537.53 Q218.523 1532.88 219.703 1531.53 Q221.949 1529.01 222.828 1527.27 Q223.731 1525.51 223.731 1523.82 Q223.731 1521.07 221.786 1519.33 Q219.865 1517.6 216.763 1517.6 Q214.564 1517.6 212.111 1518.36 Q209.68 1519.13 206.902 1520.68 L206.902 1515.95 Q209.726 1514.82 212.18 1514.24 Q214.634 1513.66 216.671 1513.66 Q222.041 1513.66 225.236 1516.35 Q228.43 1519.03 228.43 1523.52 Q228.43 1525.65 227.62 1527.57 Q226.833 1529.47 224.726 1532.07 Q224.148 1532.74 221.046 1535.95 Q217.944 1539.15 212.296 1544.91 Z" fill="#000000" fill-rule="nonzero" fill-opacity="1" /><path clip-path="url(#clip530)" d="M238.476 1514.29 L256.833 1514.29 L256.833 1518.22 L242.759 1518.22 L242.759 1526.7 Q243.777 1526.35 244.796 1526.19 Q245.814 1526 246.833 1526 Q252.62 1526 255.999 1529.17 Q259.379 1532.34 259.379 1537.76 Q259.379 1543.34 255.907 1546.44 Q252.434 1549.52 246.115 1549.52 Q243.939 1549.52 241.671 1549.15 Q239.425 1548.78 237.018 1548.04 L237.018 1543.34 Q239.101 1544.47 241.323 1545.03 Q243.546 1545.58 246.022 1545.58 Q250.027 1545.58 252.365 1543.48 Q254.703 1541.37 254.703 1537.76 Q254.703 1534.15 252.365 1532.04 Q250.027 1529.94 246.022 1529.94 Q244.147 1529.94 242.272 1530.35 Q240.421 1530.77 238.476 1531.65 L238.476 1514.29 Z" fill="#000000" fill-rule="nonzero" fill-opacity="1" /><path clip-path="url(#clip530)" d="M388.9 1544.91 L405.219 1544.91 L405.219 1548.85 L383.275 1548.85 L383.275 1544.91 Q385.937 1542.16 390.52 1537.53 Q395.126 1532.88 396.307 1531.53 Q398.552 1529.01 399.432 1527.27 Q400.335 1525.51 400.335 1523.82 Q400.335 1521.07 398.39 1519.33 Q396.469 1517.6 393.367 1517.6 Q391.168 1517.6 388.714 1518.36 Q386.284 1519.13 383.506 1520.68 L383.506 1515.95 Q386.33 1514.82 388.784 1514.24 Q391.237 1513.66 393.274 1513.66 Q398.645 1513.66 401.839 1516.35 Q405.034 1519.03 405.034 1523.52 Q405.034 1525.65 404.224 1527.57 Q403.436 1529.47 401.33 1532.07 Q400.751 1532.74 397.649 1535.95 Q394.548 1539.15 388.9 1544.91 Z" fill="#000000" fill-rule="nonzero" fill-opacity="1" /><path clip-path="url(#clip530)" d="M415.08 1514.29 L433.436 1514.29 L433.436 1518.22 L419.362 1518.22 L419.362 1526.7 Q420.381 1526.35 421.399 1526.19 Q422.418 1526 423.436 1526 Q429.223 1526 432.603 1529.17 Q435.983 1532.34 435.983 1537.76 Q435.983 1543.34 432.51 1546.44 Q429.038 1549.52 422.719 1549.52 Q420.543 1549.52 418.274 1549.15 Q416.029 1548.78 413.622 1548.04 L413.622 1543.34 Q415.705 1544.47 417.927 1545.03 Q420.149 1545.58 422.626 1545.58 Q426.631 1545.58 428.969 1543.48 Q431.307 1541.37 431.307 1537.76 Q431.307 1534.15 428.969 1532.04 Q426.631 1529.94 422.626 1529.94 Q420.751 1529.94 418.876 1530.35 Q417.024 1530.77 415.08 1531.65 L415.08 1514.29 Z" fill="#000000" fill-rule="nonzero" fill-opacity="1" /><path clip-path="url(#clip530)" d="M455.195 1517.37 Q451.584 1517.37 449.756 1520.93 Q447.95 1524.47 447.95 1531.6 Q447.95 1538.71 449.756 1542.27 Q451.584 1545.82 455.195 1545.82 Q458.83 1545.82 460.635 1542.27 Q462.464 1538.71 462.464 1531.6 Q462.464 1524.47 460.635 1520.93 Q458.83 1517.37 455.195 1517.37 M455.195 1513.66 Q461.006 1513.66 464.061 1518.27 Q467.14 1522.85 467.14 1531.6 Q467.14 1540.33 464.061 1544.94 Q461.006 1549.52 455.195 1549.52 Q449.385 1549.52 446.307 1544.94 Q443.251 1540.33 443.251 1531.6 Q443.251 1522.85 446.307 1518.27 Q449.385 1513.66 455.195 1513.66 Z" fill="#000000" fill-rule="nonzero" fill-opacity="1" /><path clip-path="url(#clip530)" d="M596.661 1544.91 L612.98 1544.91 L612.98 1548.85 L591.036 1548.85 L591.036 1544.91 Q593.698 1542.16 598.281 1537.53 Q602.887 1532.88 604.068 1531.53 Q606.313 1529.01 607.193 1527.27 Q608.096 1525.51 608.096 1523.82 Q608.096 1521.07 606.151 1519.33 Q604.23 1517.6 601.128 1517.6 Q598.929 1517.6 596.475 1518.36 Q594.045 1519.13 591.267 1520.68 L591.267 1515.95 Q594.091 1514.82 596.545 1514.24 Q598.998 1513.66 601.035 1513.66 Q606.406 1513.66 609.6 1516.35 Q612.795 1519.03 612.795 1523.52 Q612.795 1525.65 611.984 1527.57 Q611.197 1529.47 609.091 1532.07 Q608.512 1532.74 605.41 1535.95 Q602.309 1539.15 596.661 1544.91 Z" fill="#000000" fill-rule="nonzero" fill-opacity="1" /><path clip-path="url(#clip530)" d="M621.614 1514.29 L643.836 1514.29 L643.836 1516.28 L631.29 1548.85 L626.406 1548.85 L638.211 1518.22 L621.614 1518.22 L621.614 1514.29 Z" fill="#000000" fill-rule="nonzero" fill-opacity="1" /><path clip-path="url(#clip530)" d="M653.003 1514.29 L671.359 1514.29 L671.359 1518.22 L657.285 1518.22 L657.285 1526.7 Q658.304 1526.35 659.322 1526.19 Q660.341 1526 661.359 1526 Q667.146 1526 670.526 1529.17 Q673.905 1532.34 673.905 1537.76 Q673.905 1543.34 670.433 1546.44 Q666.961 1549.52 660.642 1549.52 Q658.466 1549.52 656.197 1549.15 Q653.952 1548.78 651.544 1548.04 L651.544 1543.34 Q653.628 1544.47 655.85 1545.03 Q658.072 1545.58 660.549 1545.58 Q664.554 1545.58 666.892 1543.48 Q669.23 1541.37 669.23 1537.76 Q669.23 1534.15 666.892 1532.04 Q664.554 1529.94 660.549 1529.94 Q658.674 1529.94 656.799 1530.35 Q654.947 1530.77 653.003 1531.65 L653.003 1514.29 Z" fill="#000000" fill-rule="nonzero" fill-opacity="1" /><path clip-path="url(#clip530)" d="M813.496 1530.21 Q816.852 1530.93 818.727 1533.2 Q820.625 1535.47 820.625 1538.8 Q820.625 1543.92 817.107 1546.72 Q813.588 1549.52 807.107 1549.52 Q804.931 1549.52 802.616 1549.08 Q800.324 1548.66 797.871 1547.81 L797.871 1543.29 Q799.815 1544.43 802.13 1545.01 Q804.445 1545.58 806.968 1545.58 Q811.366 1545.58 813.658 1543.85 Q815.972 1542.11 815.972 1538.8 Q815.972 1535.75 813.82 1534.03 Q811.69 1532.3 807.871 1532.3 L803.843 1532.3 L803.843 1528.45 L808.056 1528.45 Q811.505 1528.45 813.333 1527.09 Q815.162 1525.7 815.162 1523.11 Q815.162 1520.45 813.264 1519.03 Q811.389 1517.6 807.871 1517.6 Q805.949 1517.6 803.75 1518.01 Q801.551 1518.43 798.912 1519.31 L798.912 1515.14 Q801.574 1514.4 803.889 1514.03 Q806.227 1513.66 808.287 1513.66 Q813.611 1513.66 816.713 1516.09 Q819.815 1518.5 819.815 1522.62 Q819.815 1525.49 818.171 1527.48 Q816.528 1529.45 813.496 1530.21 Z" fill="#000000" fill-rule="nonzero" fill-opacity="1" /><path clip-path="url(#clip530)" d="M839.491 1517.37 Q835.88 1517.37 834.051 1520.93 Q832.245 1524.47 832.245 1531.6 Q832.245 1538.71 834.051 1542.27 Q835.88 1545.82 839.491 1545.82 Q843.125 1545.82 844.931 1542.27 Q846.759 1538.71 846.759 1531.6 Q846.759 1524.47 844.931 1520.93 Q843.125 1517.37 839.491 1517.37 M839.491 1513.66 Q845.301 1513.66 848.356 1518.27 Q851.435 1522.85 851.435 1531.6 Q851.435 1540.33 848.356 1544.94 Q845.301 1549.52 839.491 1549.52 Q833.681 1549.52 830.602 1544.94 Q827.546 1540.33 827.546 1531.6 Q827.546 1522.85 830.602 1518.27 Q833.681 1513.66 839.491 1513.66 Z" fill="#000000" fill-rule="nonzero" fill-opacity="1" /><path clip-path="url(#clip530)" d="M869.653 1517.37 Q866.042 1517.37 864.213 1520.93 Q862.407 1524.47 862.407 1531.6 Q862.407 1538.71 864.213 1542.27 Q866.042 1545.82 869.653 1545.82 Q873.287 1545.82 875.092 1542.27 Q876.921 1538.71 876.921 1531.6 Q876.921 1524.47 875.092 1520.93 Q873.287 1517.37 869.653 1517.37 M869.653 1513.66 Q875.463 1513.66 878.518 1518.27 Q881.597 1522.85 881.597 1531.6 Q881.597 1540.33 878.518 1544.94 Q875.463 1549.52 869.653 1549.52 Q863.842 1549.52 860.764 1544.94 Q857.708 1540.33 857.708 1531.6 Q857.708 1522.85 860.764 1518.27 Q863.842 1513.66 869.653 1513.66 Z" fill="#000000" fill-rule="nonzero" fill-opacity="1" /><path clip-path="url(#clip530)" d="M1021.26 1530.21 Q1024.61 1530.93 1026.49 1533.2 Q1028.39 1535.47 1028.39 1538.8 Q1028.39 1543.92 1024.87 1546.72 Q1021.35 1549.52 1014.87 1549.52 Q1012.69 1549.52 1010.38 1549.08 Q1008.09 1548.66 1005.63 1547.81 L1005.63 1543.29 Q1007.58 1544.43 1009.89 1545.01 Q1012.21 1545.58 1014.73 1545.58 Q1019.13 1545.58 1021.42 1543.85 Q1023.73 1542.11 1023.73 1538.8 Q1023.73 1535.75 1021.58 1534.03 Q1019.45 1532.3 1015.63 1532.3 L1011.6 1532.3 L1011.6 1528.45 L1015.82 1528.45 Q1019.27 1528.45 1021.09 1527.09 Q1022.92 1525.7 1022.92 1523.11 Q1022.92 1520.45 1021.03 1519.03 Q1019.15 1517.6 1015.63 1517.6 Q1013.71 1517.6 1011.51 1518.01 Q1009.31 1518.43 1006.67 1519.31 L1006.67 1515.14 Q1009.34 1514.4 1011.65 1514.03 Q1013.99 1513.66 1016.05 1513.66 Q1021.37 1513.66 1024.47 1516.09 Q1027.58 1518.5 1027.58 1522.62 Q1027.58 1525.49 1025.93 1527.48 Q1024.29 1529.45 1021.26 1530.21 Z" fill="#000000" fill-rule="nonzero" fill-opacity="1" /><path clip-path="url(#clip530)" d="M1041.28 1544.91 L1057.6 1544.91 L1057.6 1548.85 L1035.65 1548.85 L1035.65 1544.91 Q1038.32 1542.16 1042.9 1537.53 Q1047.51 1532.88 1048.69 1531.53 Q1050.93 1529.01 1051.81 1527.27 Q1052.71 1525.51 1052.71 1523.82 Q1052.71 1521.07 1050.77 1519.33 Q1048.85 1517.6 1045.75 1517.6 Q1043.55 1517.6 1041.09 1518.36 Q1038.66 1519.13 1035.89 1520.68 L1035.89 1515.95 Q1038.71 1514.82 1041.16 1514.24 Q1043.62 1513.66 1045.65 1513.66 Q1051.02 1513.66 1054.22 1516.35 Q1057.41 1519.03 1057.41 1523.52 Q1057.41 1525.65 1056.6 1527.57 Q1055.82 1529.47 1053.71 1532.07 Q1053.13 1532.74 1050.03 1535.95 Q1046.93 1539.15 1041.28 1544.91 Z" fill="#000000" fill-rule="nonzero" fill-opacity="1" /><path clip-path="url(#clip530)" d="M1067.46 1514.29 L1085.82 1514.29 L1085.82 1518.22 L1071.74 1518.22 L1071.74 1526.7 Q1072.76 1526.35 1073.78 1526.19 Q1074.8 1526 1075.82 1526 Q1081.6 1526 1084.98 1529.17 Q1088.36 1532.34 1088.36 1537.76 Q1088.36 1543.34 1084.89 1546.44 Q1081.42 1549.52 1075.1 1549.52 Q1072.92 1549.52 1070.65 1549.15 Q1068.41 1548.78 1066 1548.04 L1066 1543.34 Q1068.08 1544.47 1070.31 1545.03 Q1072.53 1545.58 1075.01 1545.58 Q1079.01 1545.58 1081.35 1543.48 Q1083.69 1541.37 1083.69 1537.76 Q1083.69 1534.15 1081.35 1532.04 Q1079.01 1529.94 1075.01 1529.94 Q1073.13 1529.94 1071.26 1530.35 Q1069.4 1530.77 1067.46 1531.65 L1067.46 1514.29 Z" fill="#000000" fill-rule="nonzero" fill-opacity="1" /><path clip-path="url(#clip530)" d="M1228.02 1530.21 Q1231.38 1530.93 1233.25 1533.2 Q1235.15 1535.47 1235.15 1538.8 Q1235.15 1543.92 1231.63 1546.72 Q1228.11 1549.52 1221.63 1549.52 Q1219.46 1549.52 1217.14 1549.08 Q1214.85 1548.66 1212.4 1547.81 L1212.4 1543.29 Q1214.34 1544.43 1216.66 1545.01 Q1218.97 1545.58 1221.49 1545.58 Q1225.89 1545.58 1228.18 1543.85 Q1230.5 1542.11 1230.5 1538.8 Q1230.5 1535.75 1228.35 1534.03 Q1226.22 1532.3 1222.4 1532.3 L1218.37 1532.3 L1218.37 1528.45 L1222.58 1528.45 Q1226.03 1528.45 1227.86 1527.09 Q1229.69 1525.7 1229.69 1523.11 Q1229.69 1520.45 1227.79 1519.03 Q1225.92 1517.6 1222.4 1517.6 Q1220.48 1517.6 1218.28 1518.01 Q1216.08 1518.43 1213.44 1519.31 L1213.44 1515.14 Q1216.1 1514.4 1218.42 1514.03 Q1220.75 1513.66 1222.81 1513.66 Q1228.14 1513.66 1231.24 1516.09 Q1234.34 1518.5 1234.34 1522.62 Q1234.34 1525.49 1232.7 1527.48 Q1231.05 1529.45 1228.02 1530.21 Z" fill="#000000" fill-rule="nonzero" fill-opacity="1" /><path clip-path="url(#clip530)" d="M1244.06 1514.29 L1262.42 1514.29 L1262.42 1518.22 L1248.35 1518.22 L1248.35 1526.7 Q1249.36 1526.35 1250.38 1526.19 Q1251.4 1526 1252.42 1526 Q1258.21 1526 1261.59 1529.17 Q1264.97 1532.34 1264.97 1537.76 Q1264.97 1543.34 1261.49 1546.44 Q1258.02 1549.52 1251.7 1549.52 Q1249.53 1549.52 1247.26 1549.15 Q1245.01 1548.78 1242.61 1548.04 L1242.61 1543.34 Q1244.69 1544.47 1246.91 1545.03 Q1249.13 1545.58 1251.61 1545.58 Q1255.61 1545.58 1257.95 1543.48 Q1260.29 1541.37 1260.29 1537.76 Q1260.29 1534.15 1257.95 1532.04 Q1255.61 1529.94 1251.61 1529.94 Q1249.73 1529.94 1247.86 1530.35 Q1246.01 1530.77 1244.06 1531.65 L1244.06 1514.29 Z" fill="#000000" fill-rule="nonzero" fill-opacity="1" /><path clip-path="url(#clip530)" d="M1284.18 1517.37 Q1280.57 1517.37 1278.74 1520.93 Q1276.93 1524.47 1276.93 1531.6 Q1276.93 1538.71 1278.74 1542.27 Q1280.57 1545.82 1284.18 1545.82 Q1287.81 1545.82 1289.62 1542.27 Q1291.45 1538.71 1291.45 1531.6 Q1291.45 1524.47 1289.62 1520.93 Q1287.81 1517.37 1284.18 1517.37 M1284.18 1513.66 Q1289.99 1513.66 1293.04 1518.27 Q1296.12 1522.85 1296.12 1531.6 Q1296.12 1540.33 1293.04 1544.94 Q1289.99 1549.52 1284.18 1549.52 Q1278.37 1549.52 1275.29 1544.94 Q1272.23 1540.33 1272.23 1531.6 Q1272.23 1522.85 1275.29 1518.27 Q1278.37 1513.66 1284.18 1513.66 Z" fill="#000000" fill-rule="nonzero" fill-opacity="1" /><path clip-path="url(#clip530)" d="M1435.78 1530.21 Q1439.14 1530.93 1441.01 1533.2 Q1442.91 1535.47 1442.91 1538.8 Q1442.91 1543.92 1439.39 1546.72 Q1435.88 1549.52 1429.39 1549.52 Q1427.22 1549.52 1424.9 1549.08 Q1422.61 1548.66 1420.16 1547.81 L1420.16 1543.29 Q1422.1 1544.43 1424.42 1545.01 Q1426.73 1545.58 1429.26 1545.58 Q1433.65 1545.58 1435.95 1543.85 Q1438.26 1542.11 1438.26 1538.8 Q1438.26 1535.75 1436.11 1534.03 Q1433.98 1532.3 1430.16 1532.3 L1426.13 1532.3 L1426.13 1528.45 L1430.34 1528.45 Q1433.79 1528.45 1435.62 1527.09 Q1437.45 1525.7 1437.45 1523.11 Q1437.45 1520.45 1435.55 1519.03 Q1433.68 1517.6 1430.16 1517.6 Q1428.24 1517.6 1426.04 1518.01 Q1423.84 1518.43 1421.2 1519.31 L1421.2 1515.14 Q1423.86 1514.4 1426.18 1514.03 Q1428.51 1513.66 1430.57 1513.66 Q1435.9 1513.66 1439 1516.09 Q1442.1 1518.5 1442.1 1522.62 Q1442.1 1525.49 1440.46 1527.48 Q1438.82 1529.45 1435.78 1530.21 Z" fill="#000000" fill-rule="nonzero" fill-opacity="1" /><path clip-path="url(#clip530)" d="M1450.6 1514.29 L1472.82 1514.29 L1472.82 1516.28 L1460.27 1548.85 L1455.39 1548.85 L1467.19 1518.22 L1450.6 1518.22 L1450.6 1514.29 Z" fill="#000000" fill-rule="nonzero" fill-opacity="1" /><path clip-path="url(#clip530)" d="M1481.99 1514.29 L1500.34 1514.29 L1500.34 1518.22 L1486.27 1518.22 L1486.27 1526.7 Q1487.29 1526.35 1488.31 1526.19 Q1489.32 1526 1490.34 1526 Q1496.13 1526 1499.51 1529.17 Q1502.89 1532.34 1502.89 1537.76 Q1502.89 1543.34 1499.42 1546.44 Q1495.94 1549.52 1489.63 1549.52 Q1487.45 1549.52 1485.18 1549.15 Q1482.94 1548.78 1480.53 1548.04 L1480.53 1543.34 Q1482.61 1544.47 1484.83 1545.03 Q1487.06 1545.58 1489.53 1545.58 Q1493.54 1545.58 1495.88 1543.48 Q1498.21 1541.37 1498.21 1537.76 Q1498.21 1534.15 1495.88 1532.04 Q1493.54 1529.94 1489.53 1529.94 Q1487.66 1529.94 1485.78 1530.35 Q1483.93 1530.77 1481.99 1531.65 L1481.99 1514.29 Z" fill="#000000" fill-rule="nonzero" fill-opacity="1" /><path clip-path="url(#clip530)" d="M1641.88 1518.36 L1630.07 1536.81 L1641.88 1536.81 L1641.88 1518.36 M1640.65 1514.29 L1646.53 1514.29 L1646.53 1536.81 L1651.46 1536.81 L1651.46 1540.7 L1646.53 1540.7 L1646.53 1548.85 L1641.88 1548.85 L1641.88 1540.7 L1626.28 1540.7 L1626.28 1536.19 L1640.65 1514.29 Z" fill="#000000" fill-rule="nonzero" fill-opacity="1" /><path clip-path="url(#clip530)" d="M1669.19 1517.37 Q1665.58 1517.37 1663.75 1520.93 Q1661.95 1524.47 1661.95 1531.6 Q1661.95 1538.71 1663.75 1542.27 Q1665.58 1545.82 1669.19 1545.82 Q1672.83 1545.82 1674.63 1542.27 Q1676.46 1538.71 1676.46 1531.6 Q1676.46 1524.47 1674.63 1520.93 Q1672.83 1517.37 1669.19 1517.37 M1669.19 1513.66 Q1675 1513.66 1678.06 1518.27 Q1681.14 1522.85 1681.14 1531.6 Q1681.14 1540.33 1678.06 1544.94 Q1675 1549.52 1669.19 1549.52 Q1663.38 1549.52 1660.3 1544.94 Q1657.25 1540.33 1657.25 1531.6 Q1657.25 1522.85 1660.3 1518.27 Q1663.38 1513.66 1669.19 1513.66 Z" fill="#000000" fill-rule="nonzero" fill-opacity="1" /><path clip-path="url(#clip530)" d="M1699.35 1517.37 Q1695.74 1517.37 1693.91 1520.93 Q1692.11 1524.47 1692.11 1531.6 Q1692.11 1538.71 1693.91 1542.27 Q1695.74 1545.82 1699.35 1545.82 Q1702.99 1545.82 1704.79 1542.27 Q1706.62 1538.71 1706.62 1531.6 Q1706.62 1524.47 1704.79 1520.93 Q1702.99 1517.37 1699.35 1517.37 M1699.35 1513.66 Q1705.16 1513.66 1708.22 1518.27 Q1711.3 1522.85 1711.3 1531.6 Q1711.3 1540.33 1708.22 1544.94 Q1705.16 1549.52 1699.35 1549.52 Q1693.54 1549.52 1690.47 1544.94 Q1687.41 1540.33 1687.41 1531.6 Q1687.41 1522.85 1690.47 1518.27 Q1693.54 1513.66 1699.35 1513.66 Z" fill="#000000" fill-rule="nonzero" fill-opacity="1" /><path clip-path="url(#clip530)" d="M1849.64 1518.36 L1837.83 1536.81 L1849.64 1536.81 L1849.64 1518.36 M1848.41 1514.29 L1854.29 1514.29 L1854.29 1536.81 L1859.22 1536.81 L1859.22 1540.7 L1854.29 1540.7 L1854.29 1548.85 L1849.64 1548.85 L1849.64 1540.7 L1834.04 1540.7 L1834.04 1536.19 L1848.41 1514.29 Z" fill="#000000" fill-rule="nonzero" fill-opacity="1" /><path clip-path="url(#clip530)" d="M1870.98 1544.91 L1887.3 1544.91 L1887.3 1548.85 L1865.36 1548.85 L1865.36 1544.91 Q1868.02 1542.16 1872.6 1537.53 Q1877.21 1532.88 1878.39 1531.53 Q1880.63 1529.01 1881.51 1527.27 Q1882.42 1525.51 1882.42 1523.82 Q1882.42 1521.07 1880.47 1519.33 Q1878.55 1517.6 1875.45 1517.6 Q1873.25 1517.6 1870.8 1518.36 Q1868.37 1519.13 1865.59 1520.68 L1865.59 1515.95 Q1868.41 1514.82 1870.87 1514.24 Q1873.32 1513.66 1875.36 1513.66 Q1880.73 1513.66 1883.92 1516.35 Q1887.12 1519.03 1887.12 1523.52 Q1887.12 1525.65 1886.3 1527.57 Q1885.52 1529.47 1883.41 1532.07 Q1882.83 1532.74 1879.73 1535.95 Q1876.63 1539.15 1870.98 1544.91 Z" fill="#000000" fill-rule="nonzero" fill-opacity="1" /><path clip-path="url(#clip530)" d="M1897.16 1514.29 L1915.52 1514.29 L1915.52 1518.22 L1901.44 1518.22 L1901.44 1526.7 Q1902.46 1526.35 1903.48 1526.19 Q1904.5 1526 1905.52 1526 Q1911.3 1526 1914.68 1529.17 Q1918.06 1532.34 1918.06 1537.76 Q1918.06 1543.34 1914.59 1546.44 Q1911.12 1549.52 1904.8 1549.52 Q1902.62 1549.52 1900.36 1549.15 Q1898.11 1548.78 1895.7 1548.04 L1895.7 1543.34 Q1897.79 1544.47 1900.01 1545.03 Q1902.23 1545.58 1904.71 1545.58 Q1908.71 1545.58 1911.05 1543.48 Q1913.39 1541.37 1913.39 1537.76 Q1913.39 1534.15 1911.05 1532.04 Q1908.71 1529.94 1904.71 1529.94 Q1902.83 1529.94 1900.96 1530.35 Q1899.11 1530.77 1897.16 1531.65 L1897.16 1514.29 Z" fill="#000000" fill-rule="nonzero" fill-opacity="1" /><path clip-path="url(#clip530)" d="M2056.4 1518.36 L2044.6 1536.81 L2056.4 1536.81 L2056.4 1518.36 M2055.18 1514.29 L2061.06 1514.29 L2061.06 1536.81 L2065.99 1536.81 L2065.99 1540.7 L2061.06 1540.7 L2061.06 1548.85 L2056.4 1548.85 L2056.4 1540.7 L2040.8 1540.7 L2040.8 1536.19 L2055.18 1514.29 Z" fill="#000000" fill-rule="nonzero" fill-opacity="1" /><path clip-path="url(#clip530)" d="M2073.77 1514.29 L2092.12 1514.29 L2092.12 1518.22 L2078.05 1518.22 L2078.05 1526.7 Q2079.07 1526.35 2080.08 1526.19 Q2081.1 1526 2082.12 1526 Q2087.91 1526 2091.29 1529.17 Q2094.67 1532.34 2094.67 1537.76 Q2094.67 1543.34 2091.2 1546.44 Q2087.72 1549.52 2081.4 1549.52 Q2079.23 1549.52 2076.96 1549.15 Q2074.71 1548.78 2072.31 1548.04 L2072.31 1543.34 Q2074.39 1544.47 2076.61 1545.03 Q2078.83 1545.58 2081.31 1545.58 Q2085.32 1545.58 2087.65 1543.48 Q2089.99 1541.37 2089.99 1537.76 Q2089.99 1534.15 2087.65 1532.04 Q2085.32 1529.94 2081.31 1529.94 Q2079.44 1529.94 2077.56 1530.35 Q2075.71 1530.77 2073.77 1531.65 L2073.77 1514.29 Z" fill="#000000" fill-rule="nonzero" fill-opacity="1" /><path clip-path="url(#clip530)" d="M2113.88 1517.37 Q2110.27 1517.37 2108.44 1520.93 Q2106.64 1524.47 2106.64 1531.6 Q2106.64 1538.71 2108.44 1542.27 Q2110.27 1545.82 2113.88 1545.82 Q2117.51 1545.82 2119.32 1542.27 Q2121.15 1538.71 2121.15 1531.6 Q2121.15 1524.47 2119.32 1520.93 Q2117.51 1517.37 2113.88 1517.37 M2113.88 1513.66 Q2119.69 1513.66 2122.75 1518.27 Q2125.82 1522.85 2125.82 1531.6 Q2125.82 1540.33 2122.75 1544.94 Q2119.69 1549.52 2113.88 1549.52 Q2108.07 1549.52 2104.99 1544.94 Q2101.94 1540.33 2101.94 1531.6 Q2101.94 1522.85 2104.99 1518.27 Q2108.07 1513.66 2113.88 1513.66 Z" fill="#000000" fill-rule="nonzero" fill-opacity="1" /><path clip-path="url(#clip530)" d="M2264.17 1518.36 L2252.36 1536.81 L2264.17 1536.81 L2264.17 1518.36 M2262.94 1514.29 L2268.82 1514.29 L2268.82 1536.81 L2273.75 1536.81 L2273.75 1540.7 L2268.82 1540.7 L2268.82 1548.85 L2264.17 1548.85 L2264.17 1540.7 L2248.56 1540.7 L2248.56 1536.19 L2262.94 1514.29 Z" fill="#000000" fill-rule="nonzero" fill-opacity="1" /><path clip-path="url(#clip530)" d="M2280.3 1514.29 L2302.52 1514.29 L2302.52 1516.28 L2289.98 1548.85 L2285.09 1548.85 L2296.9 1518.22 L2280.3 1518.22 L2280.3 1514.29 Z" fill="#000000" fill-rule="nonzero" fill-opacity="1" /><path clip-path="url(#clip530)" d="M2311.69 1514.29 L2330.04 1514.29 L2330.04 1518.22 L2315.97 1518.22 L2315.97 1526.7 Q2316.99 1526.35 2318.01 1526.19 Q2319.03 1526 2320.04 1526 Q2325.83 1526 2329.21 1529.17 Q2332.59 1532.34 2332.59 1537.76 Q2332.59 1543.34 2329.12 1546.44 Q2325.65 1549.52 2319.33 1549.52 Q2317.15 1549.52 2314.88 1549.15 Q2312.64 1548.78 2310.23 1548.04 L2310.23 1543.34 Q2312.31 1544.47 2314.54 1545.03 Q2316.76 1545.58 2319.23 1545.58 Q2323.24 1545.58 2325.58 1543.48 Q2327.91 1541.37 2327.91 1537.76 Q2327.91 1534.15 2325.58 1532.04 Q2323.24 1529.94 2319.23 1529.94 Q2317.36 1529.94 2315.48 1530.35 Q2313.63 1530.77 2311.69 1531.65 L2311.69 1514.29 Z" fill="#000000" fill-rule="nonzero" fill-opacity="1" /><polyline clip-path="url(#clip532)" style="stroke:#000000; stroke-linecap:round; stroke-linejoin:round; stroke-width:2; stroke-opacity:0.1; fill:none" points="155.765,1439.61 2352.76,1439.61 "/>
<polyline clip-path="url(#clip532)" style="stroke:#000000; stroke-linecap:round; stroke-linejoin:round; stroke-width:2; stroke-opacity:0.1; fill:none" points="155.765,1153.85 2352.76,1153.85 "/>
<polyline clip-path="url(#clip532)" style="stroke:#000000; stroke-linecap:round; stroke-linejoin:round; stroke-width:2; stroke-opacity:0.1; fill:none" points="155.765,868.086 2352.76,868.086 "/>
<polyline clip-path="url(#clip532)" style="stroke:#000000; stroke-linecap:round; stroke-linejoin:round; stroke-width:2; stroke-opacity:0.1; fill:none" points="155.765,582.325 2352.76,582.325 "/>
<polyline clip-path="url(#clip532)" style="stroke:#000000; stroke-linecap:round; stroke-linejoin:round; stroke-width:2; stroke-opacity:0.1; fill:none" points="155.765,296.563 2352.76,296.563 "/>
<polyline clip-path="url(#clip530)" style="stroke:#000000; stroke-linecap:round; stroke-linejoin:round; stroke-width:4; stroke-opacity:1; fill:none" points="155.765,1486.45 155.765,123.472 "/>
<polyline clip-path="url(#clip530)" style="stroke:#000000; stroke-linecap:round; stroke-linejoin:round; stroke-width:4; stroke-opacity:1; fill:none" points="155.765,1439.61 174.663,1439.61 "/>
<polyline clip-path="url(#clip530)" style="stroke:#000000; stroke-linecap:round; stroke-linejoin:round; stroke-width:4; stroke-opacity:1; fill:none" points="155.765,1153.85 174.663,1153.85 "/>
<polyline clip-path="url(#clip530)" style="stroke:#000000; stroke-linecap:round; stroke-linejoin:round; stroke-width:4; stroke-opacity:1; fill:none" points="155.765,868.086 174.663,868.086 "/>
<polyline clip-path="url(#clip530)" style="stroke:#000000; stroke-linecap:round; stroke-linejoin:round; stroke-width:4; stroke-opacity:1; fill:none" points="155.765,582.325 174.663,582.325 "/>
<polyline clip-path="url(#clip530)" style="stroke:#000000; stroke-linecap:round; stroke-linejoin:round; stroke-width:4; stroke-opacity:1; fill:none" points="155.765,296.563 174.663,296.563 "/>
<path clip-path="url(#clip530)" d="M53.3995 1452.95 L61.0384 1452.95 L61.0384 1426.59 L52.7282 1428.26 L52.7282 1424 L60.9921 1422.33 L65.668 1422.33 L65.668 1452.95 L73.3068 1452.95 L73.3068 1456.89 L53.3995 1456.89 L53.3995 1452.95 Z" fill="#000000" fill-rule="nonzero" fill-opacity="1" /><path clip-path="url(#clip530)" d="M82.7512 1451.01 L87.6354 1451.01 L87.6354 1456.89 L82.7512 1456.89 L82.7512 1451.01 Z" fill="#000000" fill-rule="nonzero" fill-opacity="1" /><path clip-path="url(#clip530)" d="M107.821 1425.41 Q104.209 1425.41 102.381 1428.97 Q100.575 1432.51 100.575 1439.64 Q100.575 1446.75 102.381 1450.32 Q104.209 1453.86 107.821 1453.86 Q111.455 1453.86 113.26 1450.32 Q115.089 1446.75 115.089 1439.64 Q115.089 1432.51 113.26 1428.97 Q111.455 1425.41 107.821 1425.41 M107.821 1421.7 Q113.631 1421.7 116.686 1426.31 Q119.765 1430.89 119.765 1439.64 Q119.765 1448.37 116.686 1452.98 Q113.631 1457.56 107.821 1457.56 Q102.01 1457.56 98.9317 1452.98 Q95.8761 1448.37 95.8761 1439.64 Q95.8761 1430.89 98.9317 1426.31 Q102.01 1421.7 107.821 1421.7 Z" fill="#000000" fill-rule="nonzero" fill-opacity="1" /><path clip-path="url(#clip530)" d="M54.3949 1167.19 L62.0337 1167.19 L62.0337 1140.83 L53.7236 1142.49 L53.7236 1138.23 L61.9874 1136.57 L66.6633 1136.57 L66.6633 1167.19 L74.3022 1167.19 L74.3022 1171.13 L54.3949 1171.13 L54.3949 1167.19 Z" fill="#000000" fill-rule="nonzero" fill-opacity="1" /><path clip-path="url(#clip530)" d="M83.7466 1165.25 L88.6308 1165.25 L88.6308 1171.13 L83.7466 1171.13 L83.7466 1165.25 Z" fill="#000000" fill-rule="nonzero" fill-opacity="1" /><path clip-path="url(#clip530)" d="M98.8622 1136.57 L117.219 1136.57 L117.219 1140.5 L103.145 1140.5 L103.145 1148.98 Q104.163 1148.63 105.182 1148.47 Q106.2 1148.28 107.219 1148.28 Q113.006 1148.28 116.385 1151.45 Q119.765 1154.62 119.765 1160.04 Q119.765 1165.62 116.293 1168.72 Q112.82 1171.8 106.501 1171.8 Q104.325 1171.8 102.057 1171.43 Q99.8113 1171.06 97.4039 1170.32 L97.4039 1165.62 Q99.4872 1166.75 101.709 1167.31 Q103.932 1167.86 106.408 1167.86 Q110.413 1167.86 112.751 1165.76 Q115.089 1163.65 115.089 1160.04 Q115.089 1156.43 112.751 1154.32 Q110.413 1152.22 106.408 1152.22 Q104.534 1152.22 102.659 1152.63 Q100.807 1153.05 98.8622 1153.93 L98.8622 1136.57 Z" fill="#000000" fill-rule="nonzero" fill-opacity="1" /><path clip-path="url(#clip530)" d="M56.6171 881.431 L72.9365 881.431 L72.9365 885.366 L50.9921 885.366 L50.9921 881.431 Q53.6541 878.676 58.2375 874.047 Q62.8439 869.394 64.0245 868.051 Q66.2698 865.528 67.1494 863.792 Q68.0522 862.033 68.0522 860.343 Q68.0522 857.589 66.1078 855.852 Q64.1865 854.116 61.0847 854.116 Q58.8856 854.116 56.4319 854.88 Q54.0014 855.644 51.2236 857.195 L51.2236 852.473 Q54.0477 851.339 56.5014 850.76 Q58.955 850.181 60.9921 850.181 Q66.3624 850.181 69.5568 852.866 Q72.7513 855.551 72.7513 860.042 Q72.7513 862.172 71.9411 864.093 Q71.1541 865.991 69.0476 868.584 Q68.4689 869.255 65.367 872.473 Q62.2652 875.667 56.6171 881.431 Z" fill="#000000" fill-rule="nonzero" fill-opacity="1" /><path clip-path="url(#clip530)" d="M82.7512 879.487 L87.6354 879.487 L87.6354 885.366 L82.7512 885.366 L82.7512 879.487 Z" fill="#000000" fill-rule="nonzero" fill-opacity="1" /><path clip-path="url(#clip530)" d="M107.821 853.885 Q104.209 853.885 102.381 857.45 Q100.575 860.991 100.575 868.121 Q100.575 875.227 102.381 878.792 Q104.209 882.334 107.821 882.334 Q111.455 882.334 113.26 878.792 Q115.089 875.227 115.089 868.121 Q115.089 860.991 113.26 857.45 Q111.455 853.885 107.821 853.885 M107.821 850.181 Q113.631 850.181 116.686 854.788 Q119.765 859.371 119.765 868.121 Q119.765 876.848 116.686 881.454 Q113.631 886.037 107.821 886.037 Q102.01 886.037 98.9317 881.454 Q95.8761 876.848 95.8761 868.121 Q95.8761 859.371 98.9317 854.788 Q102.01 850.181 107.821 850.181 Z" fill="#000000" fill-rule="nonzero" fill-opacity="1" /><path clip-path="url(#clip530)" d="M57.6125 595.669 L73.9318 595.669 L73.9318 599.605 L51.9875 599.605 L51.9875 595.669 Q54.6495 592.915 59.2328 588.285 Q63.8393 583.632 65.0198 582.29 Q67.2652 579.767 68.1448 578.031 Q69.0476 576.271 69.0476 574.581 Q69.0476 571.827 67.1032 570.091 Q65.1819 568.355 62.08 568.355 Q59.881 568.355 57.4273 569.119 Q54.9967 569.882 52.219 571.433 L52.219 566.711 Q55.043 565.577 57.4967 564.998 Q59.9504 564.42 61.9874 564.42 Q67.3578 564.42 70.5522 567.105 Q73.7466 569.79 73.7466 574.281 Q73.7466 576.41 72.9365 578.331 Q72.1494 580.23 70.0429 582.822 Q69.4642 583.493 66.3624 586.711 Q63.2606 589.905 57.6125 595.669 Z" fill="#000000" fill-rule="nonzero" fill-opacity="1" /><path clip-path="url(#clip530)" d="M83.7466 593.725 L88.6308 593.725 L88.6308 599.605 L83.7466 599.605 L83.7466 593.725 Z" fill="#000000" fill-rule="nonzero" fill-opacity="1" /><path clip-path="url(#clip530)" d="M98.8622 565.045 L117.219 565.045 L117.219 568.98 L103.145 568.98 L103.145 577.452 Q104.163 577.105 105.182 576.943 Q106.2 576.757 107.219 576.757 Q113.006 576.757 116.385 579.929 Q119.765 583.1 119.765 588.517 Q119.765 594.095 116.293 597.197 Q112.82 600.276 106.501 600.276 Q104.325 600.276 102.057 599.905 Q99.8113 599.535 97.4039 598.794 L97.4039 594.095 Q99.4872 595.23 101.709 595.785 Q103.932 596.341 106.408 596.341 Q110.413 596.341 112.751 594.234 Q115.089 592.128 115.089 588.517 Q115.089 584.906 112.751 582.799 Q110.413 580.693 106.408 580.693 Q104.534 580.693 102.659 581.109 Q100.807 581.526 98.8622 582.406 L98.8622 565.045 Z" fill="#000000" fill-rule="nonzero" fill-opacity="1" /><path clip-path="url(#clip530)" d="M66.7559 295.209 Q70.1124 295.926 71.9874 298.195 Q73.8855 300.463 73.8855 303.797 Q73.8855 308.912 70.367 311.713 Q66.8485 314.514 60.3671 314.514 Q58.1912 314.514 55.8764 314.074 Q53.5847 313.658 51.131 312.801 L51.131 308.287 Q53.0754 309.422 55.3903 310 Q57.7051 310.579 60.2282 310.579 Q64.6263 310.579 66.918 308.843 Q69.2328 307.107 69.2328 303.797 Q69.2328 300.741 67.08 299.028 Q64.9504 297.292 61.131 297.292 L57.1032 297.292 L57.1032 293.449 L61.3161 293.449 Q64.7652 293.449 66.5939 292.084 Q68.4226 290.695 68.4226 288.102 Q68.4226 285.44 66.5245 284.028 Q64.6495 282.593 61.131 282.593 Q59.2097 282.593 57.0106 283.01 Q54.8115 283.426 52.1727 284.306 L52.1727 280.139 Q54.8347 279.399 57.1495 279.028 Q59.4875 278.658 61.5476 278.658 Q66.8717 278.658 69.9735 281.088 Q73.0753 283.496 73.0753 287.616 Q73.0753 290.487 71.4318 292.477 Q69.7883 294.445 66.7559 295.209 Z" fill="#000000" fill-rule="nonzero" fill-opacity="1" /><path clip-path="url(#clip530)" d="M82.7512 307.963 L87.6354 307.963 L87.6354 313.843 L82.7512 313.843 L82.7512 307.963 Z" fill="#000000" fill-rule="nonzero" fill-opacity="1" /><path clip-path="url(#clip530)" d="M107.821 282.362 Q104.209 282.362 102.381 285.926 Q100.575 289.468 100.575 296.598 Q100.575 303.704 102.381 307.269 Q104.209 310.81 107.821 310.81 Q111.455 310.81 113.26 307.269 Q115.089 303.704 115.089 296.598 Q115.089 289.468 113.26 285.926 Q111.455 282.362 107.821 282.362 M107.821 278.658 Q113.631 278.658 116.686 283.264 Q119.765 287.848 119.765 296.598 Q119.765 305.324 116.686 309.931 Q113.631 314.514 107.821 314.514 Q102.01 314.514 98.9317 309.931 Q95.8761 305.324 95.8761 296.598 Q95.8761 287.848 98.9317 283.264 Q102.01 278.658 107.821 278.658 Z" fill="#000000" fill-rule="nonzero" fill-opacity="1" /><path clip-path="url(#clip530)" d="M676.298 14.0809 L676.298 22.0612 Q671.639 19.8332 667.507 18.7395 Q663.375 17.6457 659.527 17.6457 Q652.843 17.6457 649.197 20.2383 Q645.592 22.8309 645.592 27.611 Q645.592 31.6214 647.982 33.6873 Q650.412 35.7128 657.137 36.9686 L662.079 37.9813 Q671.234 39.7232 675.568 44.1387 Q679.943 48.5136 679.943 55.8863 Q679.943 64.6767 674.029 69.2137 Q668.155 73.7508 656.772 73.7508 Q652.478 73.7508 647.617 72.7785 Q642.797 71.8063 637.612 69.9024 L637.612 61.4765 Q642.594 64.2716 647.374 65.6895 Q652.154 67.1073 656.772 67.1073 Q663.78 67.1073 667.588 64.3527 Q671.396 61.598 671.396 56.4939 Q671.396 52.0379 668.641 49.5264 Q665.927 47.0148 659.689 45.759 L654.706 44.7868 Q645.551 42.9639 641.46 39.075 Q637.368 35.1862 637.368 28.2591 Q637.368 20.2383 642.999 15.6203 Q648.67 11.0023 658.595 11.0023 Q662.849 11.0023 667.264 11.7719 Q671.68 12.5416 676.298 14.0809 Z" fill="#000000" fill-rule="nonzero" fill-opacity="1" /><path clip-path="url(#clip530)" d="M725.03 28.9478 L725.03 35.9153 Q721.87 34.1734 718.67 33.3227 Q715.51 32.4315 712.27 32.4315 Q705.019 32.4315 701.008 37.0496 Q696.998 41.6271 696.998 49.9314 Q696.998 58.2358 701.008 62.8538 Q705.019 67.4314 712.27 67.4314 Q715.51 67.4314 718.67 66.5807 Q721.87 65.6895 725.03 63.9476 L725.03 70.8341 Q721.911 72.2924 718.549 73.0216 Q715.227 73.7508 711.459 73.7508 Q701.211 73.7508 695.175 67.3098 Q689.139 60.8689 689.139 49.9314 Q689.139 38.832 695.215 32.472 Q701.332 26.1121 711.946 26.1121 Q715.389 26.1121 718.67 26.8413 Q721.951 27.5299 725.03 28.9478 Z" fill="#000000" fill-rule="nonzero" fill-opacity="1" /><path clip-path="url(#clip530)" d="M776.801 48.0275 L776.801 51.6733 L742.53 51.6733 Q743.016 59.3701 747.148 63.421 Q751.32 67.4314 758.734 67.4314 Q763.028 67.4314 767.038 66.3781 Q771.089 65.3249 775.059 63.2184 L775.059 70.267 Q771.048 71.9684 766.835 72.8596 Q762.622 73.7508 758.288 73.7508 Q747.432 73.7508 741.072 67.4314 Q734.752 61.1119 734.752 50.3365 Q734.752 39.1965 740.748 32.6746 Q746.783 26.1121 756.992 26.1121 Q766.147 26.1121 771.453 32.0264 Q776.801 37.9003 776.801 48.0275 M769.347 45.84 Q769.266 39.7232 765.904 36.0774 Q762.582 32.4315 757.073 32.4315 Q750.834 32.4315 747.067 35.9558 Q743.34 39.4801 742.773 45.8805 L769.347 45.84 Z" fill="#000000" fill-rule="nonzero" fill-opacity="1" /><path clip-path="url(#clip530)" d="M826.748 45.1919 L826.748 72.576 L819.295 72.576 L819.295 45.4349 Q819.295 38.994 816.783 35.7938 Q814.271 32.5936 809.248 32.5936 Q803.212 32.5936 799.729 36.4419 Q796.245 40.2903 796.245 46.9338 L796.245 72.576 L788.751 72.576 L788.751 27.2059 L796.245 27.2059 L796.245 34.2544 Q798.919 30.163 802.524 28.1376 Q806.17 26.1121 810.909 26.1121 Q818.727 26.1121 822.738 30.9732 Q826.748 35.7938 826.748 45.1919 Z" fill="#000000" fill-rule="nonzero" fill-opacity="1" /><path clip-path="url(#clip530)" d="M880.423 48.0275 L880.423 51.6733 L846.152 51.6733 Q846.638 59.3701 850.77 63.421 Q854.943 67.4314 862.356 67.4314 Q866.65 67.4314 870.66 66.3781 Q874.711 65.3249 878.681 63.2184 L878.681 70.267 Q874.67 71.9684 870.457 72.8596 Q866.245 73.7508 861.91 73.7508 Q851.054 73.7508 844.694 67.4314 Q838.374 61.1119 838.374 50.3365 Q838.374 39.1965 844.37 32.6746 Q850.406 26.1121 860.614 26.1121 Q869.769 26.1121 875.076 32.0264 Q880.423 37.9003 880.423 48.0275 M872.969 45.84 Q872.888 39.7232 869.526 36.0774 Q866.204 32.4315 860.695 32.4315 Q854.456 32.4315 850.689 35.9558 Q846.962 39.4801 846.395 45.8805 L872.969 45.84 Z" fill="#000000" fill-rule="nonzero" fill-opacity="1" /><path clip-path="url(#clip530)" d="M948.032 44.2197 Q950.665 45.1109 953.136 48.0275 Q955.648 50.9442 958.16 56.0483 L966.464 72.576 L957.673 72.576 L949.936 57.061 Q946.939 50.9847 944.103 48.9997 Q941.308 47.0148 936.447 47.0148 L927.535 47.0148 L927.535 72.576 L919.352 72.576 L919.352 12.096 L937.824 12.096 Q948.194 12.096 953.298 16.4305 Q958.403 20.7649 958.403 29.5149 Q958.403 35.2267 955.729 38.994 Q953.096 42.7613 948.032 44.2197 M927.535 18.8205 L927.535 40.2903 L937.824 40.2903 Q943.738 40.2903 946.736 37.5762 Q949.774 34.8216 949.774 29.5149 Q949.774 24.2082 946.736 21.5346 Q943.738 18.8205 937.824 18.8205 L927.535 18.8205 Z" fill="#000000" fill-rule="nonzero" fill-opacity="1" /><path clip-path="url(#clip530)" d="M976.996 12.096 L989.189 12.096 L1004.62 53.2532 L1020.14 12.096 L1032.33 12.096 L1032.33 72.576 L1024.35 72.576 L1024.35 19.4686 L1008.76 60.9499 L1000.53 60.9499 L984.936 19.4686 L984.936 72.576 L976.996 72.576 L976.996 12.096 Z" fill="#000000" fill-rule="nonzero" fill-opacity="1" /><path clip-path="url(#clip530)" d="M1084.83 14.0809 L1084.83 22.0612 Q1080.17 19.8332 1076.04 18.7395 Q1071.91 17.6457 1068.06 17.6457 Q1061.38 17.6457 1057.73 20.2383 Q1054.13 22.8309 1054.13 27.611 Q1054.13 31.6214 1056.52 33.6873 Q1058.95 35.7128 1065.67 36.9686 L1070.61 37.9813 Q1079.77 39.7232 1084.1 44.1387 Q1088.48 48.5136 1088.48 55.8863 Q1088.48 64.6767 1082.56 69.2137 Q1076.69 73.7508 1065.31 73.7508 Q1061.01 73.7508 1056.15 72.7785 Q1051.33 71.8063 1046.15 69.9024 L1046.15 61.4765 Q1051.13 64.2716 1055.91 65.6895 Q1060.69 67.1073 1065.31 67.1073 Q1072.31 67.1073 1076.12 64.3527 Q1079.93 61.598 1079.93 56.4939 Q1079.93 52.0379 1077.18 49.5264 Q1074.46 47.0148 1068.22 45.759 L1063.24 44.7868 Q1054.08 42.9639 1049.99 39.075 Q1045.9 35.1862 1045.9 28.2591 Q1045.9 20.2383 1051.53 15.6203 Q1057.2 11.0023 1067.13 11.0023 Q1071.38 11.0023 1075.8 11.7719 Q1080.21 12.5416 1084.83 14.0809 Z" fill="#000000" fill-rule="nonzero" fill-opacity="1" /><path clip-path="url(#clip530)" d="M1134.66 14.324 L1134.66 27.2059 L1150.01 27.2059 L1150.01 32.9987 L1134.66 32.9987 L1134.66 57.6282 Q1134.66 63.1779 1136.16 64.7578 Q1137.7 66.3376 1142.35 66.3376 L1150.01 66.3376 L1150.01 72.576 L1142.35 72.576 Q1133.73 72.576 1130.44 69.3758 Q1127.16 66.1351 1127.16 57.6282 L1127.16 32.9987 L1121.69 32.9987 L1121.69 27.2059 L1127.16 27.2059 L1127.16 14.324 L1134.66 14.324 Z" fill="#000000" fill-rule="nonzero" fill-opacity="1" /><path clip-path="url(#clip530)" d="M1177.39 32.4315 Q1171.4 32.4315 1167.92 37.1306 Q1164.43 41.7891 1164.43 49.9314 Q1164.43 58.0738 1167.87 62.7728 Q1171.36 67.4314 1177.39 67.4314 Q1183.35 67.4314 1186.83 62.7323 Q1190.32 58.0333 1190.32 49.9314 Q1190.32 41.8701 1186.83 37.1711 Q1183.35 32.4315 1177.39 32.4315 M1177.39 26.1121 Q1187.12 26.1121 1192.67 32.4315 Q1198.22 38.7509 1198.22 49.9314 Q1198.22 61.0714 1192.67 67.4314 Q1187.12 73.7508 1177.39 73.7508 Q1167.63 73.7508 1162.08 67.4314 Q1156.57 61.0714 1156.57 49.9314 Q1156.57 38.7509 1162.08 32.4315 Q1167.63 26.1121 1177.39 26.1121 Z" fill="#000000" fill-rule="nonzero" fill-opacity="1" /><path clip-path="url(#clip530)" d="M1274.66 45.1919 L1274.66 72.576 L1267.2 72.576 L1267.2 45.4349 Q1267.2 38.994 1264.69 35.7938 Q1262.18 32.5936 1257.16 32.5936 Q1251.12 32.5936 1247.64 36.4419 Q1244.15 40.2903 1244.15 46.9338 L1244.15 72.576 L1236.66 72.576 L1236.66 27.2059 L1244.15 27.2059 L1244.15 34.2544 Q1246.83 30.163 1250.43 28.1376 Q1254.08 26.1121 1258.82 26.1121 Q1266.64 26.1121 1270.65 30.9732 Q1274.66 35.7938 1274.66 45.1919 Z" fill="#000000" fill-rule="nonzero" fill-opacity="1" /><path clip-path="url(#clip530)" d="M1307.1 32.4315 Q1301.11 32.4315 1297.63 37.1306 Q1294.14 41.7891 1294.14 49.9314 Q1294.14 58.0738 1297.58 62.7728 Q1301.07 67.4314 1307.1 67.4314 Q1313.06 67.4314 1316.54 62.7323 Q1320.03 58.0333 1320.03 49.9314 Q1320.03 41.8701 1316.54 37.1711 Q1313.06 32.4315 1307.1 32.4315 M1307.1 26.1121 Q1316.83 26.1121 1322.38 32.4315 Q1327.93 38.7509 1327.93 49.9314 Q1327.93 61.0714 1322.38 67.4314 Q1316.83 73.7508 1307.1 73.7508 Q1297.34 73.7508 1291.79 67.4314 Q1286.28 61.0714 1286.28 49.9314 Q1286.28 38.7509 1291.79 32.4315 Q1297.34 26.1121 1307.1 26.1121 Z" fill="#000000" fill-rule="nonzero" fill-opacity="1" /><path clip-path="url(#clip530)" d="M1340.28 27.2059 L1347.74 27.2059 L1347.74 72.576 L1340.28 72.576 L1340.28 27.2059 M1340.28 9.54393 L1347.74 9.54393 L1347.74 18.9825 L1340.28 18.9825 L1340.28 9.54393 Z" fill="#000000" fill-rule="nonzero" fill-opacity="1" /><path clip-path="url(#clip530)" d="M1392.25 28.5427 L1392.25 35.5912 Q1389.09 33.9709 1385.69 33.1607 Q1382.29 32.3505 1378.64 32.3505 Q1373.09 32.3505 1370.3 34.0519 Q1367.54 35.7533 1367.54 39.156 Q1367.54 41.7486 1369.53 43.2475 Q1371.51 44.7058 1377.51 46.0426 L1380.06 46.6097 Q1388 48.3111 1391.32 51.4303 Q1394.69 54.509 1394.69 60.0587 Q1394.69 66.3781 1389.66 70.0644 Q1384.68 73.7508 1375.93 73.7508 Q1372.28 73.7508 1368.31 73.0216 Q1364.38 72.3329 1360.01 70.9151 L1360.01 63.2184 Q1364.14 65.3654 1368.15 66.4591 Q1372.16 67.5124 1376.09 67.5124 Q1381.36 67.5124 1384.19 65.73 Q1387.03 63.9071 1387.03 60.6258 Q1387.03 57.5877 1384.96 55.9673 Q1382.94 54.3469 1376.01 52.8481 L1373.42 52.2405 Q1366.49 50.7821 1363.41 47.7845 Q1360.33 44.7463 1360.33 39.4801 Q1360.33 33.0797 1364.87 29.5959 Q1369.41 26.1121 1377.75 26.1121 Q1381.88 26.1121 1385.53 26.7198 Q1389.18 27.3274 1392.25 28.5427 Z" fill="#000000" fill-rule="nonzero" fill-opacity="1" /><path clip-path="url(#clip530)" d="M1445.36 48.0275 L1445.36 51.6733 L1411.09 51.6733 Q1411.58 59.3701 1415.71 63.421 Q1419.88 67.4314 1427.29 67.4314 Q1431.59 67.4314 1435.6 66.3781 Q1439.65 65.3249 1443.62 63.2184 L1443.62 70.267 Q1439.61 71.9684 1435.4 72.8596 Q1431.18 73.7508 1426.85 73.7508 Q1415.99 73.7508 1409.63 67.4314 Q1403.31 61.1119 1403.31 50.3365 Q1403.31 39.1965 1409.31 32.6746 Q1415.34 26.1121 1425.55 26.1121 Q1434.71 26.1121 1440.01 32.0264 Q1445.36 37.9003 1445.36 48.0275 M1437.91 45.84 Q1437.83 39.7232 1434.46 36.0774 Q1431.14 32.4315 1425.63 32.4315 Q1419.4 32.4315 1415.63 35.9558 Q1411.9 39.4801 1411.33 45.8805 L1437.91 45.84 Z" fill="#000000" fill-rule="nonzero" fill-opacity="1" /><path clip-path="url(#clip530)" d="M1512.97 44.2197 Q1515.6 45.1109 1518.08 48.0275 Q1520.59 50.9442 1523.1 56.0483 L1531.4 72.576 L1522.61 72.576 L1514.88 57.061 Q1511.88 50.9847 1509.04 48.9997 Q1506.25 47.0148 1501.39 47.0148 L1492.47 47.0148 L1492.47 72.576 L1484.29 72.576 L1484.29 12.096 L1502.76 12.096 Q1513.13 12.096 1518.24 16.4305 Q1523.34 20.7649 1523.34 29.5149 Q1523.34 35.2267 1520.67 38.994 Q1518.04 42.7613 1512.97 44.2197 M1492.47 18.8205 L1492.47 40.2903 L1502.76 40.2903 Q1508.68 40.2903 1511.68 37.5762 Q1514.71 34.8216 1514.71 29.5149 Q1514.71 24.2082 1511.68 21.5346 Q1508.68 18.8205 1502.76 18.8205 L1492.47 18.8205 Z" fill="#000000" fill-rule="nonzero" fill-opacity="1" /><path clip-path="url(#clip530)" d="M1541.94 12.096 L1554.13 12.096 L1569.56 53.2532 L1585.08 12.096 L1597.27 12.096 L1597.27 72.576 L1589.29 72.576 L1589.29 19.4686 L1573.69 60.9499 L1565.47 60.9499 L1549.88 19.4686 L1549.88 72.576 L1541.94 72.576 L1541.94 12.096 Z" fill="#000000" fill-rule="nonzero" fill-opacity="1" /><path clip-path="url(#clip530)" d="M1649.77 14.0809 L1649.77 22.0612 Q1645.11 19.8332 1640.98 18.7395 Q1636.85 17.6457 1633 17.6457 Q1626.32 17.6457 1622.67 20.2383 Q1619.06 22.8309 1619.06 27.611 Q1619.06 31.6214 1621.45 33.6873 Q1623.89 35.7128 1630.61 36.9686 L1635.55 37.9813 Q1644.71 39.7232 1649.04 44.1387 Q1653.42 48.5136 1653.42 55.8863 Q1653.42 64.6767 1647.5 69.2137 Q1641.63 73.7508 1630.25 73.7508 Q1625.95 73.7508 1621.09 72.7785 Q1616.27 71.8063 1611.08 69.9024 L1611.08 61.4765 Q1616.07 64.2716 1620.85 65.6895 Q1625.63 67.1073 1630.25 67.1073 Q1637.25 67.1073 1641.06 64.3527 Q1644.87 61.598 1644.87 56.4939 Q1644.87 52.0379 1642.11 49.5264 Q1639.4 47.0148 1633.16 45.759 L1628.18 44.7868 Q1619.02 42.9639 1614.93 39.075 Q1610.84 35.1862 1610.84 28.2591 Q1610.84 20.2383 1616.47 15.6203 Q1622.14 11.0023 1632.07 11.0023 Q1636.32 11.0023 1640.74 11.7719 Q1645.15 12.5416 1649.77 14.0809 Z" fill="#000000" fill-rule="nonzero" fill-opacity="1" /><path clip-path="url(#clip530)" d="M1718.51 34.1734 Q1717.26 33.4443 1715.76 33.1202 Q1714.3 32.7556 1712.52 32.7556 Q1706.2 32.7556 1702.8 36.8875 Q1699.43 40.9789 1699.43 48.6757 L1699.43 72.576 L1691.94 72.576 L1691.94 27.2059 L1699.43 27.2059 L1699.43 34.2544 Q1701.78 30.1225 1705.55 28.1376 Q1709.32 26.1121 1714.71 26.1121 Q1715.48 26.1121 1716.41 26.2337 Q1717.34 26.3147 1718.47 26.5172 L1718.51 34.1734 Z" fill="#000000" fill-rule="nonzero" fill-opacity="1" /><path clip-path="url(#clip530)" d="M1746.95 49.7694 Q1737.92 49.7694 1734.43 51.8354 Q1730.95 53.9013 1730.95 58.8839 Q1730.95 62.8538 1733.54 65.2034 Q1736.18 67.5124 1740.67 67.5124 Q1746.87 67.5124 1750.6 63.1374 Q1754.36 58.7219 1754.36 51.4303 L1754.36 49.7694 L1746.95 49.7694 M1761.82 46.6907 L1761.82 72.576 L1754.36 72.576 L1754.36 65.6895 Q1751.81 69.8214 1748 71.8063 Q1744.2 73.7508 1738.69 73.7508 Q1731.72 73.7508 1727.59 69.8619 Q1723.5 65.9325 1723.5 59.3701 Q1723.5 51.7138 1728.6 47.825 Q1733.75 43.9361 1743.91 43.9361 L1754.36 43.9361 L1754.36 43.2069 Q1754.36 38.0623 1750.96 35.2672 Q1747.6 32.4315 1741.48 32.4315 Q1737.59 32.4315 1733.91 33.3632 Q1730.22 34.295 1726.82 36.1584 L1726.82 29.2718 Q1730.91 27.692 1734.76 26.9223 Q1738.61 26.1121 1742.25 26.1121 Q1752.1 26.1121 1756.96 31.2163 Q1761.82 36.3204 1761.82 46.6907 Z" fill="#000000" fill-rule="nonzero" fill-opacity="1" /><path clip-path="url(#clip530)" d="M1784.54 14.324 L1784.54 27.2059 L1799.9 27.2059 L1799.9 32.9987 L1784.54 32.9987 L1784.54 57.6282 Q1784.54 63.1779 1786.04 64.7578 Q1787.58 66.3376 1792.24 66.3376 L1799.9 66.3376 L1799.9 72.576 L1792.24 72.576 Q1783.61 72.576 1780.33 69.3758 Q1777.05 66.1351 1777.05 57.6282 L1777.05 32.9987 L1771.58 32.9987 L1771.58 27.2059 L1777.05 27.2059 L1777.05 14.324 L1784.54 14.324 Z" fill="#000000" fill-rule="nonzero" fill-opacity="1" /><path clip-path="url(#clip530)" d="M1809.7 27.2059 L1817.15 27.2059 L1817.15 72.576 L1809.7 72.576 L1809.7 27.2059 M1809.7 9.54393 L1817.15 9.54393 L1817.15 18.9825 L1809.7 18.9825 L1809.7 9.54393 Z" fill="#000000" fill-rule="nonzero" fill-opacity="1" /><path clip-path="url(#clip530)" d="M1850.33 32.4315 Q1844.34 32.4315 1840.85 37.1306 Q1837.37 41.7891 1837.37 49.9314 Q1837.37 58.0738 1840.81 62.7728 Q1844.29 67.4314 1850.33 67.4314 Q1856.29 67.4314 1859.77 62.7323 Q1863.25 58.0333 1863.25 49.9314 Q1863.25 41.8701 1859.77 37.1711 Q1856.29 32.4315 1850.33 32.4315 M1850.33 26.1121 Q1860.05 26.1121 1865.6 32.4315 Q1871.15 38.7509 1871.15 49.9314 Q1871.15 61.0714 1865.6 67.4314 Q1860.05 73.7508 1850.33 73.7508 Q1840.57 73.7508 1835.02 67.4314 Q1829.51 61.0714 1829.51 49.9314 Q1829.51 38.7509 1835.02 32.4315 Q1840.57 26.1121 1850.33 26.1121 Z" fill="#000000" fill-rule="nonzero" fill-opacity="1" /><polyline clip-path="url(#clip532)" style="stroke:#009af9; stroke-linecap:round; stroke-linejoin:round; stroke-width:4; stroke-opacity:1; fill:none" points="217.944,1315.27 425.207,728.359 632.47,777.501 839.734,752.335 1047,556.336 1254.26,640.938 1461.52,247.562 1668.79,162.047 1876.05,326.615 2083.31,1447.87 2290.58,641.319 "/>
<path clip-path="url(#clip530)" d="M228.998 272.585 L655.71 272.585 L655.71 168.905 L228.998 168.905  Z" fill="#ffffff" fill-rule="evenodd" fill-opacity="1"/>
<polyline clip-path="url(#clip530)" style="stroke:#000000; stroke-linecap:round; stroke-linejoin:round; stroke-width:4; stroke-opacity:1; fill:none" points="228.998,272.585 655.71,272.585 655.71,168.905 228.998,168.905 228.998,272.585 "/>
<polyline clip-path="url(#clip530)" style="stroke:#009af9; stroke-linecap:round; stroke-linejoin:round; stroke-width:4; stroke-opacity:1; fill:none" points="253.409,220.745 399.875,220.745 "/>
<path clip-path="url(#clip530)" d="M439.471 216.08 Q438.754 215.664 437.897 215.478 Q437.064 215.27 436.045 215.27 Q432.434 215.27 430.49 217.631 Q428.568 219.969 428.568 224.367 L428.568 238.025 L424.286 238.025 L424.286 212.099 L428.568 212.099 L428.568 216.127 Q429.911 213.766 432.064 212.631 Q434.217 211.474 437.295 211.474 Q437.735 211.474 438.267 211.543 Q438.8 211.59 439.448 211.705 L439.471 216.08 Z" fill="#000000" fill-rule="nonzero" fill-opacity="1" /><path clip-path="url(#clip530)" d="M463.29 217.076 Q464.888 214.205 467.11 212.84 Q469.332 211.474 472.341 211.474 Q476.392 211.474 478.591 214.321 Q480.79 217.145 480.79 222.377 L480.79 238.025 L476.508 238.025 L476.508 222.515 Q476.508 218.789 475.189 216.983 Q473.869 215.178 471.161 215.178 Q467.851 215.178 465.929 217.377 Q464.008 219.576 464.008 223.372 L464.008 238.025 L459.726 238.025 L459.726 222.515 Q459.726 218.765 458.406 216.983 Q457.087 215.178 454.332 215.178 Q451.068 215.178 449.147 217.4 Q447.226 219.599 447.226 223.372 L447.226 238.025 L442.943 238.025 L442.943 212.099 L447.226 212.099 L447.226 216.127 Q448.684 213.742 450.721 212.608 Q452.758 211.474 455.559 211.474 Q458.383 211.474 460.351 212.909 Q462.341 214.344 463.29 217.076 Z" fill="#000000" fill-rule="nonzero" fill-opacity="1" /><path clip-path="url(#clip530)" d="M505.813 212.863 L505.813 216.891 Q504.008 215.965 502.063 215.502 Q500.119 215.039 498.036 215.039 Q494.864 215.039 493.267 216.011 Q491.693 216.983 491.693 218.928 Q491.693 220.409 492.827 221.265 Q493.962 222.099 497.387 222.863 L498.846 223.187 Q503.383 224.159 505.281 225.941 Q507.202 227.701 507.202 230.872 Q507.202 234.483 504.332 236.589 Q501.485 238.696 496.485 238.696 Q494.401 238.696 492.133 238.279 Q489.888 237.886 487.388 237.076 L487.388 232.677 Q489.749 233.904 492.04 234.529 Q494.332 235.131 496.577 235.131 Q499.587 235.131 501.207 234.113 Q502.827 233.071 502.827 231.196 Q502.827 229.46 501.647 228.534 Q500.489 227.608 496.531 226.752 L495.05 226.404 Q491.091 225.571 489.332 223.858 Q487.573 222.122 487.573 219.113 Q487.573 215.455 490.165 213.465 Q492.758 211.474 497.526 211.474 Q499.887 211.474 501.971 211.821 Q504.054 212.168 505.813 212.863 Z" fill="#000000" fill-rule="nonzero" fill-opacity="1" /><path clip-path="url(#clip530)" d="M544.077 216.08 Q543.359 215.664 542.503 215.478 Q541.67 215.27 540.651 215.27 Q537.04 215.27 535.096 217.631 Q533.174 219.969 533.174 224.367 L533.174 238.025 L528.892 238.025 L528.892 212.099 L533.174 212.099 L533.174 216.127 Q534.517 213.766 536.67 212.631 Q538.822 211.474 541.901 211.474 Q542.341 211.474 542.873 211.543 Q543.406 211.59 544.054 211.705 L544.077 216.08 Z" fill="#000000" fill-rule="nonzero" fill-opacity="1" /><path clip-path="url(#clip530)" d="M560.327 224.992 Q555.165 224.992 553.174 226.173 Q551.183 227.353 551.183 230.201 Q551.183 232.469 552.665 233.812 Q554.17 235.131 556.739 235.131 Q560.281 235.131 562.41 232.631 Q564.563 230.108 564.563 225.941 L564.563 224.992 L560.327 224.992 M568.822 223.233 L568.822 238.025 L564.563 238.025 L564.563 234.089 Q563.105 236.451 560.929 237.585 Q558.753 238.696 555.605 238.696 Q551.623 238.696 549.262 236.474 Q546.924 234.228 546.924 230.478 Q546.924 226.103 549.841 223.881 Q552.781 221.659 558.591 221.659 L564.563 221.659 L564.563 221.242 Q564.563 218.303 562.619 216.705 Q560.697 215.085 557.202 215.085 Q554.98 215.085 552.873 215.617 Q550.767 216.15 548.822 217.215 L548.822 213.279 Q551.16 212.377 553.359 211.937 Q555.558 211.474 557.642 211.474 Q563.267 211.474 566.045 214.391 Q568.822 217.307 568.822 223.233 Z" fill="#000000" fill-rule="nonzero" fill-opacity="1" /><path clip-path="url(#clip530)" d="M581.808 204.738 L581.808 212.099 L590.581 212.099 L590.581 215.409 L581.808 215.409 L581.808 229.483 Q581.808 232.654 582.665 233.557 Q583.544 234.46 586.206 234.46 L590.581 234.46 L590.581 238.025 L586.206 238.025 Q581.276 238.025 579.401 236.196 Q577.526 234.344 577.526 229.483 L577.526 215.409 L574.401 215.409 L574.401 212.099 L577.526 212.099 L577.526 204.738 L581.808 204.738 Z" fill="#000000" fill-rule="nonzero" fill-opacity="1" /><path clip-path="url(#clip530)" d="M596.183 212.099 L600.442 212.099 L600.442 238.025 L596.183 238.025 L596.183 212.099 M596.183 202.006 L600.442 202.006 L600.442 207.4 L596.183 207.4 L596.183 202.006 Z" fill="#000000" fill-rule="nonzero" fill-opacity="1" /><path clip-path="url(#clip530)" d="M619.401 215.085 Q615.975 215.085 613.984 217.77 Q611.993 220.432 611.993 225.085 Q611.993 229.738 613.961 232.423 Q615.952 235.085 619.401 235.085 Q622.803 235.085 624.794 232.4 Q626.785 229.715 626.785 225.085 Q626.785 220.478 624.794 217.793 Q622.803 215.085 619.401 215.085 M619.401 211.474 Q624.956 211.474 628.128 215.085 Q631.299 218.696 631.299 225.085 Q631.299 231.451 628.128 235.085 Q624.956 238.696 619.401 238.696 Q613.822 238.696 610.651 235.085 Q607.503 231.451 607.503 225.085 Q607.503 218.696 610.651 215.085 Q613.822 211.474 619.401 211.474 Z" fill="#000000" fill-rule="nonzero" fill-opacity="1" /></svg>
